<svg width="1440" height="714" preserveAspectRatio="none" viewBox="0 0 1440 714" fill="none" xmlns="http://www.w3.org/2000/svg">
<path d="M0 137C0 120.431 13.4315 107 30 107H1410C1426.57 107 1440 120.431 1440 137V563C1440 579.569 1426.57 593 1410 593H50C22.3857 593 0 570.614 0 543V137Z" fill="#1557AE"/>
<path d="M0 30C0 13.4315 13.4315 0 30 0H929C959.376 0 984 24.6243 984 55V184C984 200.569 970.569 214 954 214H30C13.4314 214 0 200.569 0 184V30Z" fill="#1557AE"/>
<rect x="497" y="492" width="943" height="209" rx="55" fill="#1557AE"/>
<rect x="957" y="52" width="84" height="89" fill="#1557AE"/>
<rect x="408" y="589" width="131" height="62" fill="#1557AE"/>
<path d="M984 30C984 13.4315 997.431 0 1014 0H1409C1425.57 0 1439 13.4315 1439 30V77C1439 93.5685 1425.57 107 1409 107H1039C1008.62 107 984 82.3757 984 52V30Z" fill="white"/>
<rect y="593" width="497" height="121" rx="50" fill="white"/>
</svg>
