<svg width="706" height="325" preserveAspectRatio="none" viewBox="0 0 706 325" fill="none" xmlns="http://www.w3.org/2000/svg">
<rect x="534" y="115" width="60" height="93" transform="rotate(-90 534 115)" fill="#F5F7FD"/>
<rect width="304" height="571" rx="30" transform="matrix(4.78812e-08 -1 -1 -3.99047e-08 571 325)" fill="#F5F7FD"/>
<rect x="472" y="325" width="223" height="185" rx="30" transform="rotate(-90 472 325)" fill="#F5F7FD"/>
<rect x="571" y="102" width="102" height="135" rx="50" transform="rotate(-90 571 102)" fill="#1557AE"/>
<g clip-path="url(#clip0_1013_145)">
<mask id="mask0_1013_145" style="mask-type:luminance" maskUnits="userSpaceOnUse" x="605" y="41" width="28" height="28">
<path d="M633 41H605V69H633V41Z" fill="white"/>
</mask>
<g mask="url(#mask0_1013_145)">
<path fill-rule="evenodd" clip-rule="evenodd" d="M620 41.56C620 41.2507 619.749 41 619.44 41H618.56C618.251 41 618 41.2507 618 41.56V46.9745C618 47.59 617.151 47.755 616.921 47.1843L614.892 42.164C614.777 41.8773 614.45 41.7387 614.163 41.8546L613.348 42.1842C613.061 42.3001 612.922 42.6265 613.038 42.9133L615.2 48.2653C615.429 48.8309 614.717 49.3024 614.285 48.8711L610.204 44.7894C609.985 44.5707 609.63 44.5707 609.412 44.7894L608.789 45.4116C608.571 45.6303 608.571 45.9849 608.789 46.2036L612.455 49.8689C612.892 50.3065 612.402 51.0258 611.835 50.778L607.085 48.7027C606.801 48.5789 606.471 48.7083 606.347 48.9917L605.995 49.7981C605.871 50.0815 606 50.4116 606.284 50.5355L611.757 52.9268C612.313 53.1698 612.14 54 611.533 54H605.56C605.251 54 605 54.2507 605 54.56V55.44C605 55.7493 605.251 56 605.56 56H611.533C612.14 56 612.313 56.8302 611.757 57.0731L606.284 59.4646C606 59.5884 605.871 59.9185 605.995 60.2018L606.347 61.0082C606.471 61.2917 606.801 61.4211 607.085 61.2972L611.835 59.222C612.402 58.9742 612.892 59.6935 612.455 60.1311L608.789 63.7963C608.571 64.0152 608.571 64.3696 608.789 64.5883L609.412 65.2106C609.63 65.4293 609.985 65.4293 610.204 65.2106L614.285 61.1289C614.717 60.6976 615.429 61.1691 615.2 61.7347L613.038 67.0868C612.922 67.3735 613.061 67.6998 613.348 67.8157L614.163 68.1454C614.45 68.2612 614.777 68.1228 614.892 67.8359L616.921 62.8158C617.151 62.245 618 62.4101 618 63.0255V68.44C618 68.7493 618.251 69 618.56 69H619.44C619.749 69 620 68.7493 620 68.44V63.0255C620 62.4101 620.849 62.245 621.079 62.8158L623.107 67.8359C623.223 68.1228 623.55 68.2612 623.837 68.1454L624.653 67.8157C624.939 67.6998 625.078 67.3735 624.962 67.0868L622.8 61.7347C622.571 61.1691 623.283 60.6976 623.715 61.1289L627.796 65.2106C628.015 65.4293 628.37 65.4293 628.588 65.2106L629.211 64.5883C629.429 64.3696 629.429 64.0152 629.211 63.7963L625.545 60.1311C625.108 59.6935 625.598 58.9742 626.165 59.222L630.915 61.2972C631.199 61.4211 631.529 61.2917 631.653 61.0082L632.005 60.2018C632.129 59.9185 632 59.5884 631.716 59.4646L626.243 57.0731C625.687 56.8302 625.86 56 626.467 56H632.44C632.749 56 633 55.7493 633 55.44V54.56C633 54.2507 632.749 54 632.44 54H626.467C625.86 54 625.687 53.1698 626.243 52.9268L631.716 50.5355C632 50.4116 632.129 50.0815 632.005 49.7981L631.653 48.9917C631.529 48.7083 631.199 48.5789 630.915 48.7027L626.165 50.778C625.598 51.0258 625.108 50.3065 625.545 49.8689L629.211 46.2036C629.429 45.9849 629.429 45.6303 629.211 45.4116L628.588 44.7894C628.37 44.5707 628.015 44.5707 627.796 44.7894L623.715 48.871C623.283 49.3024 622.571 48.8309 622.8 48.2653L624.962 42.9133C625.078 42.6265 624.939 42.3001 624.653 42.1842L623.837 41.8546C623.55 41.7387 623.223 41.8773 623.107 42.164L621.079 47.1843C620.849 47.755 620 47.59 620 46.9745V41.56Z" fill="white"/>
</g>
</g>
<defs>
<clipPath id="clip0_1013_145">
<rect width="28" height="28" fill="white" transform="translate(605 41)"/>
</clipPath>
</defs>
</svg>
