<svg width="312" height="125" viewBox="0 0 312 125" preserveAspectRatio="none" fill="none" xmlns="http://www.w3.org/2000/svg">
<rect width="79" height="310" rx="20" transform="matrix(4.78812e-08 -1 -1 -3.99047e-08 310 125)" fill="#F5F7FD"/>
<rect width="68" height="268" rx="20" transform="matrix(4.78812e-08 -1 -1 -3.99047e-08 268 84)" fill="#F5F7FD"/>
<rect x="249" y="54" width="25" height="38" transform="rotate(-90 249 54)" fill="#F5F7FD"/>
<circle cx="289" cy="23" r="23" fill="#1557AE"/>
<g clip-path="url(#clip0_1006_100)">
<mask id="mask0_1006_100" style="mask-type:luminance" maskUnits="userSpaceOnUse" x="282" y="16" width="14" height="14">
<path d="M296 16H282V30H296V16Z" fill="white"/>
</mask>
<g mask="url(#mask0_1006_100)">
<path fill-rule="evenodd" clip-rule="evenodd" d="M289.5 16.28C289.5 16.1254 289.375 16 289.22 16H288.78C288.625 16 288.5 16.1254 288.5 16.28V18.9872C288.5 19.295 288.076 19.3775 287.96 19.0921L286.946 16.582C286.888 16.4386 286.725 16.3694 286.582 16.4273L286.174 16.5921C286.03 16.6501 285.961 16.8132 286.019 16.9566L287.1 19.6326C287.214 19.9155 286.858 20.1512 286.643 19.9355L284.602 17.8947C284.492 17.7853 284.315 17.7853 284.206 17.8947L283.895 18.2058C283.785 18.3152 283.785 18.4924 283.895 18.6018L285.727 20.4345C285.946 20.6532 285.701 21.0129 285.417 20.889L283.042 19.8514C282.901 19.7895 282.735 19.8541 282.674 19.9958L282.497 20.399C282.436 20.5408 282.5 20.7058 282.642 20.7677L285.379 21.9634C285.657 22.0849 285.57 22.5 285.267 22.5H282.28C282.125 22.5 282 22.6254 282 22.78V23.22C282 23.3746 282.125 23.5 282.28 23.5H285.266C285.57 23.5 285.657 23.9151 285.379 24.0366L282.642 25.2323C282.5 25.2942 282.436 25.4592 282.497 25.6009L282.674 26.0041C282.735 26.1459 282.901 26.2105 283.042 26.1486L285.417 25.111C285.701 24.9871 285.946 25.3468 285.727 25.5656L283.895 27.3982C283.785 27.5076 283.785 27.6848 283.895 27.7942L284.206 28.1053C284.315 28.2147 284.492 28.2147 284.602 28.1053L286.643 26.0645C286.858 25.8488 287.215 26.0845 287.1 26.3673L286.019 29.0434C285.961 29.1867 286.03 29.3499 286.174 29.4079L286.582 29.5727C286.725 29.6306 286.888 29.5614 286.946 29.4179L287.96 26.9079C288.076 26.6225 288.5 26.705 288.5 27.0127V29.72C288.5 29.8746 288.625 30 288.78 30H289.22C289.375 30 289.5 29.8746 289.5 29.72V27.0127C289.5 26.705 289.924 26.6225 290.04 26.9079L291.054 29.4179C291.112 29.5614 291.275 29.6306 291.418 29.5727L291.826 29.4079C291.97 29.3499 292.039 29.1867 291.981 29.0434L290.9 26.3673C290.785 26.0845 291.142 25.8488 291.357 26.0645L293.398 28.1053C293.508 28.2147 293.685 28.2147 293.794 28.1053L294.105 27.7942C294.215 27.6848 294.215 27.5076 294.105 27.3982L292.273 25.5656C292.054 25.3468 292.299 24.9871 292.583 25.111L294.958 26.1486C295.099 26.2105 295.265 26.1459 295.326 26.0041L295.503 25.6009C295.564 25.4592 295.5 25.2942 295.358 25.2323L292.621 24.0366C292.343 23.9151 292.43 23.5 292.734 23.5H295.72C295.875 23.5 296 23.3746 296 23.22V22.78C296 22.6254 295.875 22.5 295.72 22.5H292.734C292.43 22.5 292.343 22.0849 292.621 21.9634L295.358 20.7677C295.5 20.7058 295.564 20.5407 295.503 20.399L295.326 19.9958C295.265 19.8541 295.099 19.7895 294.958 19.8514L292.583 20.889C292.299 21.0129 292.054 20.6532 292.273 20.4345L294.105 18.6018C294.215 18.4924 294.215 18.3152 294.105 18.2058L293.794 17.8947C293.685 17.7853 293.508 17.7853 293.398 17.8947L291.357 19.9355C291.142 20.1512 290.785 19.9154 290.9 19.6326L291.981 16.9566C292.039 16.8132 291.97 16.6501 291.826 16.5921L291.418 16.4273C291.275 16.3694 291.112 16.4386 291.054 16.582L290.04 19.0921C289.924 19.3775 289.5 19.295 289.5 18.9872V16.28Z" fill="white"/>
</g>
</g>
<g clip-path="url(#clip1_1006_100)">
<mask id="mask1_1006_100" style="mask-type:luminance" maskUnits="userSpaceOnUse" x="282" y="16" width="14" height="14">
<path d="M296 16H282V30H296V16Z" fill="white"/>
</mask>
<g mask="url(#mask1_1006_100)">
<path fill-rule="evenodd" clip-rule="evenodd" d="M289.5 16.28C289.5 16.1254 289.375 16 289.22 16H288.78C288.625 16 288.5 16.1254 288.5 16.28V18.9872C288.5 19.295 288.076 19.3775 287.96 19.0921L286.946 16.582C286.888 16.4386 286.725 16.3694 286.582 16.4273L286.174 16.5921C286.03 16.6501 285.961 16.8132 286.019 16.9566L287.1 19.6326C287.214 19.9155 286.858 20.1512 286.643 19.9355L284.602 17.8947C284.492 17.7853 284.315 17.7853 284.206 17.8947L283.895 18.2058C283.785 18.3152 283.785 18.4924 283.895 18.6018L285.727 20.4345C285.946 20.6532 285.701 21.0129 285.417 20.889L283.042 19.8514C282.901 19.7895 282.735 19.8541 282.674 19.9958L282.497 20.399C282.436 20.5408 282.5 20.7058 282.642 20.7677L285.379 21.9634C285.657 22.0849 285.57 22.5 285.267 22.5H282.28C282.125 22.5 282 22.6254 282 22.78V23.22C282 23.3746 282.125 23.5 282.28 23.5H285.266C285.57 23.5 285.657 23.9151 285.379 24.0366L282.642 25.2323C282.5 25.2942 282.436 25.4592 282.497 25.6009L282.674 26.0041C282.735 26.1459 282.901 26.2105 283.042 26.1486L285.417 25.111C285.701 24.9871 285.946 25.3468 285.727 25.5656L283.895 27.3982C283.785 27.5076 283.785 27.6848 283.895 27.7942L284.206 28.1053C284.315 28.2147 284.492 28.2147 284.602 28.1053L286.643 26.0645C286.858 25.8488 287.215 26.0845 287.1 26.3673L286.019 29.0434C285.961 29.1867 286.03 29.3499 286.174 29.4079L286.582 29.5727C286.725 29.6306 286.888 29.5614 286.946 29.4179L287.96 26.9079C288.076 26.6225 288.5 26.705 288.5 27.0127V29.72C288.5 29.8746 288.625 30 288.78 30H289.22C289.375 30 289.5 29.8746 289.5 29.72V27.0127C289.5 26.705 289.924 26.6225 290.04 26.9079L291.054 29.4179C291.112 29.5614 291.275 29.6306 291.418 29.5727L291.826 29.4079C291.97 29.3499 292.039 29.1867 291.981 29.0434L290.9 26.3673C290.785 26.0845 291.142 25.8488 291.357 26.0645L293.398 28.1053C293.508 28.2147 293.685 28.2147 293.794 28.1053L294.105 27.7942C294.215 27.6848 294.215 27.5076 294.105 27.3982L292.273 25.5656C292.054 25.3468 292.299 24.9871 292.583 25.111L294.958 26.1486C295.099 26.2105 295.265 26.1459 295.326 26.0041L295.503 25.6009C295.564 25.4592 295.5 25.2942 295.358 25.2323L292.621 24.0366C292.343 23.9151 292.43 23.5 292.734 23.5H295.72C295.875 23.5 296 23.3746 296 23.22V22.78C296 22.6254 295.875 22.5 295.72 22.5H292.734C292.43 22.5 292.343 22.0849 292.621 21.9634L295.358 20.7677C295.5 20.7058 295.564 20.5407 295.503 20.399L295.326 19.9958C295.265 19.8541 295.099 19.7895 294.958 19.8514L292.583 20.889C292.299 21.0129 292.054 20.6532 292.273 20.4345L294.105 18.6018C294.215 18.4924 294.215 18.3152 294.105 18.2058L293.794 17.8947C293.685 17.7853 293.508 17.7853 293.398 17.8947L291.357 19.9355C291.142 20.1512 290.785 19.9154 290.9 19.6326L291.981 16.9566C292.039 16.8132 291.97 16.6501 291.826 16.5921L291.418 16.4273C291.275 16.3694 291.112 16.4386 291.054 16.582L290.04 19.0921C289.924 19.3775 289.5 19.295 289.5 18.9872V16.28Z" fill="white"/>
</g>
</g>
<defs>
<clipPath id="clip0_1006_100">
<rect width="14" height="14" fill="white" transform="translate(282 16)"/>
</clipPath>
<clipPath id="clip1_1006_100">
<rect width="14" height="14" fill="white" transform="translate(282 16)"/>
</clipPath>
</defs>
</svg>
