<svg width="123" height="125" viewBox="0 0 123 125" fill="none" xmlns="http://www.w3.org/2000/svg">
<g clip-path="url(#clip0_861_587)">
<path d="M61.0257 0L58.1798 8.74927H48.9781L56.4212 14.1564L53.5826 22.913L61.0257 17.4985L68.4687 22.913L65.6228 14.1564L73.0659 8.74927H63.8642L61.0257 0Z" fill="#8598B1"/>
<path d="M37.8574 7.56738L35.9747 13.354H29.8962L34.8145 16.9223L32.9318 22.7089L37.8574 19.1333L42.7756 22.7089L40.893 16.9223L45.8112 13.354H39.7327L37.8574 7.56738Z" fill="#8598B1"/>
<path d="M23.3215 22.7451L21.9716 26.8972H17.6079L21.1397 29.4585L19.7897 33.6106L23.3215 31.042L26.846 33.6106L25.4961 29.4585L29.0279 26.8972H24.6642L23.3215 22.7451Z" fill="#8598B1"/>
<path d="M100.766 26.8972L99.4158 22.7451L98.0731 26.8972H93.7094L97.2412 29.4585L95.8913 33.6106L99.4158 31.042L102.948 33.6106L101.598 29.4585L105.129 26.8972H100.766Z" fill="#8598B1"/>
<path d="M84.8726 7.56738L82.99 13.354H76.9115L81.8297 16.9223L79.9544 22.7089L84.8726 19.1333L89.7909 22.7089L87.9082 16.9223L92.8265 13.354H86.748L84.8726 7.56738Z" fill="#8598B1"/>
<path d="M10.5516 74.2556C10.5516 74.2556 18.5711 69.0965 17.2504 61.0332C17.2504 61.0405 8.75654 65.0977 10.5516 74.2556Z" fill="#8598B1"/>
<path d="M33.4426 101.284C33.4426 101.284 33.8221 110.69 42.9508 112.653C42.9508 112.653 41.3746 103.247 33.4426 101.284Z" fill="#8598B1"/>
<path d="M80.0493 112.653C89.1779 110.697 89.5574 101.284 89.5574 101.284C81.6254 103.247 80.0493 112.653 80.0493 112.653Z" fill="#8598B1"/>
<path d="M115.688 54.0498C122.154 47.3145 117.192 39.3096 117.192 39.3096C111.726 45.3808 115.688 54.0498 115.688 54.0498Z" fill="#8598B1"/>
<path d="M29.8671 106.582C29.8671 106.582 33.1872 97.6426 27.2985 91.9873C27.2985 91.9873 22.9348 100.328 29.8671 106.582Z" fill="#8598B1"/>
<path d="M66.8561 118.243C76.1672 117.55 77.8236 108.275 77.8236 108.275C69.7092 109.136 66.8561 118.243 66.8561 118.243Z" fill="#8598B1"/>
<path d="M21.4316 99.7151C21.4316 99.7151 26.6271 91.7174 22.1175 84.9092C22.1175 84.9165 16.0318 92.0969 21.4316 99.7151Z" fill="#8598B1"/>
<path d="M11.2156 49.2196C11.2156 49.2196 20.0524 45.6294 20.2422 37.4639C20.2422 37.4639 11.1427 39.8792 11.2156 49.2196Z" fill="#8598B1"/>
<path d="M10.7121 61.1134C10.7121 61.1134 19.2133 56.7935 18.7098 48.6426C18.7098 48.6426 9.85108 51.8168 10.7121 61.1134Z" fill="#8598B1"/>
<path d="M15.6961 86.8942C15.6961 86.8942 21.5046 79.327 17.535 72.1904C17.535 72.1904 10.9092 78.8819 15.6961 86.8942Z" fill="#8598B1"/>
<path d="M56.1366 118.243C56.1366 118.243 53.2907 109.144 45.1691 108.275C45.1691 108.275 46.8255 117.543 56.1366 118.243Z" fill="#8598B1"/>
<path d="M78.4293 117.002C84.8216 123.81 93.0746 119.271 93.0746 119.271C87.3026 113.499 78.4293 117.002 78.4293 117.002Z" fill="#8598B1"/>
<path d="M90.1047 111.989C97.0223 118.264 104.881 113.083 104.881 113.083C98.6642 107.786 90.1047 111.989 90.1047 111.989Z" fill="#8598B1"/>
<path d="M66.0607 121.249C72.4529 128.057 80.706 123.519 80.706 123.519C74.9267 117.747 66.0607 121.249 66.0607 121.249Z" fill="#8598B1"/>
<path d="M106.042 96.5338C114.871 99.5767 120.059 91.7177 120.059 91.7177C112.259 89.2951 106.042 96.5338 106.042 96.5338Z" fill="#8598B1"/>
<path d="M110.048 87.8505C119.271 89.2954 123 80.6483 123 80.6483C114.893 79.634 110.048 87.8505 110.048 87.8505Z" fill="#8598B1"/>
<path d="M97.5696 105.94C105.947 110.063 112.076 102.919 112.076 102.919C104.64 99.5407 97.5696 105.94 97.5696 105.94Z" fill="#8598B1"/>
<path d="M16.9584 96.5335C16.9584 96.5335 10.7486 89.302 2.94801 91.7174C2.94071 91.7174 8.12895 99.5764 16.9584 96.5335Z" fill="#8598B1"/>
<path d="M61.5292 115.631C61.5219 115.631 61.5073 115.631 61.5 115.631C61.4927 115.631 61.4781 115.631 61.4708 115.631C59.9311 115.631 58.6833 116.879 58.6833 118.418C58.6833 119.958 59.9311 121.206 61.4708 121.206C61.4781 121.206 61.4927 121.206 61.5 121.206C61.5073 121.206 61.5219 121.206 61.5292 121.206C63.0689 121.206 64.3167 119.958 64.3167 118.418C64.3167 116.879 63.0689 115.631 61.5292 115.631Z" fill="#8598B1"/>
<path d="M25.4304 105.94C25.4304 105.94 18.3595 99.5407 10.9238 102.919C10.9238 102.919 17.0533 110.063 25.4304 105.94Z" fill="#8598B1"/>
<path d="M121.475 54.1084C114.674 58.6326 116.36 68.0167 116.36 68.0167C124.299 63.0912 121.475 54.1084 121.475 54.1084Z" fill="#8598B1"/>
<path d="M122.701 68.2354C114.915 70.7018 113.944 80.1881 113.944 80.1881C122.927 77.6487 122.701 68.2354 122.701 68.2354Z" fill="#8598B1"/>
<path d="M42.3013 123.519C42.3013 123.519 50.5544 128.057 56.9466 121.249C56.9393 121.249 48.0733 117.747 42.3013 123.519Z" fill="#8598B1"/>
<path d="M18.1187 113.083C18.1187 113.083 25.985 118.264 32.8954 111.989C32.8954 111.989 24.3358 107.786 18.1187 113.083Z" fill="#8598B1"/>
<path d="M44.5634 117.002C44.5634 117.002 35.6975 113.492 29.9182 119.272C29.9254 119.272 38.1712 123.81 44.5634 117.002Z" fill="#8598B1"/>
<path d="M1.51781 54.1084C1.51781 54.1084 -1.30617 63.0912 6.63308 68.0167C6.63308 68.0167 8.31871 58.6326 1.51781 54.1084Z" fill="#8598B1"/>
<path d="M112.448 74.2556C114.251 65.0904 105.75 61.0332 105.75 61.0332C104.422 69.0965 112.448 74.2556 112.448 74.2556Z" fill="#8598B1"/>
<path d="M9.05569 80.1881C9.05569 80.1881 8.08518 70.7018 0.299165 68.2354C0.299165 68.2354 0.0729543 77.6487 9.05569 80.1881Z" fill="#8598B1"/>
<path d="M5.80123 39.3096C5.80123 39.3096 0.839198 47.3145 7.30443 54.0498C7.31173 54.0498 11.2741 45.3808 5.80123 39.3096Z" fill="#8598B1"/>
<path d="M12.9524 87.8505C12.9524 87.8505 8.10708 79.634 0 80.6483C0 80.641 3.72152 89.2954 12.9524 87.8505Z" fill="#8598B1"/>
<path d="M93.1257 106.582C100.065 100.328 95.6943 91.9873 95.6943 91.9873C89.8055 97.6426 93.1257 106.582 93.1257 106.582Z" fill="#8598B1"/>
<path d="M107.304 86.8942C112.091 78.8746 105.465 72.1904 105.465 72.1904C101.495 79.3343 107.304 86.8942 107.304 86.8942Z" fill="#8598B1"/>
<path d="M101.568 99.7151C106.968 92.0969 100.882 84.9092 100.882 84.9092C96.3656 91.7247 101.568 99.7151 101.568 99.7151Z" fill="#8598B1"/>
<path d="M104.283 48.6426C103.779 56.7935 112.281 61.1134 112.281 61.1134C113.149 51.8168 104.283 48.6426 104.283 48.6426Z" fill="#8598B1"/>
<path d="M102.751 37.4639C102.94 45.6294 111.777 49.2196 111.777 49.2196C111.857 39.8792 102.751 37.4639 102.751 37.4639Z" fill="#8598B1"/>
</g>
<defs>
<clipPath id="clip0_861_587">
<rect width="123" height="125" fill="white"/>
</clipPath>
</defs>
</svg>
