<svg width="16" height="16" viewBox="0 0 16 16" fill="none" xmlns="http://www.w3.org/2000/svg">
<path d="M8 14C3 14 0.199996 8.53333 0.0666626 8.26667C-4.06802e-06 8.06667 -4.06802e-06 7.86667 0.0666626 7.66667C0.199996 7.46667 3 2 8 2C13 2 15.8 7.46667 15.9333 7.73333C16 7.93333 16 8.13333 15.9333 8.33333C15.8 8.53333 13 14 8 14ZM1.4 8C2 9.06667 4.4 12.6667 8 12.6667C11.6 12.6667 13.9333 9.06667 14.6 8C14 6.93333 11.6 3.33333 8 3.33333C4.4 3.33333 2.06666 6.93333 1.4 8Z" fill="white"/>
<path d="M7.99998 10.6663C6.53331 10.6663 5.33331 9.46634 5.33331 7.99967C5.33331 6.53301 6.53331 5.33301 7.99998 5.33301C9.46665 5.33301 10.6666 6.53301 10.6666 7.99967C10.6666 9.46634 9.46665 10.6663 7.99998 10.6663ZM7.99998 6.66634C7.26665 6.66634 6.66665 7.26634 6.66665 7.99967C6.66665 8.73301 7.26665 9.33301 7.99998 9.33301C8.73331 9.33301 9.33331 8.73301 9.33331 7.99967C9.33331 7.26634 8.73331 6.66634 7.99998 6.66634Z" fill="white"/>
</svg>
