<svg width="25" height="24" viewBox="0 0 25 24" fill="none" xmlns="http://www.w3.org/2000/svg">
<g clip-path="url(#clip0_1025_329)">
<path d="M16.3878 0.0749311C16.0041 0.173368 15.4973 0.435868 15.2179 0.679619C14.9621 0.899931 11.443 5.02962 11.2725 5.30618C11.1304 5.54056 11.1399 5.99993 11.2962 6.26243C11.5472 6.68899 12.1582 6.84837 12.594 6.60462C12.7313 6.52962 13.3091 5.87806 14.6353 4.30774C16.6719 1.89837 16.653 1.91712 17.1645 1.91712C17.5813 1.91712 17.9507 2.16087 18.1118 2.54056C18.2112 2.77493 18.2065 3.17337 18.1023 3.37493C18.0597 3.46399 17.1929 4.47181 16.1841 5.61556C15.1753 6.75462 14.318 7.75306 14.2801 7.83274C14.1617 8.05306 14.1806 8.45149 14.3132 8.70931C14.5595 9.18274 15.1989 9.35149 15.6584 9.06087C15.791 8.97649 16.5441 8.15618 17.766 6.77337C19.779 4.48587 19.8926 4.33118 20.0584 3.67962C20.1437 3.35149 20.1531 2.57337 20.0774 2.25931C20.0489 2.13743 19.9305 1.84212 19.8169 1.60774C19.6511 1.26556 19.5374 1.10618 19.2769 0.848369C18.9075 0.487431 18.396 0.196806 17.9223 0.0749311C17.5576 -0.0188189 16.743 -0.0188189 16.3878 0.0749311Z" fill="white"/>
<path d="M4.6417 1.38283C3.52393 1.58439 2.49141 2.12814 1.65782 2.95314C0.805277 3.79689 0.270072 4.80939 0.0711463 5.94845C-0.0377892 6.54845 -0.0330529 15.0328 0.0711463 15.6375C0.478471 17.9344 2.34932 19.7813 4.67486 20.1797C5.04429 20.2453 5.97261 20.25 12.3193 20.236L19.5375 20.2266L19.9258 20.1235C22.0146 19.5656 23.5112 18.1031 24.0985 16.0313L24.2264 15.586L24.2406 10.9922C24.2548 6.22033 24.2548 6.10783 24.0559 5.36252C23.947 4.94064 23.6865 4.34064 23.4781 4.0172C23.085 3.40783 22.1945 3.39845 21.8156 3.99845C21.6072 4.33127 21.6214 4.65001 21.8677 5.13283C21.9767 5.33908 22.1093 5.65314 22.1709 5.83595L22.2845 6.16408L22.2987 10.636C22.3129 15.0047 22.3082 15.1172 22.2135 15.4875C22.0193 16.2563 21.5504 17.0063 20.9678 17.4844C20.5937 17.7891 19.8358 18.1547 19.348 18.2672C18.9928 18.3469 18.576 18.3516 12.1251 18.3516C4.35279 18.3516 4.94009 18.3797 4.04966 17.9531C3.23501 17.5594 2.71875 17.0485 2.3209 16.2422C1.92779 15.436 1.942 15.675 1.942 10.7672C1.942 5.85002 1.92305 6.10783 2.34458 5.27345C2.79453 4.37345 3.59497 3.70314 4.61802 3.37033C4.94483 3.26251 4.98745 3.26251 7.67295 3.23439C10.3727 3.21095 10.3963 3.21095 10.5953 3.10783C10.9552 2.91564 11.1068 2.61095 11.0736 2.15627C11.05 1.8047 10.8842 1.54689 10.6 1.41095C10.3916 1.31252 10.349 1.31252 7.6919 1.3172C5.63633 1.32189 4.91167 1.33595 4.6417 1.38283Z" fill="white"/>
<path d="M8.6391 7.65941C7.94286 7.81879 7.33661 8.16098 6.77299 8.71879C6.11464 9.36566 5.69784 10.1016 5.26684 11.3672C4.96371 12.2672 4.7932 12.6844 4.49955 13.261C4.22484 13.8047 4.14433 14.1797 4.21537 14.5969C4.34799 15.4125 5.03476 16.1579 5.8873 16.4157C6.17147 16.5 6.29936 16.5094 6.90561 16.4907C8.76225 16.4297 10.941 15.5344 12.0777 14.3625C12.9728 13.4391 13.3612 12.5485 13.3612 11.4141C13.3612 10.7391 13.257 10.2891 12.9776 9.7266C12.4803 8.74223 11.6846 8.06254 10.6331 7.73441C10.2068 7.59848 9.09379 7.56098 8.6391 7.65941ZM10.2921 9.66566C10.671 9.8391 11.0499 10.2141 11.2393 10.5891C11.3814 10.8797 11.3909 10.9266 11.3909 11.4141C11.3909 11.9157 11.3862 11.9391 11.2157 12.2813C10.9031 12.9141 10.3773 13.3875 9.52006 13.8235C8.41649 14.386 6.69721 14.7563 6.32304 14.5125C6.25199 14.4657 6.19042 14.4047 6.17621 14.3672C6.162 14.3344 6.23778 14.1375 6.34198 13.9266C6.58827 13.4485 6.73983 13.0688 7.08085 12.0938C7.22768 11.6672 7.42187 11.1704 7.51186 10.9875C7.83393 10.3125 8.2744 9.86254 8.8475 9.62348C9.07958 9.52973 9.17904 9.51566 9.56742 9.52973C9.93212 9.5391 10.0695 9.56723 10.2921 9.66566Z" fill="white"/>
<path d="M14.5407 14.6203C14.0197 14.7281 13.7592 15.0703 13.7924 15.6094C13.8113 16.0031 13.9629 16.2563 14.266 16.4016C14.4697 16.5 14.5265 16.5 16.8852 16.5C19.2439 16.5 19.3007 16.5 19.5044 16.4016C19.7886 16.2656 19.9543 16.0078 19.978 15.6563C20.0112 15.2016 19.8596 14.8969 19.4996 14.7047C19.3007 14.6016 19.2818 14.6016 17.0036 14.5922C15.739 14.5922 14.6307 14.6016 14.5407 14.6203Z" fill="white"/>
<path d="M7.12828 22.2141C6.90093 22.3172 6.80147 22.4203 6.70201 22.6547C6.55518 23.0016 6.65465 23.5594 6.8962 23.775C7.16143 24.0047 6.99566 24 12.1535 24H16.9704L17.174 23.8828C17.4724 23.7094 17.6192 23.4375 17.6192 23.0625C17.6192 22.6875 17.4724 22.4156 17.174 22.2422L16.9704 22.125H12.144C7.56402 22.125 7.30826 22.1297 7.12828 22.2141Z" fill="white"/>
</g>
<defs>
<clipPath id="clip0_1025_329">
<rect width="24.25" height="24" fill="white"/>
</clipPath>
</defs>
</svg>
