<svg width="24" height="24" viewBox="0 0 24 24" fill="none" xmlns="http://www.w3.org/2000/svg">
<g clip-path="url(#clip0_1025_351)">
<path d="M15.2484 0.121875C14.9578 0.295312 14.8125 0.567187 14.8125 0.937499C14.8125 1.3125 14.9578 1.58437 15.2531 1.75781C15.45 1.87031 15.4781 1.875 16.3172 1.875H17.1797L15.3281 3.73125C14.1047 4.95937 13.4109 5.61562 13.2891 5.67656C12.8953 5.85937 12.6188 5.76562 12.0422 5.25469C11.1141 4.43906 9.9375 4.28437 8.8125 4.83281C8.41406 5.025 8.40469 5.03906 5.18438 8.24531C3.4125 10.0125 1.89844 11.5547 1.82344 11.6672C1.71094 11.8453 1.6875 11.925 1.6875 12.1828C1.6875 12.7594 2.04844 13.125 2.62031 13.125C2.79375 13.125 2.97188 13.0969 3.06094 13.05C3.14531 13.0078 4.65469 11.5312 6.42188 9.76875C8.65781 7.5375 9.68438 6.54375 9.80625 6.49219C10.1859 6.3375 10.4531 6.42656 10.9359 6.86719C11.8875 7.73906 13.1016 7.91719 14.25 7.35469C14.6391 7.1625 14.6953 7.11562 16.6078 5.2125L18.5625 3.2625V4.125C18.5625 4.95937 18.5672 4.9875 18.6797 5.18437C18.8531 5.47969 19.125 5.625 19.5 5.625C19.875 5.625 20.1469 5.47969 20.3203 5.18437L20.4375 4.98281V3.68437C20.4375 2.22187 20.4141 2.04375 20.1188 1.47656C19.8844 1.02656 19.3922 0.534374 18.9469 0.309375C18.375 0.0187492 18.2297 -9.53674e-07 16.7578 -9.53674e-07H15.4453L15.2484 0.121875Z" fill="white"/>
<path d="M18.7265 7.40155C17.7656 7.6828 17.0062 8.45624 16.7578 9.4078C16.6499 9.8203 16.6546 17.925 16.7624 18.3422C17.0109 19.3078 17.8171 20.1141 18.7781 20.3625C19.1484 20.4562 19.8468 20.4609 20.2171 20.3625C21.1921 20.1094 21.9843 19.3172 22.2374 18.3422C22.3031 18.0937 22.3124 17.5219 22.3124 13.875C22.3124 10.2281 22.3031 9.65624 22.2374 9.4078C21.9843 8.4328 21.1921 7.64062 20.2171 7.38749C19.8328 7.28905 19.0921 7.29374 18.7265 7.40155ZM19.9124 9.32343C20.1093 9.42655 20.2031 9.5203 20.3249 9.74999C20.4093 9.90468 20.414 10.0969 20.414 13.875C20.414 17.6531 20.4093 17.8453 20.3249 18C20.1374 18.3516 19.8749 18.5156 19.4999 18.5156C19.1249 18.5156 18.8624 18.3516 18.6749 18C18.5906 17.8453 18.5859 17.6531 18.5859 13.875C18.5859 9.91405 18.5859 9.91405 18.6843 9.72655C18.7968 9.51562 18.8953 9.42187 19.1015 9.31405C19.2984 9.21093 19.6968 9.21562 19.9124 9.32343Z" fill="white"/>
<path d="M11.2265 11.1516C10.2656 11.4328 9.50619 12.2062 9.25775 13.1578C9.14994 13.5656 9.15463 17.9297 9.26244 18.3422C9.51088 19.3078 10.3171 20.1141 11.2781 20.3625C11.6484 20.4562 12.3468 20.4609 12.7171 20.3625C13.6921 20.1094 14.4843 19.3172 14.7374 18.3422C14.8031 18.1031 14.8124 17.6953 14.8124 15.75C14.8124 13.8047 14.8031 13.3969 14.7374 13.1578C14.4843 12.1828 13.6921 11.3906 12.7171 11.1375C12.3328 11.0391 11.5921 11.0437 11.2265 11.1516ZM12.4124 13.0734C12.6093 13.1766 12.7031 13.2703 12.8249 13.5C12.9093 13.6547 12.914 13.8 12.914 15.75C12.914 17.7937 12.914 17.8406 12.8156 18.0234C12.6374 18.3562 12.3703 18.5156 11.9999 18.5156C11.6296 18.5156 11.3624 18.3562 11.1843 18.0234C11.0859 17.8406 11.0859 17.7937 11.0859 15.75C11.0859 13.7062 11.0859 13.6594 11.1843 13.4766C11.2968 13.2656 11.3953 13.1719 11.6015 13.0641C11.7984 12.9609 12.1968 12.9656 12.4124 13.0734Z" fill="white"/>
<path d="M3.72646 14.9016C2.76552 15.1828 2.00615 15.9562 1.75771 16.9078C1.66396 17.2594 1.66865 17.9812 1.7624 18.3422C2.01083 19.3078 2.81708 20.1141 3.77802 20.3625C4.14833 20.4562 4.84677 20.4609 5.21708 20.3625C6.19208 20.1094 6.98427 19.3172 7.2374 18.3422C7.33583 17.9766 7.33583 17.2734 7.2374 16.9078C6.98427 15.9328 6.19208 15.1406 5.21708 14.8875C4.83271 14.7891 4.09208 14.7937 3.72646 14.9016ZM4.9124 16.8234C5.22646 16.9828 5.39052 17.2594 5.39052 17.625C5.39052 18.1453 5.02021 18.5156 4.4999 18.5156C3.97958 18.5156 3.60927 18.1453 3.60927 17.625C3.60927 17.1047 3.97021 16.7391 4.49052 16.7344C4.64521 16.7344 4.80458 16.7672 4.9124 16.8234Z" fill="white"/>
<path d="M0.435938 22.2469C0.145313 22.4203 0 22.6922 0 23.0625C0 23.4375 0.145313 23.7094 0.440625 23.8828L0.642188 24H12H23.3578L23.5594 23.8828C23.8547 23.7094 24 23.4375 24 23.0625C24 22.6875 23.8547 22.4156 23.5594 22.2422L23.3578 22.125H11.9953H0.632812L0.435938 22.2469Z" fill="white"/>
</g>
<defs>
<clipPath id="clip0_1025_351">
<rect width="24" height="24" fill="white"/>
</clipPath>
</defs>
</svg>
