<svg width="24" height="24" viewBox="0 0 24 24" fill="none" xmlns="http://www.w3.org/2000/svg">
<g clip-path="url(#clip0_1028_503)">
<path d="M16.664 0.0889654C15.7031 0.370215 14.9437 1.14365 14.6953 2.09522C14.5874 2.50772 14.5921 10.2374 14.6999 10.6546C14.9484 11.6202 15.7546 12.4265 16.7156 12.6749C17.1421 12.7874 21.4781 12.7874 21.9046 12.6749C22.8796 12.4218 23.6718 11.6296 23.9249 10.6546C23.9906 10.4062 23.9999 9.85303 23.9999 6.3749C23.9999 1.94053 24.014 2.12803 23.6859 1.48115C23.4609 1.03115 22.9687 0.538965 22.5187 0.313966C21.8953 -9.72748e-05 21.8812 -9.72748e-05 19.2843 0.00459099C17.2031 0.00459099 16.9124 0.0139656 16.664 0.0889654ZM21.5859 1.99678C21.8015 2.11397 21.8906 2.20772 22.0124 2.4374C22.0968 2.59209 22.1015 2.77959 22.1015 6.3749C22.1015 9.97022 22.0968 10.1577 22.0124 10.3124C21.8906 10.5421 21.8015 10.6358 21.5859 10.753C21.4031 10.8515 21.3562 10.8515 19.3124 10.8515C17.2687 10.8515 17.2218 10.8515 17.039 10.753C16.8234 10.6358 16.7343 10.5421 16.6124 10.3124C16.5281 10.1577 16.5234 9.97022 16.5234 6.3749C16.5234 2.77959 16.5281 2.59209 16.6124 2.4374C16.7765 2.13272 16.964 1.9874 17.2968 1.91709C17.3859 1.89834 18.3468 1.88428 19.4296 1.88897C21.3468 1.89834 21.4031 1.90303 21.5859 1.99678Z" fill="white"/>
<path d="M18.8109 7.24687C18.5203 7.42031 18.375 7.69219 18.375 8.0625C18.375 8.63906 18.7359 9 19.3125 9C19.8891 9 20.25 8.63906 20.25 8.0625C20.25 7.48594 19.8891 7.125 19.3078 7.125C19.0688 7.125 18.9656 7.14844 18.8109 7.24687Z" fill="white"/>
<path d="M3.91406 5.33896C2.95312 5.62021 2.19375 6.39364 1.94531 7.34521C1.84688 7.72489 1.8375 17.7515 1.94063 18.1311L2.00156 18.3749H1.32188C0.679688 18.3749 0.628125 18.3796 0.440625 18.4921C0.31875 18.5624 0.1875 18.6936 0.117188 18.8155L0 19.0171V20.3155C0 21.7733 0.0234375 21.9421 0.314063 22.5186C0.534375 22.9546 1.02656 23.4515 1.47656 23.6811C2.14219 24.0233 1.30781 23.9999 12 23.9999C22.6781 23.9999 21.8438 24.0233 22.5188 23.6858C22.9688 23.4608 23.4609 22.9686 23.6859 22.5186C23.9766 21.9421 24 21.7733 24 20.3155V19.0171L23.8828 18.8155C23.8125 18.6936 23.6813 18.5624 23.5594 18.4921C23.3719 18.3796 23.3203 18.3749 22.6781 18.3749H21.9984L22.0594 18.1311C22.1063 17.953 22.125 17.5265 22.125 16.5749V15.2671L22.0078 15.0655C21.6656 14.4843 20.7375 14.4655 20.3813 15.0327C20.2781 15.2061 20.2734 15.2577 20.25 16.4296C20.2266 17.5546 20.2172 17.6624 20.1234 17.8358C20.0109 18.0515 19.9219 18.1405 19.6875 18.2624C19.5281 18.3468 19.2609 18.3515 12 18.3515C4.73906 18.3515 4.47188 18.3468 4.3125 18.2624C4.08281 18.1405 3.98906 18.0515 3.87188 17.8358L3.77344 17.6483V12.7499C3.77344 8.05302 3.77813 7.84677 3.8625 7.6874C3.98438 7.45771 4.07344 7.36396 4.28906 7.24677C4.47656 7.14833 4.5 7.14833 8.41406 7.1249L12.3516 7.10146L12.5297 6.99364C12.7969 6.82489 12.9375 6.54833 12.9375 6.1874C12.9375 5.8124 12.7922 5.54052 12.4969 5.36708L12.2953 5.2499L8.24531 5.25458C4.53281 5.25458 4.17188 5.26396 3.91406 5.33896ZM22.1156 20.8218C22.0875 21.5624 21.9891 21.7874 21.5859 22.003L21.3984 22.1015H12H2.60156L2.41406 22.003C2.01094 21.7874 1.9125 21.5624 1.88438 20.8218L1.86094 20.2499H12H22.1391L22.1156 20.8218Z" fill="white"/>
<path d="M7.74844 9.12187C7.45781 9.29531 7.3125 9.56719 7.3125 9.9375C7.3125 10.3125 7.45781 10.5844 7.75313 10.7578C7.95 10.8703 7.97813 10.875 8.81719 10.875H9.67969L7.63125 12.9234C6.50625 14.0531 5.55469 15.0422 5.5125 15.1266C5.46563 15.2156 5.4375 15.3937 5.4375 15.5672C5.4375 16.1344 5.80313 16.5 6.37031 16.5C6.54375 16.5 6.72188 16.4719 6.81094 16.425C6.89531 16.3828 7.88438 15.4312 9.01406 14.3062L11.0625 12.2578V13.1203C11.0625 13.9594 11.0672 13.9875 11.1797 14.1844C11.3531 14.4797 11.625 14.625 12 14.625C12.375 14.625 12.6469 14.4797 12.8203 14.1844L12.9375 13.9828V12.6844C12.9375 11.2266 12.9141 11.0578 12.6234 10.4812C12.3984 10.0312 11.9063 9.53906 11.4563 9.31406C10.8797 9.02344 10.7109 9 9.25313 9H7.94531L7.74844 9.12187Z" fill="white"/>
</g>
<defs>
<clipPath id="clip0_1028_503">
<rect width="24" height="24" fill="white"/>
</clipPath>
</defs>
</svg>
