<svg width="27" height="27" viewBox="0 0 27 27" fill="none" xmlns="http://www.w3.org/2000/svg">
<g clip-path="url(#clip0_1011_1164)">
<path d="M0.49043 0.137115C0.363867 0.210943 0.205664 0.369146 0.131836 0.49571L0 0.722467L0.0105469 11.7123L0.0263672 22.7022L0.147656 23.124C0.622266 24.7852 1.9459 26.1932 3.5332 26.7363C4.34531 27.0106 3.83906 27 15.467 27H26.2775L26.5043 26.8682C27.1582 26.4832 27.1793 25.4391 26.5412 25.0383L26.3408 24.917L15.5566 24.8906L4.77246 24.8643L4.35586 24.7166C3.82324 24.5268 3.54375 24.3633 3.15879 24.0047C2.75801 23.6356 2.45742 23.1715 2.27813 22.6494L2.13574 22.2275L2.10938 11.4434L2.08301 0.659185L1.96172 0.458796C1.67695 0.00527954 0.970313 -0.152924 0.49043 0.137115Z" fill="#8699B2"/>
<path d="M22.9658 0.10021C21.8848 0.416616 21.0305 1.28673 20.751 2.35724C20.6824 2.62091 20.6719 3.94455 20.6719 12.361V22.0588L20.8037 22.2856C20.8828 22.4227 21.0305 22.5703 21.1676 22.6494L21.3943 22.7813H23.8359H26.2775L26.5043 22.6494C26.6414 22.5703 26.7891 22.4227 26.8682 22.2856L27 22.0588V12.3715C27 3.73361 26.9895 2.64201 26.9156 2.35724C26.6309 1.26037 25.7396 0.369156 24.6428 0.0843906C24.2104 -0.0263519 23.3771 -0.0210781 22.9658 0.10021ZM24.3 2.26232C24.5215 2.37834 24.627 2.4838 24.7641 2.7422C24.859 2.9215 24.8643 3.24845 24.8801 11.7967L24.8906 20.6719H23.8359H22.7812L22.7918 11.7967L22.8076 2.92677L22.9184 2.71584C23.0449 2.47853 23.1557 2.37306 23.3877 2.25177C23.6092 2.13576 24.0574 2.14103 24.3 2.26232Z" fill="#8699B2"/>
<path d="M4.49824 2.2465C4.17129 2.44162 4.00781 2.74748 4.00781 3.16408C4.00781 3.58595 4.17129 3.89181 4.50352 4.08693L4.73027 4.21877H7.17188H9.61348L9.84023 4.08693C10.1725 3.89181 10.3359 3.58595 10.3359 3.16408C10.3359 2.7422 10.1725 2.43634 9.84023 2.24123L9.61348 2.10939H7.1666H4.71973L4.49824 2.2465Z" fill="#8699B2"/>
<path d="M4.49824 6.46525C4.17129 6.66037 4.00781 6.96623 4.00781 7.38283C4.00781 7.8047 4.17129 8.11056 4.50352 8.30568L4.73027 8.43752H7.17188H9.61348L9.84023 8.30568C10.1725 8.11056 10.3359 7.8047 10.3359 7.38283C10.3359 6.96095 10.1725 6.65509 9.84023 6.45998L9.61348 6.32814H7.1666H4.71973L4.49824 6.46525Z" fill="#8699B2"/>
<path d="M14.7393 6.42834C13.6582 6.74474 12.8039 7.61486 12.5244 8.68537C12.4559 8.94377 12.4453 9.9088 12.4453 15.525V22.0588L12.5771 22.2856C12.6562 22.4227 12.8039 22.5703 12.941 22.6494L13.1678 22.7813H15.6094H18.051L18.2777 22.6494C18.4148 22.5703 18.5625 22.4227 18.6416 22.2856L18.7734 22.0588V15.5356C18.7734 9.7717 18.7629 8.97013 18.6891 8.68537C18.4043 7.58849 17.5131 6.69728 16.4162 6.41252C15.9838 6.30177 15.1506 6.30705 14.7393 6.42834ZM16.0734 8.59045C16.2949 8.70646 16.4004 8.81193 16.5375 9.07033C16.6324 9.24435 16.6377 9.50275 16.6535 14.9608L16.6693 20.6719H15.6094H14.5494L14.5652 14.9608L14.5811 9.2549L14.6918 9.04396C14.8184 8.80666 14.9291 8.70119 15.1611 8.5799C15.3826 8.46388 15.8309 8.46916 16.0734 8.59045Z" fill="#8699B2"/>
<path d="M6.30176 12.7565C5.2207 13.0729 4.36641 13.943 4.08691 15.0135C4.01836 15.2666 4.00781 15.8731 4.00781 18.6891V22.0588L4.13965 22.2856C4.21875 22.4227 4.36641 22.5703 4.50352 22.6494L4.73027 22.7813H7.17188H9.61348L9.84023 22.6494C9.97734 22.5703 10.125 22.4227 10.2041 22.2856L10.3359 22.0588V18.6996C10.3359 15.8151 10.3254 15.2877 10.2516 15.0135C9.9668 13.9166 9.07559 13.0254 7.97871 12.7406C7.54629 12.6299 6.71309 12.6352 6.30176 12.7565ZM7.63594 14.9186C7.85742 15.0346 7.96289 15.1401 8.1 15.3985C8.19492 15.5725 8.2002 15.7623 8.21602 18.1248L8.23184 20.6719H7.17188H6.11191L6.12773 18.1248C6.14355 15.641 6.14883 15.5777 6.2543 15.3721C6.38086 15.1348 6.4916 15.0293 6.72363 14.908C6.94512 14.792 7.39336 14.7973 7.63594 14.9186Z" fill="#8699B2"/>
</g>
<defs>
<clipPath id="clip0_1011_1164">
<rect width="27" height="27" fill="white"/>
</clipPath>
</defs>
</svg>
