<svg width="30" height="29" viewBox="0 0 30 29" fill="none" xmlns="http://www.w3.org/2000/svg">
<g clip-path="url(#clip0_1011_1158)">
<path d="M2.54877 0.107626C1.35931 0.436142 0.398374 1.3877 0.093687 2.53184C0.0116557 2.8377 -6.30109e-05 4.12344 -6.30109e-05 14.5C-6.30109e-05 27.4197 -0.0293599 26.4115 0.398374 27.2158C0.679624 27.7426 1.30072 28.343 1.84564 28.6148C2.66595 29.0283 2.00384 29 11.7187 29C21.4218 29 20.7538 29.0283 21.5859 28.6205C22.1484 28.343 22.7636 27.7539 23.0507 27.1988C23.3847 26.5531 23.455 26.2076 23.4609 25.2051C23.4667 24.3781 23.4609 24.3158 23.3261 24.0893C23.2441 23.9533 23.08 23.7777 22.9511 23.6928C22.746 23.5512 22.6581 23.5342 22.2656 23.5342C21.7558 23.5342 21.5214 23.6475 21.2636 24.0043C21.1406 24.1856 21.123 24.2818 21.0878 25.0295C21.041 26.0887 20.9413 26.3152 20.3906 26.5984C20.1913 26.7004 19.8808 26.7061 11.7187 26.7061C3.55658 26.7061 3.24603 26.7004 3.04681 26.5984C2.7597 26.4512 2.64252 26.3379 2.51361 26.1C2.40814 25.8961 2.40228 25.5619 2.40228 14.5C2.40228 4.11212 2.40814 3.09259 2.49603 2.92833C2.6308 2.66778 2.74798 2.5545 3.01752 2.4129L3.25189 2.29395L9.87298 2.27696C14.5781 2.26563 16.582 2.28263 16.8163 2.32794C17.1386 2.39024 17.1386 2.39024 19.0253 4.20841C20.6074 5.73204 20.9296 6.06622 21.0058 6.27579C21.1288 6.63262 21.3398 6.87618 21.6386 7.01778C22.1777 7.27266 22.8281 7.1084 23.1738 6.63262C23.332 6.41739 23.3495 6.34942 23.3437 5.98692C23.3437 5.51114 23.1855 5.12598 22.7695 4.56524C22.6288 4.37833 21.6738 3.41544 20.6425 2.43555C18.7324 0.606064 18.4921 0.413485 17.7773 0.152939L17.4316 0.0283279L10.166 0.0170002C3.42181 0.00567245 2.87689 0.0113373 2.54877 0.107626Z" fill="#8699B2"/>
<path d="M5.23242 6.94414C4.86914 7.15371 4.6875 7.48223 4.6875 7.92969C4.6875 8.38281 4.86914 8.71133 5.23828 8.9209L5.49023 9.0625H9.375H13.2598L13.5117 8.9209C14.2676 8.49043 14.2676 7.36895 13.5117 6.93848L13.2598 6.79688H9.36914H5.47852L5.23242 6.94414Z" fill="#8699B2"/>
<path d="M25.9453 7.58984C25.4648 7.66914 25.0605 7.80508 24.668 8.02598C24.3574 8.1959 23.4258 9.06816 19.5059 12.8574C14.6309 17.5643 14.2852 17.9268 13.7109 18.8953C13.1953 19.7676 12.791 20.8494 12.6445 21.7613L12.5742 22.2031H12.0703H11.5664L11.3672 21.7896C10.9746 20.9967 10.0312 20.2547 9.10547 20.0225C8.66016 19.9092 7.76367 19.9148 7.30664 20.0281C5.77734 20.4076 4.6875 21.7557 4.6875 23.2566C4.6875 23.6248 4.71094 23.7324 4.83398 23.9363C5.05078 24.2932 5.39062 24.4688 5.85938 24.4688C6.54492 24.4688 6.97852 24.0723 7.06055 23.3643C7.1543 22.6449 7.54688 22.2598 8.20312 22.2598C8.85938 22.2598 9.25781 22.6506 9.3457 23.3643C9.39844 23.8061 9.60352 24.1459 9.92578 24.3271L10.1777 24.4688H12.3516C13.5645 24.4688 14.7246 24.4404 14.9824 24.4064C16.6523 24.1855 18.2285 23.5172 19.5703 22.4523C19.7812 22.2881 22.0781 20.0961 24.6738 17.5756C28.9922 13.3842 29.4141 12.965 29.6016 12.6025C29.8887 12.0645 30 11.6113 30 10.977C30 10.3709 29.9004 9.91777 29.6484 9.43067C28.9922 8.12793 27.4219 7.35195 25.9453 7.58984ZM27.0293 10.0141C27.123 10.065 27.2871 10.2066 27.3867 10.3256C27.5391 10.5068 27.5684 10.5975 27.5859 10.9203C27.6035 11.2658 27.5918 11.3225 27.4277 11.5547C27.334 11.6963 26.8125 12.2287 26.2793 12.7441L25.3125 13.6787L24.5098 12.8971L23.7012 12.1211L24.791 11.0676C25.5703 10.3143 25.9395 9.99707 26.1094 9.93477C26.3848 9.83848 26.7832 9.87246 27.0293 10.0141ZM22.793 14.585L23.584 15.3496L20.8887 17.9494C18.0352 20.6965 17.6016 21.0646 16.6758 21.4951C16.1016 21.7613 15.1348 22.0729 15.0762 22.0105C15.0234 21.9652 15.252 21.2119 15.4746 20.6908C15.8906 19.7393 16.1602 19.4277 19.1543 16.5221C20.6836 15.0381 21.9551 13.8203 21.9727 13.8203C21.9902 13.8203 22.3594 14.1658 22.793 14.585Z" fill="#8699B2"/>
<path d="M5.23242 11.4754C4.86914 11.685 4.6875 12.0135 4.6875 12.4609C4.6875 12.9141 4.86914 13.2426 5.23828 13.4521L5.49023 13.5938H9.375H13.2598L13.5117 13.4521C14.2676 13.0217 14.2676 11.9002 13.5117 11.4697L13.2598 11.3281H9.36914H5.47852L5.23242 11.4754Z" fill="#8699B2"/>
</g>
<defs>
<clipPath id="clip0_1011_1158">
<rect width="30" height="29" fill="white"/>
</clipPath>
</defs>
</svg>
