<svg width="24" height="34" viewBox="0 0 24 34" fill="none" xmlns="http://www.w3.org/2000/svg">
<g clip-path="url(#clip0_776_615)">
<path d="M11.5876 0.126171C11.1505 0.285545 10.6999 0.584373 10.4107 0.923046C10.1552 1.22187 0.813759 15.9375 0.490946 16.5551C0.0807043 17.3387 -0.0538012 18.5207 0.168133 19.4371C0.45732 20.6391 1.31143 21.6883 2.45473 22.2195C3.34246 22.6379 3.42317 22.6445 6.67147 22.6445H9.61714L9.58352 22.7906C9.53644 23.0164 8.28554 30.5934 8.23846 30.9785C8.09051 32.0609 8.74286 33.2031 9.80545 33.7145C10.3098 33.9602 10.33 33.9668 11.0967 33.9668C11.8365 33.9668 11.897 33.9535 12.3073 33.7543C12.5494 33.6348 12.8856 33.4023 13.0605 33.2297C13.2757 33.0172 14.836 30.6 18.1044 25.4137C20.7071 21.2832 22.9063 17.7836 22.987 17.6309C23.0744 17.4848 23.2224 17.1461 23.3098 16.8805C23.9823 14.9148 23.0139 12.7102 21.0837 11.8137C20.2162 11.4086 20.1355 11.402 16.941 11.3754L14.0155 11.3422L14.7082 7.25156C15.0848 4.99375 15.4009 2.96836 15.4009 2.74922C15.4009 1.55391 14.6409 0.524609 13.4573 0.126171C12.9663 -0.0398445 12.0651 -0.0398445 11.5876 0.126171ZM12.6435 2.78906C12.6435 2.82891 12.2804 5.00703 11.8365 7.63672C11.3926 10.2664 11.0295 12.5707 11.0295 12.7633C11.0295 13.2215 11.2379 13.6398 11.5876 13.8656L11.8634 14.0449L15.6968 14.0781C19.2545 14.1113 19.5571 14.118 19.8261 14.2375C20.465 14.5098 20.8887 15.3 20.7206 15.9043C20.6264 16.243 11.1976 31.2375 11.0631 31.2641C10.9824 31.284 10.9689 31.2508 10.9958 31.1312C11.1438 30.4805 12.5763 21.5621 12.5763 21.2699C12.5763 20.8117 12.3611 20.4066 11.9912 20.1742L11.7356 20.0215L7.9022 19.9883C4.18312 19.9551 4.06207 19.9484 3.76616 19.8156C3.16088 19.5367 2.83134 19.032 2.82462 18.3879C2.82462 17.9363 2.30677 18.793 8.10396 9.63555C10.5116 5.83711 12.5157 2.7293 12.5628 2.72266C12.6032 2.72266 12.6435 2.75586 12.6435 2.78906Z" fill="#8699B2"/>
</g>
<defs>
<clipPath id="clip0_776_615">
<rect width="23.5385" height="34" fill="white"/>
</clipPath>
</defs>
</svg>
