<svg width="24" height="24" viewBox="0 0 24 24" fill="none" xmlns="http://www.w3.org/2000/svg">
<g clip-path="url(#clip0_1025_323)">
<path d="M1.85344 0.0889759C0.982318 0.370226 0.328977 1.04054 0.0741278 1.9171C-0.0370791 2.30148 -0.0370791 7.07335 0.0741278 7.45772C0.273374 8.13741 0.759904 8.75616 1.33447 9.06085C1.95074 9.38897 1.78857 9.37491 5.46766 9.37491C9.14676 9.37491 8.98458 9.38897 9.60085 9.06085C10.1754 8.75616 10.662 8.13741 10.8612 7.45772C10.9724 7.07335 10.9724 2.30148 10.8612 1.9171C10.611 1.0546 9.99008 0.403038 9.16066 0.117101L8.8085 -8.67844e-05L5.4584 0.00460052C2.3863 0.00460052 2.08512 0.0139751 1.85344 0.0889759ZM8.45171 1.92179C8.67876 1.97335 8.84557 2.09523 8.96605 2.30148C9.05408 2.45616 9.05872 2.54523 9.05872 4.68741C9.05872 6.8296 9.05408 6.91866 8.96605 7.07335C8.84557 7.2796 8.67876 7.40147 8.45171 7.45304C8.2154 7.50929 2.71993 7.50929 2.48361 7.45304C2.25656 7.40147 2.08975 7.2796 1.96928 7.07335C1.88124 6.91866 1.87661 6.8296 1.87661 4.68741C1.87661 2.54523 1.88124 2.45616 1.96928 2.30148C2.08512 2.1046 2.25656 1.96866 2.46044 1.92179C2.67822 1.87023 8.2293 1.86554 8.45171 1.92179Z" fill="white"/>
<path d="M14.4569 0.0890617C13.7897 0.304687 13.2105 0.778125 12.9139 1.35C12.5849 1.9875 12.6035 1.6125 12.6035 7.3125C12.6035 13.0125 12.5849 12.6375 12.9139 13.275C13.2151 13.8562 13.8267 14.3484 14.4986 14.55C14.721 14.6156 15.1751 14.625 18.1638 14.625C21.1525 14.625 21.6066 14.6156 21.829 14.55C22.5009 14.3484 23.1125 13.8562 23.4137 13.275C23.7427 12.6375 23.7242 13.0125 23.7242 7.3125C23.7242 1.61719 23.7427 1.9875 23.4183 1.35469C23.1218 0.782812 22.5889 0.3375 21.9495 0.117187L21.5973 -9.53674e-07L18.1545 0.00468731C14.9944 0.00468731 14.6886 0.0140619 14.4569 0.0890617ZM21.449 1.99219C21.6529 2.11406 21.7734 2.28281 21.8244 2.5125C21.88 2.75156 21.88 11.8734 21.8244 12.1125C21.7734 12.3422 21.6529 12.5109 21.449 12.6328C21.2961 12.7219 21.2081 12.7266 18.1638 12.7266C15.0917 12.7266 15.0315 12.7266 14.8739 12.6281C14.6515 12.4969 14.5125 12.2766 14.4801 11.9859C14.4662 11.85 14.4569 9.65625 14.4662 7.10156C14.4801 2.55937 14.4801 2.45625 14.5728 2.30156C14.6886 2.10469 14.86 1.97344 15.0639 1.92187C15.152 1.89844 16.5884 1.88437 18.2565 1.88906C21.1988 1.89844 21.2961 1.90312 21.449 1.99219Z" fill="white"/>
<path d="M1.85339 11.1516C1.18615 11.3672 0.60695 11.8406 0.310398 12.4125C-0.0185886 13.0453 -5.40738e-05 12.7687 -5.40738e-05 17.5312C-5.40738e-05 22.2937 -0.0185886 22.0172 0.310398 22.65C0.611584 23.2312 1.22322 23.7234 1.8951 23.925C2.11751 23.9906 2.56234 24 5.46762 24C8.3729 24 8.81773 23.9906 9.04014 23.925C9.71201 23.7234 10.3237 23.2312 10.6248 22.65C10.9538 22.0172 10.9353 22.2937 10.9353 17.5312C10.9353 12.7734 10.9538 13.0453 10.6295 12.4172C10.3329 11.8453 9.80005 11.4 9.16061 11.1797L8.80846 11.0625L5.45835 11.0672C2.38626 11.0672 2.08508 11.0766 1.85339 11.1516ZM8.66018 13.0547C8.86406 13.1766 8.98454 13.3453 9.03551 13.575C9.09111 13.8141 9.09111 21.2484 9.03551 21.4875C8.98454 21.7172 8.86406 21.8859 8.66018 22.0078C8.50727 22.0969 8.41923 22.1016 5.46762 22.1016C2.4882 22.1016 2.42796 22.1016 2.27042 22.0031C2.04801 21.8719 1.909 21.6516 1.87656 21.3609C1.86266 21.225 1.85339 19.4062 1.86266 17.3203C1.87656 13.6219 1.8812 13.5187 1.96923 13.3641C2.08508 13.1672 2.25652 13.0359 2.4604 12.9844C2.54844 12.9609 3.94316 12.9469 5.56029 12.9516C8.40997 12.9609 8.50727 12.9656 8.66018 13.0547Z" fill="white"/>
<path d="M14.4568 16.589C13.7896 16.8046 13.2104 17.278 12.9138 17.8499C12.6127 18.4312 12.6034 18.5015 12.6034 20.2499C12.6034 21.5577 12.6173 21.8718 12.6775 22.0827C12.8768 22.7624 13.3633 23.3812 13.9379 23.6858C14.5541 24.014 14.3827 23.9999 18.1637 23.9999C21.9448 23.9999 21.7733 24.014 22.3896 23.6858C22.9642 23.3812 23.4507 22.7624 23.6499 22.0827C23.7612 21.7077 23.7612 18.7921 23.6499 18.4171C23.3997 17.5546 22.7788 16.903 21.9494 16.6171L21.5973 16.4999L18.1545 16.5046C14.9943 16.5046 14.6885 16.514 14.4568 16.589ZM21.2405 18.4218C21.4675 18.4734 21.6343 18.5952 21.7548 18.8015C21.8428 18.9515 21.8475 19.0452 21.8475 20.2499C21.8475 21.4546 21.8428 21.5483 21.7548 21.6983C21.6343 21.9046 21.4675 22.0265 21.2405 22.078C21.0041 22.1343 15.3233 22.1343 15.087 22.078C14.86 22.0265 14.6932 21.9046 14.5727 21.6983C14.4846 21.5483 14.48 21.4546 14.48 20.2499C14.48 19.0452 14.4846 18.9515 14.5727 18.8015C14.6885 18.6046 14.86 18.4687 15.0638 18.4218C15.2816 18.3702 21.018 18.3655 21.2405 18.4218Z" fill="white"/>
</g>
<defs>
<clipPath id="clip0_1025_323">
<rect width="23.7241" height="24" fill="white"/>
</clipPath>
</defs>
</svg>
