<svg width="34" height="34" viewBox="0 0 34 34" fill="none" xmlns="http://www.w3.org/2000/svg">
<g clip-path="url(#clip0_776_620)">
<path d="M6.48789 0.106251C3.32695 0.677345 0.783594 3.18086 0.139453 6.35508C0 7.0125 0 7.19843 0 17C0 26.8016 0 26.9875 0.139453 27.6449C0.790234 30.8523 3.34688 33.3426 6.56758 33.9004C7.42422 34.0531 26.6023 34.0465 27.4656 33.9004C30.6465 33.3426 33.2164 30.8324 33.8605 27.6449C33.9934 26.9941 34 26.7816 34 19.8023C34 12.1258 34.0066 12.2187 33.668 11.2227C32.984 9.2039 31.1711 7.51719 29.0859 6.95937L28.5215 6.80664H19.7227H10.9238L10.3594 6.95937C8.13477 7.55703 6.26875 9.40312 5.63125 11.6543L5.47852 12.1855L5.45859 19.5898C5.44531 24.6367 5.45859 27.0738 5.50508 27.2332C5.66445 27.7645 6.1293 28.0832 6.76016 28.0898C7.31797 28.0898 7.72969 27.8707 7.96211 27.459C8.05508 27.2797 8.06836 26.5758 8.10156 20.0215L8.13477 12.7832L8.31406 12.252C8.53984 11.5945 8.91836 11.0102 9.42305 10.5453C9.90781 10.0937 10.2598 9.88789 10.9305 9.64883L11.4551 9.46289H19.7227H27.9902L28.5215 9.64219C29.8363 10.0937 30.8191 11.1363 31.191 12.491C31.3039 12.8828 31.3105 13.4074 31.3105 19.7559C31.3105 27.459 31.3305 27.0805 30.8059 28.2227C30.268 29.3781 29.4711 30.1883 28.3223 30.7461C27.0738 31.3504 27.8973 31.3105 17 31.3105C6.10273 31.3105 6.92617 31.3504 5.67773 30.7461C4.53555 30.1883 3.81172 29.4645 3.25391 28.3223C2.64961 27.0738 2.68945 27.8973 2.68945 17C2.68945 6.10273 2.64961 6.92617 3.25391 5.67773C3.81172 4.53555 4.53555 3.81172 5.67773 3.25391C6.81992 2.69609 6.90625 2.68945 10.7578 2.68945C14.3902 2.68945 14.45 2.69609 15.4129 3.06133C16.0637 3.31367 16.6547 3.69219 17.1992 4.2168C17.757 4.74805 17.9563 4.84766 18.4676 4.84766C19.2777 4.84766 19.7891 4.32969 19.7891 3.51289C19.7891 2.98828 19.6164 2.67617 19.0188 2.13164C17.8965 1.10899 16.5816 0.438282 15.0809 0.132812C14.4633 0.00664139 14.1844 0 10.7113 0.00664139C7.82266 0.0132828 6.89297 0.0332031 6.48789 0.106251Z" fill="#8598B1"/>
<path d="M18.6801 14.0051C18.2152 14.1777 17.7637 14.4965 17.518 14.8285C17.4117 14.9812 17.1395 15.466 16.9137 15.9109L16.5152 16.7145L15.5125 16.8605C14.3438 17.0266 13.8855 17.2059 13.4008 17.684C13.2281 17.8566 13.009 18.1687 12.9027 18.3812C12.7367 18.7266 12.7168 18.8262 12.7168 19.4902C12.7168 20.5262 12.843 20.7785 13.8457 21.748L14.6094 22.4785L14.4367 23.468C14.2906 24.3113 14.2773 24.5172 14.3371 24.8492C14.4898 25.7191 15.0078 26.423 15.7715 26.8016C16.1367 26.9809 16.223 26.9941 16.907 26.9941H17.6441L18.6137 26.516L19.5898 26.0379L20.566 26.516C21.4891 26.9676 21.5621 26.9941 22.0734 27.0207C22.7707 27.0473 23.209 26.9477 23.6938 26.6289C24.4375 26.1508 24.8559 25.3871 24.8559 24.5039C24.8492 24.2316 24.7895 23.6605 24.7098 23.2422L24.5703 22.4852L25.3273 21.748C26.3367 20.7785 26.4629 20.5328 26.4629 19.4902C26.4629 18.8262 26.443 18.7266 26.277 18.3812C26.1707 18.1687 25.9516 17.8566 25.7789 17.684C25.2941 17.2059 24.816 17.0133 23.6539 16.8539L22.6711 16.7145L22.2129 15.8113C21.6949 14.782 21.3695 14.4102 20.752 14.1113C20.2207 13.8523 19.2246 13.8059 18.6801 14.0051ZM20.048 17.5777C20.6988 18.8793 21.2035 19.2379 22.6645 19.4637C23.1094 19.5301 23.5012 19.5898 23.5344 19.5898C23.5742 19.5898 23.2953 19.902 22.9234 20.2738C22.1199 21.0906 21.9074 21.4824 21.8609 22.2195C21.8344 22.6246 21.9207 23.3484 22.0801 24.0855C22.1133 24.2184 22.0203 24.1918 21.2035 23.7867L20.3004 23.3418H19.5898H18.8793L17.9762 23.7867C17.1594 24.1918 17.0664 24.2184 17.0996 24.0855C17.259 23.3484 17.3453 22.6246 17.3187 22.2195C17.2723 21.4824 17.0598 21.0906 16.2563 20.2738C15.8844 19.902 15.6055 19.5898 15.6453 19.5898C15.6785 19.5898 16.0703 19.5301 16.5152 19.4637C17.9695 19.2379 18.4676 18.8793 19.1316 17.5777C19.3574 17.1527 19.5633 16.8008 19.5965 16.8008C19.6297 16.8008 19.8289 17.1527 20.048 17.5777Z" fill="#8598B1"/>
</g>
<defs>
<clipPath id="clip0_776_620">
<rect width="34" height="34" fill="white"/>
</clipPath>
</defs>
</svg>
