<svg width="30" height="30" viewBox="0 0 30 30" fill="none" xmlns="http://www.w3.org/2000/svg">
<g clip-path="url(#clip0_1011_1151)">
<path d="M19.875 0.111328C19.207 0.304688 18.7617 0.574219 18.2227 1.11328C17.4258 1.9043 17.1094 2.67773 17.1094 3.82617C17.1094 5.90625 18.0762 7.91016 19.957 9.72656C21.4277 11.1504 22.2891 11.6016 23.5371 11.6016C24.2285 11.6016 24.5859 11.5254 25.166 11.25C25.7754 10.9629 26.3965 10.4766 27.334 9.52734C28.2129 8.64258 28.752 7.91602 29.209 7.00195C29.8008 5.80664 30.0293 4.83398 29.9883 3.66211C29.9648 3.09961 29.9297 2.87109 29.8125 2.53125C29.3906 1.35352 28.3477 0.398438 27.1523 0.09375C26.6777 -0.0292969 25.7051 -0.0292969 25.2305 0.09375C24.75 0.216797 24.2109 0.480469 23.8535 0.761719L23.5547 0.996094L23.2617 0.767578C22.9102 0.486328 22.3477 0.216797 21.8672 0.09375C21.3809 -0.0351562 20.3555 -0.0234375 19.875 0.111328ZM21.5215 2.52539C22.0254 2.77734 22.2832 3.17578 22.3535 3.80859C22.4355 4.57031 22.8574 4.98047 23.5547 4.98047C24.252 4.98047 24.6738 4.57031 24.7559 3.80859C24.8555 2.92383 25.3945 2.40234 26.209 2.40234C26.6953 2.40234 27.1289 2.64844 27.3926 3.07031C27.5625 3.3457 27.5684 3.39258 27.5625 3.97852C27.5625 4.52344 27.5391 4.66992 27.3691 5.15625C27.0586 6.07031 26.5898 6.82617 25.8047 7.66992C25.3535 8.15625 24.4043 8.95312 24.1113 9.08789C23.8242 9.22266 23.332 9.22852 23.0449 9.11133C22.7578 8.98828 21.8437 8.24414 21.3691 7.73438C20.4023 6.71484 19.834 5.73047 19.5996 4.6582C19.3711 3.65039 19.5762 2.97656 20.2148 2.58984C20.4844 2.43164 20.5898 2.40234 20.9004 2.40234C21.1641 2.40234 21.3457 2.4375 21.5215 2.52539Z" fill="#8699B2"/>
<path d="M8.06836 4.19531C5.2793 4.69922 3.03516 6.9082 2.4668 9.70898C2.34961 10.2773 2.34375 10.4883 2.34375 15.2109V20.1152L2.49023 20.3672C2.70703 20.7363 3.04688 20.918 3.51562 20.918C3.98438 20.918 4.32422 20.7363 4.53516 20.373L4.68164 20.127L4.70508 15.3223C4.72852 9.87305 4.70508 10.1602 5.21484 9.11133C5.70703 8.10352 6.3457 7.46484 7.35352 6.97266C8.33789 6.49805 8.43164 6.48633 11.4844 6.45703L14.1504 6.43945L14.3965 6.29297C14.7598 6.08203 14.9414 5.74219 14.9414 5.27344C14.9414 4.80469 14.7598 4.46484 14.3906 4.24805L14.1387 4.10156L11.332 4.10742C9.18164 4.11328 8.41992 4.13086 8.06836 4.19531Z" fill="#8699B2"/>
<path d="M11.3673 10.4648C10.3419 10.7402 9.43366 11.6719 9.16413 12.7148C9.0235 13.2715 9.07624 14.3262 9.28132 15.0293C9.62702 16.1953 10.3477 17.332 11.3497 18.2871C12.5508 19.4297 13.1778 19.7461 14.2383 19.7461C15.293 19.7461 15.9141 19.4355 17.0919 18.3164C18.5391 16.9512 19.3067 15.4277 19.377 13.7988C19.4298 12.6797 19.1719 11.9766 18.463 11.2676C17.8477 10.6523 17.1387 10.3711 16.1954 10.3711C15.5626 10.3711 15.0821 10.5 14.5782 10.8047L14.2383 11.0098L13.9044 10.8047C13.3829 10.4941 12.9141 10.3711 12.252 10.377C11.9415 10.377 11.543 10.418 11.3673 10.4648ZM12.7735 12.9961C12.9669 13.1895 13.002 13.2656 13.0372 13.5762C13.1075 14.1855 13.418 14.5664 13.963 14.7129C14.3145 14.8066 14.7774 14.6895 15.0821 14.4199C15.2579 14.2676 15.3926 13.9395 15.4395 13.5645C15.4747 13.2656 15.5157 13.1836 15.7032 12.9961C15.9024 12.7969 15.9551 12.7734 16.2305 12.7734C16.5059 12.7734 16.5587 12.7969 16.7637 13.002C16.9805 13.2188 16.9923 13.2422 16.9923 13.6113C16.9923 14.5723 16.3126 15.8086 15.2813 16.7109C14.3204 17.5547 14.1563 17.5547 13.1895 16.7051C12.17 15.8145 11.4844 14.5723 11.4844 13.6113C11.4844 13.2422 11.4962 13.2188 11.713 13.002C11.918 12.7969 11.9708 12.7734 12.2462 12.7734C12.5215 12.7734 12.5743 12.7969 12.7735 12.9961Z" fill="#8699B2"/>
<path d="M25.8574 13.1602C25.7168 13.2422 25.541 13.418 25.459 13.5586L25.3125 13.8105V16.9629V20.1152L25.459 20.3672C25.6758 20.7363 26.0156 20.918 26.4844 20.918C26.9531 20.918 27.293 20.7363 27.5098 20.3672L27.6562 20.1152V16.9629V13.8105L27.5098 13.5586C27.293 13.1895 26.9531 13.0078 26.4785 13.0078C26.1797 13.0078 26.0508 13.0371 25.8574 13.1602Z" fill="#8699B2"/>
<path d="M2.54888 23.0801C1.34771 23.4316 0.398492 24.3984 0.0879455 25.5879C-0.029242 26.0273 -0.0233826 26.9297 0.0938049 27.3809C0.404352 28.5879 1.41216 29.5957 2.61334 29.9062C2.94146 29.9883 4.21295 30 15.0001 30C25.7344 30 27.0645 29.9883 27.3809 29.9062C28.5997 29.5898 29.5899 28.5996 29.9063 27.3809C29.959 27.1816 30.0001 26.7832 30.0001 26.4844C30.0001 26.1855 29.959 25.7871 29.9063 25.5879C29.5899 24.3691 28.5997 23.3789 27.3809 23.0625C27.0645 22.9805 25.7403 22.9688 14.9649 22.9746C3.65045 22.9746 2.87701 22.9863 2.54888 23.0801ZM26.9825 25.4648C27.3985 25.6875 27.5977 26.0215 27.5977 26.4844C27.5977 26.9473 27.3985 27.2812 26.9825 27.5039L26.7481 27.627H15.0001H3.25201L3.01763 27.5039C2.60162 27.2812 2.4024 26.9473 2.4024 26.4844C2.4024 25.9043 2.7481 25.4883 3.3399 25.3652C3.45123 25.3418 8.76568 25.3301 15.1465 25.3359L26.7481 25.3418L26.9825 25.4648Z" fill="#8699B2"/>
</g>
<defs>
<clipPath id="clip0_1011_1151">
<rect width="30" height="30" fill="white"/>
</clipPath>
</defs>
</svg>
