<svg width="40" height="40" viewBox="0 0 40 40" fill="none" xmlns="http://www.w3.org/2000/svg">
<path d="M20.0028 37.9144C19.0028 37.9144 18.0195 37.681 17.2195 37.231L9.33618 32.681C6.06951 30.481 5.85284 30.081 5.85284 26.631V18.3644C5.85284 14.9143 6.06951 14.5143 9.26951 12.3643L17.2361 7.76434C18.8195 6.84768 21.2028 6.84768 22.7861 7.76434L30.6695 12.3143C33.9361 14.5143 34.1528 14.9143 34.1528 18.3644V26.631C34.1528 30.081 33.9361 30.481 30.7361 32.631L22.7695 37.231C21.9861 37.6977 20.9861 37.9144 20.0028 37.9144ZM20.0028 9.58101C19.4361 9.58101 18.8695 9.69768 18.4695 9.93101L10.5862 14.481C8.35284 15.9977 8.35284 15.9977 8.35284 18.3644V26.631C8.35284 28.9977 8.35284 28.9977 10.6695 30.5644L18.4861 35.0644C19.2861 35.531 20.7361 35.531 21.5361 35.0644L29.4195 30.5144C31.6528 28.9977 31.6528 28.9977 31.6528 26.631V18.3644C31.6528 15.9977 31.6528 15.9977 29.3361 14.431L21.5195 9.93101C21.1361 9.69768 20.5695 9.58101 20.0028 9.58101Z" fill="#8598B1"/>
<path d="M29.1666 13.9666C28.4833 13.9666 27.9166 13.4 27.9166 12.7166V8.33331C27.9166 5.69998 26.8 4.58331 24.1666 4.58331H15.8333C13.2 4.58331 12.0833 5.69998 12.0833 8.33331V12.6C12.0833 13.2833 11.5166 13.85 10.8333 13.85C10.15 13.85 9.58331 13.3 9.58331 12.6V8.33331C9.58331 4.29998 11.8 2.08331 15.8333 2.08331H24.1666C28.2 2.08331 30.4166 4.29998 30.4166 8.33331V12.7166C30.4166 13.4 29.85 13.9666 29.1666 13.9666Z" fill="#8598B1"/>
<path d="M22.7138 29.3852C22.3638 29.3852 21.9972 29.3185 21.6305 29.1685L19.9972 28.5352L18.3638 29.1852C17.4805 29.5352 16.5805 29.4519 15.9138 28.9685C15.2471 28.4852 14.8971 27.6519 14.9471 26.7019L15.0471 24.9519L13.9305 23.6019C13.3305 22.8519 13.1305 21.9852 13.3971 21.1852C13.6471 20.4019 14.3305 19.8019 15.2471 19.5685L16.9472 19.1352L17.8972 17.6519C18.9138 16.0518 21.0972 16.0518 22.1138 17.6519L23.0638 19.1352L24.7638 19.5685C25.6805 19.8019 26.3638 20.4019 26.6138 21.1852C26.8638 21.9685 26.6638 22.8519 26.0638 23.5852L24.9472 24.9352L25.0472 26.6852C25.0972 27.6352 24.7472 28.4519 24.0805 28.9519C23.6805 29.2352 23.2138 29.3852 22.7138 29.3852ZM15.8638 22.0019L16.9805 23.3519C17.3638 23.8019 17.5805 24.5185 17.5472 25.1019L17.4472 26.8519L19.0805 26.2019C19.6305 25.9852 20.3638 25.9852 20.9138 26.2019L22.5472 26.8519L22.4472 25.1019C22.4138 24.5185 22.6305 23.8185 23.0138 23.3519L24.1305 22.0019L22.4305 21.5685C21.8638 21.4185 21.2638 20.9852 20.9472 20.5019L20.0138 19.0352L19.0638 20.5019C18.7472 21.0019 18.1472 21.4352 17.5805 21.5852L15.8638 22.0019Z" fill="#8598B1"/>
</svg>
