<svg width="39" height="39" viewBox="0 0 39 39" fill="none" xmlns="http://www.w3.org/2000/svg">
<g opacity="0.5">
<path d="M29.2505 12.8538C29.2017 12.8538 29.1692 12.8538 29.1205 12.8538H29.0392C25.968 12.7563 23.6767 10.3838 23.6767 7.4588C23.6767 4.4688 26.1142 2.04755 29.088 2.04755C32.0617 2.04755 34.4992 4.48505 34.4992 7.4588C34.483 10.4 32.1917 12.7725 29.2667 12.87C29.2667 12.8538 29.2667 12.8538 29.2505 12.8538ZM29.088 4.46881C27.4467 4.46881 26.1142 5.80131 26.1142 7.44256C26.1142 9.05131 27.3655 10.3513 28.9742 10.4163C28.9905 10.4001 29.1205 10.4001 29.2667 10.4163C30.843 10.3351 32.0617 9.03506 32.078 7.44256C32.078 5.80131 30.7455 4.46881 29.088 4.46881Z" fill="#0C3264"/>
<path d="M29.2671 24.8302C28.6333 24.8302 27.9996 24.7814 27.3658 24.6677C26.6996 24.5539 26.2608 23.9202 26.3746 23.2539C26.4883 22.5877 27.1221 22.1489 27.7883 22.2627C29.7871 22.6039 31.8996 22.2303 33.3133 21.2878C34.0771 20.7841 34.4833 20.1502 34.4833 19.5164C34.4833 18.8827 34.0608 18.2652 33.3133 17.7614C31.8996 16.8189 29.7546 16.4452 27.7396 16.8027C27.0733 16.9327 26.4396 16.4777 26.3258 15.8115C26.2121 15.1452 26.6508 14.5115 27.3171 14.3977C29.9658 13.9265 32.7121 14.4302 34.6621 15.7302C36.0921 16.6889 36.9208 18.0539 36.9208 19.5164C36.9208 20.9627 36.1083 22.3441 34.6621 23.3191C33.1833 24.2941 31.2658 24.8302 29.2671 24.8302Z" fill="#0C3264"/>
<path d="M9.70201 12.8538C9.68576 12.8538 9.66951 12.8538 9.66951 12.8538C6.74451 12.7563 4.45326 10.3838 4.43701 7.45875C4.43701 4.46875 6.87451 2.03125 9.84826 2.03125C12.822 2.03125 15.2595 4.46875 15.2595 7.4425C15.2595 10.3837 12.9683 12.7563 10.0433 12.8538L9.70201 11.635L9.81576 12.8538C9.78326 12.8538 9.73451 12.8538 9.70201 12.8538ZM9.86451 10.4163C9.96201 10.4163 10.0433 10.4163 10.1408 10.4325C11.587 10.3675 12.8545 9.0675 12.8545 7.45875C12.8545 5.8175 11.522 4.48498 9.88076 4.48498C8.23951 4.48498 6.90701 5.8175 6.90701 7.45875C6.90701 9.05125 8.14201 10.335 9.71826 10.4325C9.73451 10.4163 9.79951 10.4163 9.86451 10.4163Z" fill="#0C3264"/>
<path d="M9.685 24.8302C7.68625 24.8302 5.76875 24.2941 4.29 23.3191C2.86 22.3603 2.03125 20.9789 2.03125 19.5164C2.03125 18.0702 2.86 16.6889 4.29 15.7302C6.24 14.4302 8.98625 13.9265 11.635 14.3977C12.3012 14.5115 12.74 15.1452 12.6263 15.8115C12.5125 16.4777 11.8787 16.9327 11.2125 16.8027C9.1975 16.4452 7.06875 16.8189 5.63875 17.7614C4.875 18.2652 4.46875 18.8827 4.46875 19.5164C4.46875 20.1502 4.89125 20.7841 5.63875 21.2878C7.0525 22.2303 9.165 22.6039 11.1637 22.2627C11.83 22.1489 12.4637 22.6039 12.5775 23.2539C12.6912 23.9202 12.2525 24.5539 11.5863 24.6677C10.9525 24.7814 10.3188 24.8302 9.685 24.8302Z" fill="#0C3264"/>
<path d="M19.5005 24.9925C19.4517 24.9925 19.4192 24.9925 19.3705 24.9925H19.2892C16.218 24.895 13.9268 22.5225 13.9268 19.5975C13.9268 16.6075 16.3642 14.1862 19.338 14.1862C22.3117 14.1862 24.7492 16.6238 24.7492 19.5975C24.733 22.5388 22.4417 24.9113 19.5167 25.0088C19.5167 24.9925 19.5167 24.9925 19.5005 24.9925ZM19.338 16.6075C17.6967 16.6075 16.3642 17.94 16.3642 19.5813C16.3642 21.19 17.6155 22.49 19.2242 22.555C19.2405 22.5388 19.3705 22.5388 19.5167 22.555C21.093 22.4738 22.3117 21.1738 22.328 19.5813C22.328 17.9563 20.9955 16.6075 19.338 16.6075Z" fill="#0C3264"/>
<path d="M19.4989 36.985C17.5489 36.985 15.5989 36.4812 14.0876 35.4575C12.6576 34.4987 11.8289 33.1337 11.8289 31.6712C11.8289 30.225 12.6414 28.8275 14.0876 27.8687C17.1264 25.8537 21.8876 25.8537 24.9101 27.8687C26.3401 28.8275 27.1689 30.1925 27.1689 31.655C27.1689 33.1012 26.3564 34.4987 24.9101 35.4575C23.3989 36.465 21.4489 36.985 19.4989 36.985ZM15.4364 29.9162C14.6726 30.42 14.2664 31.0537 14.2664 31.6875C14.2664 32.3212 14.6889 32.9387 15.4364 33.4425C17.6301 34.9212 21.3514 34.9212 23.5451 33.4425C24.3089 32.9387 24.7151 32.305 24.7151 31.6712C24.7151 31.0375 24.2926 30.42 23.5451 29.9162C21.3676 28.4375 17.6464 28.4537 15.4364 29.9162Z" fill="#0C3264"/>
</g>
</svg>
