<svg width="39" height="39" viewBox="0 0 39 39" fill="none" xmlns="http://www.w3.org/2000/svg">
<g opacity="0.5">
<path d="M26.0003 36.9687H13.0004C5.49287 36.9687 4.09537 33.475 3.73787 30.0787L2.51912 17.0625C2.34037 15.3562 2.29162 12.8375 3.98162 10.9525C5.44412 9.32749 7.86537 8.54749 11.3754 8.54749H27.6253C31.1516 8.54749 33.5728 9.34374 35.0191 10.9525C36.7091 12.8375 36.6603 15.3562 36.4816 17.0787L35.2628 30.0625C34.9053 33.475 33.5078 36.9687 26.0003 36.9687ZM11.3754 10.9687C8.62912 10.9687 6.74412 11.505 5.78537 12.5775C4.98912 13.455 4.72912 14.8037 4.94037 16.8187L6.15912 29.835C6.43537 32.4025 7.13412 34.5312 13.0004 34.5312H26.0003C31.8503 34.5312 32.5653 32.4025 32.8416 29.8187L34.0603 16.835C34.2716 14.8037 34.0116 13.455 33.2153 12.5775C32.2566 11.505 30.3716 10.9687 27.6253 10.9687H11.3754Z" fill="#0C3264"/>
<path d="M26 10.9688C25.3337 10.9688 24.7812 10.4163 24.7812 9.75V8.45C24.7812 5.5575 24.7812 4.46875 20.8 4.46875H18.2C14.2187 4.46875 14.2188 5.5575 14.2188 8.45V9.75C14.2188 10.4163 13.6662 10.9688 13 10.9688C12.3338 10.9688 11.7812 10.4163 11.7812 9.75V8.45C11.7812 5.59 11.7812 2.03125 18.2 2.03125H20.8C27.2188 2.03125 27.2188 5.59 27.2188 8.45V9.75C27.2188 10.4163 26.6663 10.9688 26 10.9688Z" fill="#0C3264"/>
<path d="M19.5 27.2188C15.0312 27.2188 15.0312 24.4562 15.0312 22.7987V21.125C15.0312 18.8338 15.5838 18.2812 17.875 18.2812H21.125C23.4163 18.2812 23.9688 18.8338 23.9688 21.125V22.75C23.9688 24.44 23.9688 27.2188 19.5 27.2188ZM17.4688 20.7188C17.4688 20.8488 17.4688 20.995 17.4688 21.125V22.7987C17.4688 24.4725 17.4688 24.7812 19.5 24.7812C21.5312 24.7812 21.5312 24.5213 21.5312 22.7825V21.125C21.5312 20.995 21.5312 20.8488 21.5312 20.7188C21.4012 20.7188 21.255 20.7188 21.125 20.7188H17.875C17.745 20.7188 17.5988 20.7188 17.4688 20.7188Z" fill="#0C3264"/>
<path d="M22.7492 24.0013C22.1479 24.0013 21.6117 23.5463 21.5467 22.9288C21.4654 22.2625 21.9367 21.645 22.6029 21.5638C26.8929 21.0275 31.0042 19.4025 34.4654 16.8838C35.0017 16.4775 35.7654 16.6075 36.1717 17.16C36.5617 17.6963 36.4479 18.46 35.8954 18.8663C32.0929 21.6288 27.6079 23.4 22.8954 24.0013C22.8467 24.0013 22.7979 24.0013 22.7492 24.0013Z" fill="#0C3264"/>
<path d="M16.2511 24.0173C16.2024 24.0173 16.1537 24.0173 16.1049 24.0173C11.6524 23.5136 7.31367 21.8886 3.55992 19.3211C3.00742 18.9473 2.86117 18.1836 3.23492 17.6311C3.60867 17.0786 4.37242 16.9323 4.92492 17.3061C8.35367 19.6461 12.3024 21.1248 16.3649 21.5961C17.0311 21.6773 17.5186 22.2786 17.4374 22.9448C17.3886 23.5623 16.8686 24.0173 16.2511 24.0173Z" fill="#0C3264"/>
</g>
</svg>
