<svg width="28" height="38" viewBox="0 0 28 38" fill="none" xmlns="http://www.w3.org/2000/svg">
<g clip-path="url(#clip0_866_660)">
<path d="M27.2301 0H0.769894C0.344943 0 0 0.33918 0 0.757031V37.243C0 37.6608 0.344943 38 0.769894 38H20.8898C21.0936 38 21.2898 37.9198 21.434 37.7781L27.7743 31.5437C27.9185 31.402 28 31.209 28 31.0086V0.757031C28 0.33918 27.6551 0 27.2301 0ZM21.6582 35.4172L21.6552 31.7612L25.3733 31.7649L21.6582 35.4172ZM26.4602 30.2516L20.8853 30.2464H20.8845C20.6807 30.2464 20.4845 30.3265 20.3403 30.4683C20.1961 30.6108 20.1146 30.803 20.1146 31.0041L20.1199 36.4859H1.53979V1.51406H26.4602V30.2516Z" fill="#8598B1"/>
<path d="M7.88764 27.3105C5.95158 27.3105 4.37708 28.8587 4.37708 30.7625C4.37708 32.6662 5.95234 34.2144 7.88764 34.2144C9.8237 34.2144 11.3982 32.6662 11.3982 30.7625C11.399 28.8587 9.8237 27.3105 7.88764 27.3105ZM7.88764 32.7011C6.80073 32.7011 5.91611 31.8312 5.91611 30.7625C5.91611 29.6937 6.79998 28.8246 7.88764 28.8246C8.97531 28.8246 9.85917 29.6937 9.85917 30.7625C9.85917 31.8312 8.97455 32.7011 7.88764 32.7011Z" fill="#8598B1"/>
<path d="M17.9257 30.1279H13.6913C13.2663 30.1279 12.9214 30.4671 12.9214 30.885C12.9214 31.3028 13.2663 31.642 13.6913 31.642H17.9257C18.3507 31.642 18.6956 31.3028 18.6956 30.885C18.6956 30.4671 18.3514 30.1279 17.9257 30.1279Z" fill="#8598B1"/>
<path d="M7.60988 4.54102H5.37794C4.95299 4.54102 4.60804 4.8802 4.60804 5.29805C4.60804 5.7159 4.95299 6.05508 5.37794 6.05508H7.61063C8.03558 6.05508 8.38053 5.7159 8.38053 5.29805C8.38053 4.8802 8.03558 4.54102 7.60988 4.54102Z" fill="#8598B1"/>
<path d="M22.93 4.54102H16.2327C15.8077 4.54102 15.4628 4.8802 15.4628 5.29805C15.4628 5.7159 15.8077 6.05508 16.2327 6.05508H22.93C23.355 6.05508 23.6999 5.7159 23.6999 5.29805C23.6999 4.8802 23.355 4.54102 22.93 4.54102Z" fill="#8598B1"/>
<path d="M22.93 7.79688H11.5363C11.1114 7.79688 10.7664 8.13605 10.7664 8.55391C10.7664 8.97176 11.1114 9.31094 11.5363 9.31094H22.93C23.355 9.31094 23.6999 8.97176 23.6999 8.55391C23.6999 8.13605 23.355 7.79688 22.93 7.79688Z" fill="#8598B1"/>
<path d="M22.9685 13.7773H5.03149C4.60654 13.7773 4.26159 14.1165 4.26159 14.5344C4.26159 14.9522 4.60654 15.2914 5.03149 15.2914H22.9685C23.3935 15.2914 23.7384 14.9522 23.7384 14.5344C23.7384 14.1165 23.3935 13.7773 22.9685 13.7773Z" fill="#8598B1"/>
<path d="M22.9685 16.3506H5.03149C4.60654 16.3506 4.26159 16.6898 4.26159 17.1076C4.26159 17.5255 4.60654 17.8646 5.03149 17.8646H22.9685C23.3935 17.8646 23.7384 17.5255 23.7384 17.1076C23.7384 16.6898 23.3935 16.3506 22.9685 16.3506Z" fill="#8598B1"/>
<path d="M22.9685 19.1514H5.03149C4.60654 19.1514 4.26159 19.4905 4.26159 19.9084C4.26159 20.3262 4.60654 20.6654 5.03149 20.6654H22.9685C23.3935 20.6654 23.7384 20.3262 23.7384 19.9084C23.7384 19.4905 23.3935 19.1514 22.9685 19.1514Z" fill="#8598B1"/>
<path d="M22.9685 21.7256H22.5451C22.1201 21.7256 21.7752 22.0648 21.7752 22.4826C21.7752 22.9005 22.1201 23.2396 22.5451 23.2396H22.9685C23.3935 23.2396 23.7384 22.9005 23.7384 22.4826C23.7384 22.064 23.3935 21.7256 22.9685 21.7256Z" fill="#8598B1"/>
<path d="M19.8504 21.7256H5.03149C4.60654 21.7256 4.26159 22.0648 4.26159 22.4826C4.26159 22.9005 4.60654 23.2396 5.03149 23.2396H19.8512C20.2762 23.2396 20.6211 22.9005 20.6211 22.4826C20.6203 22.064 20.2754 21.7256 19.8504 21.7256Z" fill="#8598B1"/>
</g>
<defs>
<clipPath id="clip0_866_660">
<rect width="28" height="38" fill="white"/>
</clipPath>
</defs>
</svg>
