<svg width="32" height="32" viewBox="0 0 32 32" fill="none" xmlns="http://www.w3.org/2000/svg">
<g clip-path="url(#clip0_1377_2116)">
<path d="M22.7187 0.0937109C19.8937 0.606212 17.5062 2.68746 16.6187 5.39371C16.35 6.20621 16.25 6.89996 16.25 7.87496C16.25 9.60621 16.6687 10.9687 17.6312 12.375C17.9562 12.8562 18.7312 13.6812 19.2187 14.0812C20.1437 14.8312 21.4875 15.4375 22.7312 15.6562C23.4437 15.775 24.8062 15.775 25.5187 15.65C28.8187 15.075 31.4562 12.3625 31.9437 9.05621C31.9875 8.74371 32.0062 8.16246 31.9812 7.54371C31.95 6.43746 31.8062 5.73746 31.4375 4.84996C30.4125 2.39996 28.1187 0.543712 25.5375 0.0937109C24.8687 -0.0187883 23.3437 -0.0250387 22.7187 0.0937109ZM25.3562 2.69371C26.7875 3.01871 28.0562 3.98746 28.8 5.31246C29.2375 6.09996 29.4375 6.88746 29.4375 7.87496C29.4375 9.08746 29.1 10.1375 28.4187 11.0312C26.95 12.9687 24.5875 13.675 22.2875 12.875C21.1562 12.4875 20.075 11.55 19.45 10.4375C19.0125 9.64996 18.8125 8.86246 18.8125 7.87496C18.8125 6.66246 19.1562 5.61246 19.8625 4.68746C21.1687 2.96246 23.25 2.20621 25.3562 2.69371Z" fill="white"/>
<path d="M22.2063 4.85C21.8188 5.08125 21.625 5.44375 21.625 5.9375C21.625 6.25 21.6562 6.39375 21.7812 6.6C21.9625 6.9125 22.3813 7.1875 22.675 7.1875H22.875V8.7C22.875 10.2 22.875 10.2063 23.0312 10.475C23.2625 10.8687 23.625 11.0625 24.125 11.0625C24.625 11.0625 24.9875 10.8687 25.2188 10.475L25.375 10.2063V7.875V5.54375L25.2188 5.275C25.125 5.1125 24.95 4.9375 24.7875 4.84375C24.5312 4.69375 24.4813 4.6875 23.4937 4.6875C22.5063 4.6875 22.4563 4.69375 22.2063 4.85Z" fill="white"/>
<path d="M6.10625 6.53749C3.13125 7.07499 0.7375 9.43124 0.13125 12.4187C0.00625 13.0312 0 13.2437 0 19.2187C0 25.1937 0.00625 25.4062 0.13125 26.0187C0.74375 29.0375 3.15 31.3812 6.18125 31.9062C6.9875 32.05 25.0375 32.0437 25.85 31.9062C28.9062 31.3687 31.3687 28.9062 31.9062 25.85C31.9813 25.3875 32 24.5937 32 21.1062V16.9187L31.8438 16.65C31.6125 16.2562 31.25 16.0625 30.75 16.0625C30.25 16.0625 29.8875 16.2562 29.6625 16.6437L29.5063 16.9062L29.4813 21.0312C29.4563 25.65 29.4625 25.5437 28.9875 26.5625C28.4875 27.65 27.7375 28.4125 26.6562 28.9375C25.4813 29.5062 26.2563 29.4687 16 29.4687C5.74375 29.4687 6.51875 29.5062 5.34375 28.9375C4.26875 28.4125 3.5875 27.7312 3.0625 26.6562C2.50625 25.5125 2.53125 25.8375 2.53125 19.2187C2.53125 12.6 2.50625 12.925 3.0625 11.7812C3.5875 10.7062 4.26875 10.0187 5.34375 9.49999C6.4 8.98749 6.41875 8.98749 9.875 8.95624L12.9062 8.93124L13.1687 8.77499C13.5563 8.54999 13.75 8.18749 13.75 7.68749C13.75 7.18749 13.5563 6.82499 13.1625 6.59374L12.8938 6.43749L9.74375 6.44374C7.31875 6.44999 6.48125 6.46874 6.10625 6.53749Z" fill="white"/>
<path d="M5.58137 15.1C5.19387 15.325 5.00012 15.6937 5.00012 16.1875C5.00012 16.8687 4.92512 16.8 8.48762 19.5062C10.2501 20.85 11.8814 22.0625 12.1064 22.2C12.6564 22.5375 13.4064 22.85 14.1251 23.05C14.6751 23.2 14.8064 23.2125 16.0001 23.2125C17.1939 23.2125 17.3251 23.2 17.8751 23.05C19.1939 22.6812 19.7626 22.3625 21.5814 20.9812C23.0251 19.875 23.1251 19.7562 23.1251 19.125C23.1251 18.3562 22.6376 17.875 21.8689 17.875C21.3751 17.875 21.3439 17.8937 19.8439 19.0562C18.2001 20.325 17.3501 20.6875 16.0001 20.6875C15.5439 20.6875 15.1814 20.65 14.8376 20.5625C13.8626 20.3187 13.4376 20.0437 10.2189 17.5875C8.56887 16.325 7.09387 15.2125 6.94387 15.1187C6.55637 14.8687 5.97512 14.8625 5.58137 15.1Z" fill="white"/>
</g>
<defs>
<clipPath id="clip0_1377_2116">
<rect width="32" height="32" fill="white"/>
</clipPath>
</defs>
</svg>
