<svg width="36" height="37" viewBox="0 0 36 37" fill="none" xmlns="http://www.w3.org/2000/svg">
<g clip-path="url(#clip0_1377_2129)">
<path d="M16.0796 0.115444C11.6218 0.822176 7.90226 3.85102 6.22179 8.1491C5.84913 9.10102 5.53272 10.3414 5.41319 11.351C5.28663 12.3823 5.35694 14.6178 5.55382 15.5409C5.8421 16.9183 6.39054 18.4255 7.01632 19.5145C7.57882 20.5097 8.19054 21.2597 12.1069 25.8318C16.2202 30.6347 16.3679 30.7861 17.1062 31.0385C17.5421 31.19 18.4562 31.19 18.8921 31.0385C19.6304 30.7861 19.778 30.6347 23.8913 25.8318C28.5601 20.3943 28.8413 20.0121 29.5726 18.3174C30.2968 16.6154 30.5851 15.3246 30.6343 13.4352C30.6765 11.8486 30.6062 11.0626 30.2898 9.78612C29.0452 4.68035 24.9601 0.894291 19.8413 0.108232C18.9905 -0.0287857 16.9234 -0.021574 16.0796 0.115444ZM19.5601 3.06496C21.5569 3.37506 23.5187 4.42794 25.0023 6.00727C26.1202 7.18996 26.8163 8.36544 27.3085 9.87987C27.639 10.9111 27.7726 11.8053 27.7726 12.9808C27.7726 15.0217 27.2523 16.8246 26.1694 18.5049C25.7616 19.1323 18.1257 28.1251 17.9991 28.1251C17.8726 28.1251 10.2366 19.1323 9.82882 18.5049C8.74601 16.8246 8.22569 15.0217 8.22569 12.9808C8.22569 11.8053 8.35929 10.9111 8.68976 9.87987C9.18194 8.36544 9.87804 7.18996 10.996 6.00727C13.253 3.61304 16.2905 2.56737 19.5601 3.06496Z" fill="white"/>
<path d="M20.9531 10.2476C20.8195 10.327 19.9688 11.1491 19.0758 12.065L17.4375 13.7308L16.4742 12.75C15.9398 12.2164 15.4055 11.7188 15.2789 11.6539C15.1453 11.5818 14.8781 11.5385 14.618 11.5385C13.7672 11.5385 13.2188 12.101 13.2188 12.9736C13.2188 13.2404 13.2609 13.5145 13.3312 13.6515C13.4789 13.9544 16.2562 16.8318 16.657 17.0986C16.9242 17.2789 17.0437 17.3077 17.4375 17.3077C17.8312 17.3077 17.9508 17.2789 18.218 17.0986C18.6187 16.8318 22.8023 12.5121 22.95 12.2092C23.0203 12.0722 23.0625 11.7981 23.0625 11.5313C23.0625 10.9616 22.8375 10.5433 22.4016 10.2765C22.0008 10.0385 21.3187 10.0241 20.9531 10.2476Z" fill="white"/>
<path d="M8.10699 27.3678C6.90464 28.0024 5.89917 28.9976 5.54058 29.9279C5.32964 30.476 5.28042 31.5721 5.44917 32.1058C5.94839 33.6851 7.5023 34.9111 10.125 35.7981C12.4382 36.5769 14.8289 36.9231 18 36.9231C19.8421 36.9231 20.8617 36.851 22.3242 36.6346C25.9312 36.101 28.7929 34.839 29.9461 33.2668C30.5086 32.5024 30.6211 32.1418 30.6211 31.1539C30.6211 30.1659 30.5015 29.8053 29.9601 29.0553C29.2711 28.125 27.6468 27.0433 26.9437 27.0433C26.0578 27.0505 25.3546 27.8654 25.4882 28.7308C25.5867 29.3149 25.8257 29.5962 26.6062 30.0361C27.2039 30.375 27.7734 30.9159 27.7734 31.1539C27.7734 31.4351 27.0984 32.0265 26.3531 32.4087C24.6023 33.2957 22.057 33.851 19.2445 33.9519C15.3562 34.1034 11.9671 33.5625 9.70308 32.4303C8.88043 32.0192 8.22652 31.4567 8.22652 31.1539C8.22652 30.9159 8.79605 30.3678 9.39371 30.0361C10.2656 29.5457 10.4976 29.2212 10.4976 28.5217C10.4976 27.8726 10.1953 27.4039 9.61871 27.1587C9.15464 26.9567 8.79605 27.0072 8.10699 27.3678Z" fill="white"/>
</g>
<defs>
<clipPath id="clip0_1377_2129">
<rect width="36" height="36.9231" fill="white"/>
</clipPath>
</defs>
</svg>
