<svg width="36" height="36" viewBox="0 0 36 36" fill="none" xmlns="http://www.w3.org/2000/svg">
<path d="M10.7506 2.63672C5.6811 3.43125 1.56079 7.17891 0.35141 12.1008C0.0490666 13.3523 -0.0212459 14.0977 0.0209416 15.6305C0.0631291 17.1633 0.18266 17.8594 0.639692 19.2234C1.89829 22.9992 4.84438 25.9453 8.62016 27.2039C10.16 27.7172 10.5959 27.7805 13.0428 27.8367C14.9553 27.8789 15.2506 27.9 15.4686 28.0125C15.8131 28.1953 15.9538 28.3289 16.1225 28.6523C16.2631 28.9125 16.2772 29.0812 16.3123 30.7687L16.3475 32.6039L16.5373 32.8852C16.7834 33.2648 17.2123 33.4688 17.7467 33.4688C17.9647 33.4688 18.2178 33.4336 18.3022 33.3914C18.3866 33.3422 19.5327 32.6391 20.8475 31.8164C22.1623 31.0008 24.0467 29.8266 25.0311 29.2148C27.3022 27.8016 29.1022 26.6062 30.2694 25.7344C33.5389 23.2734 35.1139 21.0727 35.7678 18.0141C35.9506 17.1703 35.9647 17.0156 35.9647 15.293C35.9647 13.2258 35.8944 12.7406 35.36 11.1516C33.8553 6.61641 29.953 3.3539 25.1858 2.63672C24.2295 2.48906 11.6788 2.49609 10.7506 2.63672ZM24.9467 5.50547C27.028 5.88515 28.8913 6.87656 30.3467 8.38828C31.4647 9.5414 32.1608 10.6805 32.653 12.1641C33.0397 13.3383 33.1452 14.1328 33.0959 15.6727C33.0678 16.7484 33.0256 17.1 32.885 17.6836C32.4702 19.3148 31.8092 20.4258 30.4381 21.7758C28.9194 23.2664 27.3444 24.3703 21.7616 27.8297L19.16 29.4398L19.1178 28.9055C19.0686 28.2375 18.9631 27.8719 18.6538 27.2461C18.3163 26.5781 17.5709 25.8398 16.903 25.5023C16.0944 25.0945 15.792 25.0523 13.6405 25.0102C11.4678 24.968 10.7998 24.8836 9.63969 24.4969C8.16313 24.0047 7.00297 23.3016 5.85688 22.1906C4.68266 21.0586 3.85297 19.7437 3.34672 18.2109C3.01625 17.1984 2.88266 16.3336 2.88266 15.1875C2.88266 14.0414 3.01625 13.1695 3.34672 12.1641C3.83891 10.6875 4.535 9.5414 5.65297 8.38828C7.34047 6.6375 9.5061 5.61094 11.9178 5.41406C12.3045 5.38594 15.2506 5.36484 18.4569 5.37187C23.5827 5.38594 24.3702 5.40703 24.9467 5.50547Z" fill="white"/>
<path d="M11.9039 11.1516C11.468 11.4117 11.25 11.8195 11.25 12.375C11.25 12.9375 11.468 13.3453 11.9109 13.6055L12.2133 13.7812H18H23.7867L24.0891 13.6055C24.532 13.3453 24.75 12.9375 24.75 12.375C24.75 11.8125 24.532 11.4047 24.0891 11.1445L23.7867 10.9688H17.993H12.1992L11.9039 11.1516Z" fill="white"/>
<path d="M11.9039 16.7766C11.468 17.0367 11.25 17.4445 11.25 18C11.25 18.5625 11.468 18.9703 11.9109 19.2305L12.2133 19.4062H18H23.7867L24.0891 19.2305C24.532 18.9703 24.75 18.5625 24.75 18C24.75 17.4375 24.532 17.0297 24.0891 16.7695L23.7867 16.5938H17.993H12.1992L11.9039 16.7766Z" fill="white"/>
</svg>
