<svg width="34" height="34" viewBox="0 0 34 34" fill="none" xmlns="http://www.w3.org/2000/svg">
<path d="M8.36719 0.0995598C5.92344 0.597607 3.88477 2.51011 3.24063 4.91401L3.08789 5.47846V16.9999V28.5214L3.24063 29.0859C3.90469 31.5695 6.07617 33.5417 8.57305 33.9335C8.93164 33.9867 10.7777 33.9999 15.3066 33.9867L21.5488 33.9667L22.0801 33.814C24.1652 33.223 25.9449 31.5496 26.6289 29.5507C26.941 28.6343 26.9609 28.3355 26.9609 25.0152V21.8941L26.7949 21.6085C26.5492 21.1902 26.1641 20.9843 25.6328 20.9843C25.1016 20.9843 24.7164 21.1902 24.4773 21.6019L24.3113 21.8808L24.2848 24.9023C24.2648 27.4988 24.2449 27.9769 24.1453 28.3222C23.7668 29.6503 22.784 30.6863 21.4824 31.1312L20.9512 31.3105H15.0078H9.06445L8.5 31.1046C7.20508 30.6464 6.30195 29.7101 5.89688 28.4218L5.74414 27.9238V16.9999V6.07612L5.89688 5.57807C6.10273 4.93393 6.36836 4.46909 6.81992 3.98432C7.29141 3.473 7.80273 3.14096 8.5 2.89526L9.06445 2.6894H15.0078H20.9512L21.4824 2.8687C22.784 3.31362 23.7734 4.36284 24.1453 5.67768C24.2316 5.98979 24.2582 6.4812 24.2848 7.9687C24.318 10.1269 24.3445 10.2531 24.8492 10.5984C25.0949 10.771 25.1813 10.791 25.6328 10.791C26.2105 10.791 26.4762 10.6581 26.7684 10.2398C26.9277 10.0074 26.9277 9.99409 26.9477 8.00854C26.9742 5.85034 26.9277 5.37221 26.6488 4.52221C25.9715 2.47026 24.1984 0.790184 22.0801 0.185886L21.5488 0.0331535L15.1738 0.0198708C10.107 0.0132294 8.7125 0.0265121 8.36719 0.0995598Z" fill="white"/>
<path d="M13.913 7.8293C12.5517 8.22773 11.4759 9.32344 11.124 10.6715C10.9912 11.1695 10.9978 12.1922 11.1306 12.7035C11.4759 14.0449 12.5783 15.1672 13.913 15.5457C14.2916 15.652 14.2982 15.6586 14.1123 15.7051C12.7177 16.0172 11.7083 16.6016 10.9048 17.5645C10.5861 17.9496 10.3337 18.368 9.10522 20.5594C8.38804 21.8543 8.36147 21.9141 8.36147 22.3059C8.35483 22.8238 8.57397 23.2289 8.99233 23.4746L9.27788 23.6406H15.0087H20.7396L21.0251 23.4746C21.4369 23.2289 21.6626 22.8238 21.656 22.3125C21.656 22.0934 21.6427 21.8875 21.6294 21.8609C21.1115 20.8449 19.365 17.8566 19.1259 17.5777C18.2826 16.5883 17.2998 16.0172 15.9052 15.7051C15.7193 15.6586 15.7259 15.652 16.1044 15.5457C17.4591 15.1539 18.5349 14.0582 18.8869 12.7035C19.0263 12.1855 19.0263 11.1895 18.8869 10.6715C18.5283 9.29023 17.406 8.16797 16.0248 7.80937C15.4802 7.66992 14.431 7.67656 13.913 7.8293ZM15.5931 10.552C16.038 10.7777 16.2705 11.1695 16.2705 11.6875C16.2705 12.4246 15.7459 12.9492 15.0087 12.9492C14.2716 12.9492 13.747 12.4246 13.747 11.6875C13.747 10.9504 14.2583 10.4324 14.9955 10.4258C15.2146 10.4258 15.4404 10.4723 15.5931 10.552ZM15.6728 18.4676C16.4431 18.6469 16.9345 19.0918 17.5587 20.1875L17.997 20.9512L16.5029 20.9711C15.6794 20.9777 14.338 20.9777 13.5212 20.9711L12.0271 20.9512L12.4587 20.1875C12.9634 19.291 13.2955 18.9258 13.8466 18.6602C14.4642 18.3547 14.9423 18.3082 15.6728 18.4676Z" fill="white"/>
<path d="M28.9531 11.827C28.827 11.9 28.0234 12.657 27.1801 13.5004L25.6328 15.0344L24.723 14.1313C24.2184 13.6398 23.7137 13.1816 23.5941 13.1219C23.2555 12.9492 22.618 12.9824 22.2727 13.1816C21.8609 13.4273 21.6484 13.8125 21.6484 14.3371C21.6484 14.5828 21.6883 14.8352 21.7547 14.9613C21.8941 15.2402 24.5172 17.8898 24.8957 18.1355C25.148 18.3016 25.2609 18.3281 25.6328 18.3281C26.0047 18.3281 26.1176 18.3016 26.3699 18.1355C26.7484 17.8898 30.6996 13.9121 30.8391 13.6332C30.9055 13.507 30.9453 13.2547 30.9453 13.009C30.9453 12.4844 30.7328 12.0992 30.3211 11.8535C29.9426 11.6344 29.2984 11.6211 28.9531 11.827Z" fill="white"/>
<path d="M12.9691 26.4695C12.5574 26.7152 12.3516 27.1004 12.3516 27.625C12.3516 28.1562 12.5574 28.5414 12.9758 28.7871L13.2613 28.9531H15.0078H16.7543L17.0398 28.7871C17.4582 28.5414 17.6641 28.1562 17.6641 27.625C17.6641 27.0938 17.4582 26.7086 17.0398 26.4629L16.7543 26.2969H15.0012H13.248L12.9691 26.4695Z" fill="white"/>
</svg>
