<svg width="15" height="16" viewBox="0 0 15 16" fill="none" xmlns="http://www.w3.org/2000/svg">
<g clip-path="url(#clip0_1152_1816)">
<path d="M12.3636 16H2.18182C0.981818 16 0 15.0182 0 13.8182V3.63635C0 2.43635 0.981818 1.45453 2.18182 1.45453H12.3636C13.5636 1.45453 14.5455 2.43635 14.5455 3.63635V13.8182C14.5455 15.0182 13.5636 16 12.3636 16ZM2.18182 2.90907C1.78182 2.90907 1.45455 3.23635 1.45455 3.63635V13.8182C1.45455 14.2182 1.78182 14.5454 2.18182 14.5454H12.3636C12.7636 14.5454 13.0909 14.2182 13.0909 13.8182V3.63635C13.0909 3.23635 12.7636 2.90907 12.3636 2.90907H2.18182Z" fill="#8598B1"/>
<path d="M10.1814 4.36364C9.78137 4.36364 9.4541 4.03636 9.4541 3.63636V0.727273C9.4541 0.327273 9.78137 0 10.1814 0C10.5814 0 10.9086 0.327273 10.9086 0.727273V3.63636C10.9086 4.03636 10.5814 4.36364 10.1814 4.36364Z" fill="#8598B1"/>
<path d="M4.36399 4.36364C3.96399 4.36364 3.63672 4.03636 3.63672 3.63636V0.727273C3.63672 0.327273 3.96399 0 4.36399 0C4.76399 0 5.09126 0.327273 5.09126 0.727273V3.63636C5.09126 4.03636 4.76399 4.36364 4.36399 4.36364Z" fill="#8598B1"/>
<path d="M13.8182 7.27272H0.727273C0.327273 7.27272 0 6.94545 0 6.54545C0 6.14545 0.327273 5.81818 0.727273 5.81818H13.8182C14.2182 5.81818 14.5455 6.14545 14.5455 6.54545C14.5455 6.94545 14.2182 7.27272 13.8182 7.27272Z" fill="#8598B1"/>
</g>
<defs>
<clipPath id="clip0_1152_1816">
<rect width="14.5455" height="16" fill="white"/>
</clipPath>
</defs>
</svg>
