<svg width="26" height="26" viewBox="0 0 26 26" fill="none" xmlns="http://www.w3.org/2000/svg">
<g clip-path="url(#clip0_841_316)">
<path d="M18.2554 0H7.74456C3.47414 0 0 3.47414 0 7.74456V18.2554C0 22.5259 3.47414 26 7.74456 26H18.2554C22.5259 26 26 22.5259 26 18.2554V7.74456C26 3.47414 22.5259 0 18.2554 0ZM23.387 18.2554C23.387 21.0867 21.0926 23.387 18.2554 23.387H7.74456C4.91334 23.387 2.61298 21.0926 2.61298 18.2554V7.74456C2.61298 4.91334 4.90744 2.61298 7.74456 2.61298H18.2554C21.0867 2.61298 23.387 4.90744 23.387 7.74456V18.2554Z" fill="#0C3264"/>
<path d="M13 6.27588C9.28991 6.27588 6.27585 9.28994 6.27585 13C6.27585 16.7101 9.28991 19.7242 13 19.7242C16.7101 19.7242 19.7241 16.7101 19.7241 13C19.7241 9.28994 16.7101 6.27588 13 6.27588ZM13 17.1112C10.7291 17.1112 8.88882 15.2709 8.88882 13C8.88882 10.7291 10.7291 8.88886 13 8.88886C15.2709 8.88886 17.1111 10.7291 17.1111 13C17.1111 15.2709 15.2709 17.1112 13 17.1112Z" fill="#0C3264"/>
<path d="M21.3521 6.32904C21.3521 7.21969 20.6325 7.93929 19.7418 7.93929C18.8512 7.93929 18.1316 7.21969 18.1316 6.32904C18.1316 5.43839 18.8512 4.71879 19.7418 4.71879C20.6266 4.71289 21.3521 5.43839 21.3521 6.32904Z" fill="#0C3264"/>
</g>
<defs>
<clipPath id="clip0_841_316">
<rect width="26" height="26" fill="white"/>
</clipPath>
</defs>
</svg>
