<svg width="28" height="28" viewBox="0 0 28 28" fill="none" xmlns="http://www.w3.org/2000/svg">
<g clip-path="url(#clip0_840_43)">
<mask id="mask0_840_43" style="mask-type:luminance" maskUnits="userSpaceOnUse" x="0" y="0" width="28" height="28">
<path d="M28 0H0V28H28V0Z" fill="white"/>
</mask>
<g mask="url(#mask0_840_43)">
<path fill-rule="evenodd" clip-rule="evenodd" d="M15 0.56C15 0.25072 14.7493 0 14.44 0H13.56C13.2507 0 13 0.25072 13 0.56V5.97449C13 6.59 12.1514 6.75496 11.9208 6.18426L9.89247 1.16404C9.77662 0.877279 9.45022 0.738737 9.16348 0.854595L8.34754 1.18425C8.06079 1.30011 7.92225 1.62649 8.0381 1.91325L10.2005 7.26529C10.429 7.83091 9.71663 8.30242 9.28526 7.87105L5.20359 3.78938C4.9849 3.57069 4.63032 3.57069 4.41162 3.78938L3.78938 4.41162C3.57069 4.63032 3.57069 4.9849 3.78938 5.20359L7.45471 8.86892C7.89226 9.30647 7.40156 10.0258 6.83452 9.77805L2.08453 7.70274C1.80111 7.57891 1.47099 7.70829 1.34717 7.99169L0.994846 8.79809C0.871021 9.08151 1.00039 9.41163 1.2838 9.53546L6.75723 11.9268C7.31326 12.1698 7.13982 13 6.53302 13H0.56C0.25072 13 0 13.2507 0 13.56V14.44C0 14.7493 0.25072 15 0.56 15H6.53299C7.13979 15 7.31324 15.8302 6.7572 16.0731L1.28381 18.4646C1.0004 18.5884 0.871028 18.9185 0.994853 19.2018L1.34717 20.0082C1.47099 20.2917 1.80113 20.4211 2.08453 20.2972L6.83452 18.222C7.40156 17.9742 7.89226 18.6935 7.45471 19.1311L3.78938 22.7963C3.57069 23.0152 3.57069 23.3696 3.78938 23.5883L4.41164 24.2106C4.63032 24.4293 4.9849 24.4293 5.20359 24.2106L9.28526 20.1289C9.71664 19.6976 10.429 20.1691 10.2005 20.7347L8.0381 26.0868C7.92225 26.3735 8.06078 26.6998 8.34754 26.8157L9.16346 27.1454C9.45022 27.2612 9.77661 27.1228 9.89247 26.8359L11.9208 21.8158C12.1514 21.245 13 21.4101 13 22.0255V27.44C13 27.7493 13.2507 28 13.56 28H14.44C14.7493 28 15 27.7493 15 27.44V22.0255C15 21.4101 15.8487 21.245 16.0793 21.8158L18.1075 26.8359C18.2234 27.1228 18.5497 27.2612 18.8366 27.1454L19.6525 26.8157C19.9392 26.6998 20.0778 26.3735 19.9619 26.0868L17.7996 20.7347C17.571 20.1691 18.2833 19.6976 18.7148 20.1289L22.7963 24.2106C23.0152 24.4293 23.3696 24.4293 23.5883 24.2106L24.2106 23.5883C24.4293 23.3696 24.4293 23.0152 24.2106 22.7963L20.5453 19.1311C20.1078 18.6935 20.5985 17.9742 21.1655 18.222L25.9154 20.2972C26.1989 20.4211 26.529 20.2917 26.6528 20.0082L27.0052 19.2018C27.1289 18.9185 26.9996 18.5884 26.7162 18.4646L21.2428 16.0731C20.6868 15.8302 20.8601 15 21.467 15H27.44C27.7493 15 28 14.7493 28 14.44V13.56C28 13.2507 27.7493 13 27.44 13H21.467C20.8601 13 20.6867 12.1698 21.2428 11.9268L26.7162 9.53546C26.9996 9.41163 27.1289 9.08149 27.0052 8.79809L26.6528 7.99169C26.529 7.70829 26.1989 7.57891 25.9154 7.70274L21.1655 9.77805C20.5985 10.0258 20.1078 9.30647 20.5453 8.86892L24.2106 5.20358C24.4293 4.98488 24.4293 4.63032 24.2106 4.41162L23.5883 3.78937C23.3696 3.57067 23.0152 3.57067 22.7963 3.78937L18.7148 7.87104C18.2833 8.30241 17.571 7.8309 17.7996 7.26527L19.9619 1.91325C20.0778 1.62649 19.9392 1.30011 19.6525 1.18425L18.8366 0.854595C18.5497 0.738737 18.2234 0.877279 18.1075 1.16404L16.0793 6.18426C15.8487 6.75496 15 6.59 15 5.97449V0.56Z" fill="#1A6CD9"/>
</g>
</g>
<defs>
<clipPath id="clip0_840_43">
<rect width="28" height="28" fill="white"/>
</clipPath>
</defs>
</svg>
