<svg width="33" height="33" viewBox="0 0 33 33" fill="none" xmlns="http://www.w3.org/2000/svg">
<g clip-path="url(#clip0_792_1073)">
<path d="M25.9746 0.0707846C25.6008 0.219028 25.3816 0.541293 24.7049 1.93348C24.3375 2.69403 24.0281 3.31922 24.0217 3.32567C24.0152 3.33211 23.2998 3.44168 22.4361 3.57059C20.7732 3.81551 20.509 3.8993 20.2576 4.24735C19.9611 4.64051 19.9031 5.20125 20.1029 5.63953C20.1803 5.81356 20.6057 6.27118 21.3469 6.9866L22.4748 8.06942L22.2299 9.50028C22.0945 10.2802 21.9785 11.0536 21.9785 11.2147C21.9785 12.0011 22.6166 12.5618 23.4223 12.4909C23.6865 12.4651 24.0217 12.3169 25.1303 11.7304L26.5096 11.002L26.7094 11.1116C26.8189 11.1761 27.4699 11.5177 28.1596 11.8722C29.41 12.5167 29.41 12.5167 29.8096 12.4909C30.2672 12.4651 30.5637 12.2975 30.8021 11.9495C31.0857 11.537 31.0857 11.3759 30.8021 9.6743L30.5379 8.10164L31.698 6.93504C32.3426 6.29696 32.8969 5.68465 32.9355 5.58797C32.9678 5.48485 33 5.24637 33 5.05301C33 4.44071 32.6455 3.9702 32.0654 3.80907C31.9236 3.77039 31.2727 3.66727 30.6152 3.57703C29.9578 3.4868 29.3262 3.39012 29.2102 3.37078C29.0039 3.33856 28.9717 3.287 28.282 1.9077C27.8953 1.12782 27.5279 0.431723 27.4699 0.360824C27.1799 0.038558 26.4258 -0.103238 25.9746 0.0707846ZM27.1605 5.46551C27.4119 5.74266 27.5602 5.79422 28.6043 5.96825L28.817 6.00047L28.3658 6.47743C27.7148 7.16707 27.6762 7.34754 27.9469 8.61727C27.9727 8.75262 27.934 8.74618 27.3797 8.47547C26.5869 8.08875 26.3678 8.08875 25.6137 8.47547L25.0594 8.75907L25.098 8.52059C25.1238 8.39168 25.1625 8.06297 25.1818 7.79871C25.227 7.19285 25.1561 7.02528 24.576 6.43875L24.157 6.00692L24.3375 5.96825C24.4406 5.94891 24.6727 5.91668 24.8467 5.8909C25.5621 5.79422 25.865 5.56219 26.2453 4.80164L26.5031 4.28602L26.7609 4.80164C26.9027 5.08524 27.0832 5.38817 27.1605 5.46551Z" fill="white"/>
<path d="M15.2109 9.89355C13.4514 10.248 11.8658 11.3631 10.9441 12.9035C10.6348 13.4191 10.3512 14.1023 10.2352 14.5922L10.1514 14.9531H9.08145C8.41758 14.9531 7.81816 14.9854 7.52812 15.0434C5.55586 15.4236 3.8543 16.7256 2.96484 18.5238C2.53945 19.3939 2.37832 20.0191 2.33965 20.9924C2.30098 21.7529 2.30742 21.7852 2.475 22.0688C2.71992 22.4877 3.0873 22.6875 3.60937 22.6875C4.42148 22.6875 4.85977 22.2299 4.93066 21.3018C5.01445 20.277 5.33672 19.51 5.9748 18.8203C6.43242 18.324 6.92871 18.0018 7.60547 17.7633L8.15332 17.5699L9.95801 17.5441C11.7305 17.5184 11.7691 17.5184 12.0334 17.3637C12.433 17.1316 12.6135 16.7771 12.665 16.1455C12.7488 15.1207 13.0711 14.3537 13.7092 13.6641C14.1668 13.1678 14.6631 12.8455 15.3398 12.607C15.8813 12.4201 15.907 12.4201 17.5635 12.3879C19.1941 12.3621 19.2457 12.3557 19.51 12.2074C19.9096 11.9754 20.1094 11.6016 20.1094 11.0859C20.1094 10.5703 19.9096 10.1965 19.5035 9.95801L19.2264 9.79688L17.4281 9.80332C16.2293 9.80977 15.4881 9.83555 15.2109 9.89355Z" fill="white"/>
<path d="M18.0146 15.0756C16.6934 15.4623 15.6492 16.5258 15.3076 17.8342C15.2432 18.0791 15.2109 18.5174 15.2109 19.1555V20.1094H12.9809C10.493 20.1094 10.3318 20.1287 9.51328 20.5412C8.89453 20.857 8.21777 21.5273 7.90195 22.159C7.54746 22.8615 7.47656 23.2225 7.47656 24.3117V25.2656H5.37539C3.67382 25.2656 3.19687 25.285 2.88105 25.3687C1.54687 25.7104 0.444723 26.8125 0.096676 28.1467C-0.0322303 28.6301 -0.0257849 29.6227 0.103121 30.1189C0.444723 31.4467 1.55332 32.5553 2.87461 32.8969C3.2291 32.9871 4.29257 33 12.5426 33H21.8045L22.0816 32.8389C22.8809 32.3684 22.9066 31.0922 22.1268 30.6023L21.8818 30.4541L12.7295 30.4219L3.57714 30.3896L3.31933 30.2543C2.86172 30.0094 2.64257 29.642 2.64257 29.1328C2.64257 28.6172 2.86816 28.2562 3.35156 27.9984C3.55781 27.8824 3.80273 27.876 6.41308 27.8437C9.23613 27.8115 9.24902 27.8115 9.4875 27.6633C9.6164 27.5795 9.79043 27.4055 9.87422 27.2766C10.016 27.051 10.0225 26.9672 10.0547 25.3623C10.0869 23.8992 10.1062 23.6607 10.2094 23.4609C10.3769 23.1451 10.4994 23.0162 10.7959 22.8551C11.0473 22.7262 11.1439 22.7197 14.0185 22.6875C16.9705 22.6553 16.9834 22.6553 17.2219 22.507C17.3508 22.4232 17.5248 22.2492 17.6086 22.1203C17.7504 21.8947 17.7568 21.8109 17.7891 20.2061C17.8213 18.743 17.8406 18.5045 17.9437 18.3047C18.1113 17.9889 18.2338 17.86 18.5303 17.6988C18.7881 17.5635 18.7945 17.5635 24.1055 17.5635C29.1779 17.5635 29.4357 17.5699 29.6484 17.6859C29.9643 17.8535 30.0932 17.976 30.2543 18.2725C30.3896 18.5303 30.3896 18.5303 30.3896 23.9766C30.3896 29.4229 30.3896 29.4229 30.2543 29.6807C30.0932 29.9771 29.9643 30.0996 29.6484 30.2672C29.4486 30.3703 29.2102 30.3896 27.7471 30.4219C26.1293 30.4541 26.0648 30.4605 25.8264 30.6023C25.459 30.8344 25.2656 31.2146 25.2656 31.7109C25.2656 32.2266 25.4654 32.6004 25.8715 32.8389L26.1486 33H27.934C29.9385 33 30.1705 32.9678 30.9633 32.5682C31.582 32.2588 32.2588 31.582 32.5682 30.9633C33.0193 30.0674 33 30.3574 33 23.9766C33 17.5957 33.0193 17.8857 32.5682 16.9898C32.2588 16.3711 31.582 15.6943 30.9633 15.385C30.0674 14.9338 30.351 14.9531 24.0668 14.9596C18.8654 14.9596 18.3691 14.9725 18.0146 15.0756Z" fill="white"/>
</g>
<defs>
<clipPath id="clip0_792_1073">
<rect width="33" height="33" fill="white"/>
</clipPath>
</defs>
</svg>
