<svg width="36" height="36" viewBox="0 0 36 36" fill="none" xmlns="http://www.w3.org/2000/svg">
<g clip-path="url(#clip0_1024_276)">
<path d="M4.21875 0.140625C2.23594 0.653904 0.639844 2.25703 0.140625 4.24687C0 4.79531 0 5.05547 0 18C0 30.9234 0 31.2047 0.140625 31.7531C0.217969 32.0555 0.428906 32.6109 0.611719 32.9766C0.892969 33.5461 1.04766 33.743 1.65234 34.3477C2.25703 34.9523 2.45391 35.107 3.02344 35.3883C3.38906 35.5711 3.94453 35.782 4.24687 35.8594C4.79531 36 5.07656 36 18 36C30.9234 36 31.2047 36 31.7531 35.8594C32.0555 35.782 32.6109 35.5711 32.9766 35.3883C33.5461 35.107 33.743 34.9523 34.3477 34.3477C34.9523 33.743 35.107 33.5461 35.3883 32.9766C35.5711 32.6109 35.782 32.0555 35.8594 31.7531C36 31.2047 36 30.9234 36 18C36 5.07656 36 4.79531 35.8594 4.24687C35.782 3.94453 35.5711 3.38906 35.3883 3.02344C35.107 2.4539 34.9523 2.25703 34.3477 1.65234C33.743 1.04765 33.5461 0.892967 32.9766 0.611717C32.6109 0.428905 32.0555 0.217968 31.7531 0.140625C31.2047 0 30.9305 0 17.9719 0.00703049C5.13281 0.00703049 4.73203 0.014061 4.21875 0.140625ZM11.25 4.21875V5.625H8.91562H6.58828L6.28594 5.80078C5.84297 6.06094 5.625 6.46875 5.625 7.03125C5.625 7.59375 5.84297 8.00156 6.28594 8.26172L6.58828 8.4375H19.8492H33.1172L33.1031 19.7719L33.082 31.1133L32.8922 31.5211C32.6531 32.0273 32.0414 32.6461 31.5492 32.8711C31.3453 32.9695 30.9586 33.075 30.6914 33.1172C30.0164 33.2086 5.98359 33.2086 5.30859 33.1172C4.64062 33.0187 4.14844 32.7727 3.68437 32.3156C3.22734 31.8516 2.98125 31.3594 2.88281 30.6914C2.79141 30.0164 2.79141 5.98359 2.88281 5.30859C2.98125 4.64062 3.22734 4.14844 3.68437 3.68437C4.13438 3.24141 4.65469 2.97422 5.24531 2.88984C5.47734 2.85469 6.91875 2.82656 8.45859 2.81953L11.25 2.8125V4.21875ZM30.6914 2.88281C31.3594 2.98125 31.8516 3.22734 32.3156 3.68437C32.7656 4.13437 33.0398 4.68281 33.0961 5.23828L33.1383 5.625H23.5969H14.0625V4.21875V2.8125H22.1344C27.1687 2.8125 30.382 2.84062 30.6914 2.88281Z" fill="white"/>
<path d="M11.5523 11.0742C11.3484 11.1304 10.9687 11.2781 10.7086 11.4047C10.2797 11.6015 10.0195 11.8406 8.25468 13.5984C6.49686 15.3633 6.2578 15.6234 6.06093 16.0523C5.6953 16.8187 5.60389 17.2828 5.63905 18.2109C5.67421 19.1109 5.84999 19.6664 6.29999 20.3554C6.64452 20.8828 15.1664 29.6648 15.6164 29.9672C16.3125 30.4242 16.8891 30.607 17.7469 30.6422C18.8367 30.6914 19.5469 30.5086 20.3836 29.9601C20.8336 29.6719 29.3484 20.8898 29.7 20.3554C30.15 19.6664 30.3258 19.1109 30.3609 18.2109C30.3961 17.2828 30.3047 16.8187 29.9391 16.0523C29.7422 15.6234 29.5031 15.3633 27.7453 13.5984C26.0226 11.8758 25.7133 11.6015 25.3125 11.4047C24.3633 10.9547 24.6234 10.9687 17.9648 10.9758C13.0078 10.9758 11.8547 10.9969 11.5523 11.0742ZM23.9062 13.9429C24.2437 14.1258 27.1898 17.0578 27.3586 17.3812C27.5273 17.7117 27.5344 18.3023 27.3656 18.6047C27.1828 18.9492 18.8578 27.5273 18.5836 27.6609C18.2812 27.8086 17.7187 27.8086 17.4164 27.6609C17.1422 27.5273 8.81718 18.9492 8.63436 18.6047C8.47968 18.3234 8.47264 17.7117 8.6203 17.4164C8.76093 17.1351 11.7 14.1679 11.9883 14.0133C12.1078 13.95 12.3117 13.8726 12.4453 13.8445C12.5789 13.8164 15.1594 13.8023 18.1758 13.8023C23.3648 13.8164 23.6742 13.8234 23.9062 13.9429Z" fill="white"/>
<path d="M14.4352 16.7766C13.9992 17.0367 13.7812 17.4445 13.7812 18C13.7812 18.5625 13.9992 18.9703 14.4422 19.2305C14.7234 19.3922 14.8078 19.4062 15.6656 19.4062H16.5938V20.3344C16.5938 21.1922 16.6078 21.2766 16.7695 21.5578C17.0297 22.0008 17.4375 22.2188 18 22.2188C18.5625 22.2188 18.9703 22.0008 19.2305 21.5578C19.3922 21.2766 19.4062 21.1922 19.4062 20.3344V19.4062H20.3344C21.1922 19.4062 21.2766 19.3922 21.5578 19.2305C22.0008 18.9703 22.2188 18.5625 22.2188 18C22.2188 17.4375 22.0008 17.0297 21.5578 16.7695L21.2555 16.5938H17.993H14.7305L14.4352 16.7766Z" fill="white"/>
</g>
<defs>
<clipPath id="clip0_1024_276">
<rect width="36" height="36" fill="white"/>
</clipPath>
</defs>
</svg>
