<svg width="24" height="24" viewBox="0 0 24 24" fill="none" xmlns="http://www.w3.org/2000/svg">
<g clip-path="url(#clip0_1041_357)">
<path d="M3.75 0.0704498C2.025 0.417324 0.585938 1.77201 0.13125 3.46889L0.0234375 3.86732V12.0001V20.1329L0.13125 20.5314C0.6 22.2845 2.1375 23.6767 3.89531 23.9533C4.14844 23.9908 6.32813 24.0001 12.2109 23.9908L20.1797 23.9767L20.5547 23.8689C22.2797 23.3767 23.6016 21.947 23.9344 20.2126C24.0328 19.697 24.0328 4.30326 23.9344 3.78764C23.6016 2.05326 22.2797 0.623573 20.5547 0.131386L20.1797 0.0235748L12.1172 0.0141983C5.61094 0.00951195 3.99375 0.0188866 3.75 0.0704498ZM20.1328 2.02514C21.0609 2.34389 21.7547 3.07982 22.0172 4.03607C22.0969 4.31732 22.1016 4.80482 22.1016 12.0001C22.1016 19.1954 22.0969 19.6829 22.0172 19.9642C21.7547 20.9204 21.0609 21.6564 20.1328 21.9751L19.7578 22.1017H12H4.24219L3.84375 21.9564C2.92969 21.6329 2.29219 20.972 2.00625 20.0626L1.89844 19.7111V12.0001V4.2892L2.00625 3.93764C2.15156 3.48295 2.33906 3.15482 2.65781 2.81264C3.1125 2.32045 3.72656 2.0017 4.35938 1.92201C4.52813 1.90326 8.0625 1.8892 12.2109 1.89389L19.7578 1.89857L20.1328 2.02514Z" fill="white"/>
<path d="M4.18599 3.68429C3.60942 4.02648 3.59536 4.94991 4.15786 5.30616C4.3313 5.40929 4.37817 5.41398 5.55474 5.43741C6.6188 5.46085 6.79224 5.47492 6.93755 5.54992C7.30317 5.7421 7.43911 5.97648 7.4813 6.47804C7.52349 6.95616 7.62192 7.32179 7.81411 7.70616C8.03442 8.1421 8.52661 8.63898 8.97661 8.86866C9.62349 9.20148 9.32817 9.18741 14.8407 9.18741H19.7954L19.9969 9.07023C20.5782 8.72804 20.5969 7.79991 20.0297 7.44366L19.8516 7.33585L14.9766 7.31241C10.1063 7.28898 10.1016 7.28898 9.91411 7.19054C9.57192 7.00304 9.43599 6.76866 9.3938 6.27179C9.2813 4.94523 8.48442 3.94679 7.27974 3.63741C7.05474 3.57648 6.72661 3.56242 5.69067 3.56242H4.38286L4.18599 3.68429Z" fill="white"/>
<path d="M11.4984 3.87187C11.2078 4.04531 11.0625 4.31719 11.0625 4.6875C11.0625 5.26406 11.4234 5.625 12 5.625C12.5766 5.625 12.9375 5.26406 12.9375 4.6875C12.9375 4.11094 12.5766 3.75 11.9953 3.75C11.7563 3.75 11.6531 3.77344 11.4984 3.87187Z" fill="white"/>
<path d="M15.2484 3.87187C14.9578 4.04531 14.8125 4.31719 14.8125 4.6875C14.8125 5.26406 15.1734 5.625 15.75 5.625C16.3266 5.625 16.6875 5.26406 16.6875 4.6875C16.6875 4.11094 16.3266 3.75 15.7453 3.75C15.5063 3.75 15.4031 3.77344 15.2484 3.87187Z" fill="white"/>
<path d="M18.9984 3.87187C18.7078 4.04531 18.5625 4.31719 18.5625 4.6875C18.5625 5.26406 18.9234 5.625 19.5 5.625C20.0766 5.625 20.4375 5.26406 20.4375 4.6875C20.4375 4.11094 20.0766 3.75 19.4953 3.75C19.2563 3.75 19.1531 3.77344 18.9984 3.87187Z" fill="white"/>
<path d="M5.789 11.1516C4.82807 11.4328 4.06869 12.2063 3.82025 13.1578C3.71244 13.5656 3.71713 17.9297 3.82494 18.3422C4.07338 19.3078 4.87963 20.1141 5.84057 20.3625C6.25775 20.4703 8.73744 20.4703 9.15463 20.3625C10.1296 20.1094 10.9218 19.3172 11.1749 18.3422C11.2874 17.9203 11.2874 13.5797 11.1749 13.1578C10.9218 12.1828 10.1296 11.3906 9.15463 11.1375C8.71869 11.025 6.18744 11.0344 5.789 11.1516ZM8.81244 13.05C9.04213 13.1719 9.13588 13.2609 9.25307 13.4766C9.3515 13.6594 9.3515 13.7063 9.3515 15.75C9.3515 17.7938 9.3515 17.8406 9.25307 18.0234C9.13588 18.2391 9.04213 18.3281 8.81244 18.45C8.66713 18.5297 8.53119 18.5391 7.49994 18.5391C6.46869 18.5391 6.33275 18.5297 6.18744 18.45C5.95775 18.3281 5.864 18.2391 5.74682 18.0234C5.64838 17.8406 5.64838 17.7938 5.64838 15.75C5.64838 13.8 5.65307 13.6547 5.73744 13.5C5.85463 13.2797 5.94838 13.1766 6.11713 13.0875C6.36088 12.9609 6.55775 12.9422 7.61713 12.9516C8.51713 12.9609 8.66713 12.975 8.81244 13.05Z" fill="white"/>
<path d="M13.3734 11.1844C13.0828 11.3578 12.9375 11.6297 12.9375 12C12.9375 12.375 13.0828 12.6469 13.3781 12.8203L13.5797 12.9375H16.6875H19.7953L19.9969 12.8203C20.2922 12.6469 20.4375 12.375 20.4375 12C20.4375 11.625 20.2922 11.3531 19.9969 11.1797L19.7953 11.0625H16.6828H13.5703L13.3734 11.1844Z" fill="white"/>
<path d="M13.3734 14.9344C13.0828 15.1078 12.9375 15.3797 12.9375 15.75C12.9375 16.125 13.0828 16.3969 13.3781 16.5703L13.5797 16.6875H16.6875H19.7953L19.9969 16.5703C20.2922 16.3969 20.4375 16.125 20.4375 15.75C20.4375 15.375 20.2922 15.1031 19.9969 14.9297L19.7953 14.8125H16.6828H13.5703L13.3734 14.9344Z" fill="white"/>
<path d="M13.3734 18.6844C13.0828 18.8578 12.9375 19.1297 12.9375 19.5C12.9375 19.875 13.0828 20.1469 13.3781 20.3203L13.5797 20.4375H16.6875H19.7953L19.9969 20.3203C20.2922 20.1469 20.4375 19.875 20.4375 19.5C20.4375 19.125 20.2922 18.8531 19.9969 18.6797L19.7953 18.5625H16.6828H13.5703L13.3734 18.6844Z" fill="white"/>
</g>
<defs>
<clipPath id="clip0_1041_357">
<rect width="24" height="24" fill="white"/>
</clipPath>
</defs>
</svg>
