<svg width="36" height="36" viewBox="0 0 36 36" fill="none" xmlns="http://www.w3.org/2000/svg">
<g clip-path="url(#clip0_1024_261)">
<path d="M3.05863 0.133625C1.61722 0.5555 0.47816 1.71566 0.105503 3.143C0.0140971 3.49456 3.4566e-05 5.43518 3.4566e-05 17.986C3.4566e-05 34.0172 -0.0351217 32.7657 0.471128 33.7782C0.801597 34.4321 1.53988 35.1774 2.21488 35.5219C3.21332 36.0352 1.96175 36 18 36C34.0172 36 32.7657 36.0352 33.7782 35.5289C34.4532 35.1914 35.1914 34.4532 35.5289 33.7782C36.0211 32.7938 36 33.2438 36 24.9891V17.5571L35.8243 17.2547C35.311 16.3828 33.9188 16.3547 33.3844 17.2055L33.2227 17.4727L33.1875 24.7852C33.1524 32.0907 33.1524 32.0977 33.0047 32.3789C32.8289 32.7024 32.6883 32.836 32.3438 33.0188C32.1047 33.1453 31.6407 33.1524 18 33.1524C4.35941 33.1524 3.89535 33.1453 3.65628 33.0188C3.31175 32.836 3.17113 32.7024 2.99535 32.3789L2.84769 32.0977L2.8266 20.1235L2.81253 8.14925L7.85394 8.17034C12.8321 8.19143 12.9094 8.19143 13.268 8.33909C13.4719 8.42347 15.2508 9.52737 17.2266 10.786C19.1953 12.0516 21.0094 13.1766 21.2485 13.2891C21.4946 13.4016 21.9446 13.5633 22.2469 13.6407C22.7883 13.7742 23.0133 13.7813 28.9196 13.7813H35.0368L35.3391 13.6055C35.5219 13.5 35.7188 13.3032 35.8243 13.1203L36 12.818V8.19847C36 3.05862 36.0071 3.17815 35.5289 2.2219C35.1914 1.54691 34.4532 0.808624 33.7782 0.471123C32.7657 -0.0351257 34.0243 3.05176e-05 17.9578 0.007061C4.3805 0.007061 3.45238 0.0211258 3.05863 0.133625ZM32.3789 2.99534C32.7024 3.17112 32.836 3.31175 33.0188 3.65628C33.1453 3.88831 33.1524 4.14144 33.1735 7.43909L33.1946 10.9758L28.1461 10.9547L23.0977 10.9336L22.6758 10.7508C22.4438 10.6524 20.686 9.56253 18.7735 8.33206C16.861 7.10159 15.075 5.99066 14.8008 5.86409C14.5336 5.7305 14.0555 5.56175 13.7532 5.48441C13.2188 5.35081 12.9797 5.34378 7.99457 5.34378H2.79144L2.8266 4.61956C2.88988 3.50159 3.19222 3.04456 4.00785 2.87581C4.14144 2.84769 10.5188 2.83363 18.1758 2.84066L32.0977 2.84769L32.3789 2.99534Z" fill="white"/>
<path d="M22.8727 5.52656C22.4367 5.78672 22.2188 6.19453 22.2188 6.75C22.2188 7.61484 22.7602 8.15625 23.625 8.15625C24.4898 8.15625 25.0312 7.61484 25.0312 6.75C25.0312 5.88516 24.4898 5.34375 23.618 5.34375C23.2594 5.34375 23.1047 5.37891 22.8727 5.52656Z" fill="white"/>
<path d="M28.4977 5.52656C28.0617 5.78672 27.8438 6.19453 27.8438 6.75C27.8438 7.61484 28.3852 8.15625 29.25 8.15625C30.1148 8.15625 30.6562 7.61484 30.6562 6.75C30.6562 5.88516 30.1148 5.34375 29.243 5.34375C28.8844 5.34375 28.7297 5.37891 28.4977 5.52656Z" fill="white"/>
<path d="M11.2499 13.8867C9.11947 14.3227 7.28431 15.7359 6.32806 17.6766C5.864 18.6258 5.68822 19.3078 5.64603 20.3695C5.60384 21.1992 5.61088 21.2344 5.79369 21.5437C5.90619 21.7406 6.10306 21.9305 6.28588 22.043C6.56713 22.2047 6.6515 22.2188 7.50931 22.2188H8.43744V25.9594V29.693L8.61322 29.9953C8.71869 30.1781 8.91556 30.375 9.09838 30.4805L9.40072 30.6562H14.0624H18.7242L19.0265 30.4805C19.2093 30.375 19.4062 30.1781 19.5117 29.9953L19.6874 29.693V25.9594V22.2188H20.6156C21.4734 22.2188 21.5577 22.2047 21.839 22.043C22.0218 21.9375 22.2187 21.7406 22.3242 21.5578C22.4788 21.2977 22.4999 21.1781 22.4999 20.6227C22.4999 18.0703 20.9601 15.6445 18.6046 14.4844C17.3109 13.8516 17.1492 13.8305 14.2382 13.8094C12.3398 13.7953 11.5945 13.8164 11.2499 13.8867ZM16.4882 16.7625C16.7203 16.8258 17.114 16.9805 17.3671 17.107C17.9859 17.4094 18.8718 18.2953 19.1812 18.9141L19.4132 19.3711L18.5835 19.4062C17.6203 19.4484 17.346 19.568 17.0507 20.0672L16.8749 20.3695V24.1031V27.8438H14.0624H11.2499V24.1031V20.3695L11.0742 20.0672C10.7788 19.568 10.5046 19.4484 9.54134 19.4062L8.71166 19.3711L8.94369 18.9141C9.21791 18.3797 9.84369 17.6836 10.371 17.332C10.8773 17.0016 11.5734 16.7414 12.1921 16.6641C13.0148 16.5586 15.989 16.6289 16.4882 16.7625Z" fill="white"/>
<path d="M25.6852 18.1828C25.2492 18.4359 25.0312 18.8508 25.0312 19.3992C25.0312 19.6594 25.0734 19.9266 25.1437 20.0602C25.207 20.1867 25.6922 20.7211 26.2125 21.2484L27.1688 22.2188L26.2125 23.182C25.6922 23.7164 25.207 24.2508 25.1437 24.3773C25.0734 24.5109 25.0312 24.7781 25.0312 25.0383C25.0312 25.8961 25.5797 26.4375 26.4445 26.4375C26.8312 26.4375 26.9508 26.4023 27.218 26.2336C27.6187 25.9734 30.3961 23.168 30.5437 22.8727C30.6141 22.7391 30.6562 22.4719 30.6562 22.1977C30.6562 21.825 30.6211 21.7055 30.4523 21.4383C30.1922 21.0375 27.3867 18.2602 27.0914 18.1125C26.7328 17.9297 26.0437 17.9648 25.6852 18.1828Z" fill="white"/>
</g>
<defs>
<clipPath id="clip0_1024_261">
<rect width="36" height="36" fill="white"/>
</clipPath>
</defs>
</svg>
