<svg width="32" height="32" viewBox="0 0 32 32" fill="none" xmlns="http://www.w3.org/2000/svg">
<g clip-path="url(#clip0_792_1084)">
<path d="M5 0.09375C2.7 0.55625 0.78125 2.3625 0.175 4.625L0.03125 5.15625V13.5V21.8438L0.175 22.375C0.7 24.3375 2.2875 26.0437 4.1875 26.6875C5.09375 26.9938 5.20625 27 10.1312 27H14.75V28.25V29.5H12.675H10.6062L10.3375 29.6562C9.94375 29.8875 9.75 30.25 9.75 30.75C9.75 31.25 9.94375 31.6125 10.3375 31.8438L10.6062 32H16H21.3937L21.6625 31.8438C22.0562 31.6125 22.25 31.25 22.25 30.75C22.25 30.25 22.0562 29.8875 21.6625 29.6562L21.3937 29.5H19.325H17.25V27.425V25.3562L17.0937 25.0875C17.0062 24.9437 16.8312 24.7562 16.7062 24.675L16.4687 24.5312L11.0625 24.5L5.65625 24.4688L5.125 24.275C3.90625 23.8438 3.05625 22.9625 2.675 21.75L2.53125 21.2812V13.5V5.71875L2.675 5.25C2.86875 4.64375 3.11875 4.20625 3.54375 3.75C3.9875 3.26875 4.46875 2.95625 5.125 2.725L5.65625 2.53125H16H26.3437L26.8437 2.7C28.0812 3.125 29.0062 4.10625 29.3562 5.38125C29.4625 5.75625 29.4687 6.3 29.4687 13.5C29.4687 20.7 29.4625 21.2437 29.3562 21.6187C29.0062 22.8938 28.075 23.8812 26.8437 24.2937L26.3437 24.4625L23.4687 24.4875L20.5937 24.5062L20.3312 24.6625C19.9437 24.8875 19.75 25.25 19.75 25.75C19.75 26.25 19.9437 26.6125 20.3375 26.8438L20.6062 27H23.5437C25.8187 27 26.5937 26.9812 26.95 26.9125C29.45 26.4313 31.4312 24.45 31.9125 21.95C32.0437 21.2688 32.0437 5.73125 31.9125 5.05C31.4687 2.7375 29.7062 0.831249 27.4062 0.174999L26.9062 0.03125L16.1562 0.0187492C7.48125 0.0124989 5.325 0.0249996 5 0.09375Z" fill="white"/>
<path d="M13.5 6.09383C10.9813 6.60008 8.96875 8.68133 8.5625 11.1938C8.4875 11.6438 8.475 11.6688 8.24375 11.8001C7.89375 12.0063 7.21875 12.6563 6.9 13.1001C6.275 13.9688 6 14.8688 6 16.0001C6 16.9126 6.1375 17.5001 6.54375 18.3126C6.79375 18.8188 6.93125 18.9938 7.46875 19.5313C8.00625 20.0688 8.18125 20.2063 8.6875 20.4563C9.83125 21.0251 9.475 21.0001 16 21.0001C22.525 21.0001 22.1688 21.0251 23.3125 20.4563C23.8188 20.2063 23.9937 20.0688 24.5312 19.5313C25.0688 18.9938 25.2063 18.8188 25.4563 18.3126C25.8625 17.5001 26 16.9126 26 16.0001C26 15.0876 25.8625 14.5001 25.4563 13.6876C25.2063 13.1813 25.0688 13.0001 24.5312 12.4626C23.9875 11.9188 23.825 11.7938 23.3125 11.5376C22.6125 11.1938 21.8875 11.0001 21.3188 11.0001H20.9062L20.825 10.6501C20.3 8.41883 18.3 6.53758 15.95 6.08758C15.3813 5.98133 14.05 5.98133 13.5 6.09383ZM15.7812 8.70008C16.3438 8.86258 16.7937 9.11883 17.25 9.54383C17.9688 10.2063 18.3313 10.9563 18.4438 12.0188C18.525 12.7813 18.6813 13.1063 19.0875 13.3438C19.3313 13.4876 19.4187 13.5001 20.1 13.5001C21.0375 13.5001 21.625 13.5876 22.0438 13.7813C22.4813 13.9813 23.025 14.5313 23.2375 14.9813C23.3875 15.3063 23.4062 15.4188 23.4062 16.0001C23.4062 16.5813 23.3875 16.6938 23.2375 17.0188C23.025 17.4688 22.4813 18.0188 22.0438 18.2188C21.8625 18.3063 21.5188 18.4001 21.2812 18.4376C20.6938 18.5188 11.3063 18.5188 10.7188 18.4376C10.4813 18.4001 10.1375 18.3063 9.95625 18.2188C9.51875 18.0188 8.975 17.4688 8.7625 17.0188C8.6125 16.6938 8.59375 16.5813 8.59375 16.0001C8.59375 15.4001 8.6125 15.3126 8.775 14.9688C9.01875 14.4751 9.4625 14.0438 9.98125 13.7938C10.8875 13.3563 11 13.1876 11.0687 12.1313C11.1312 11.0626 11.3812 10.4626 12.0438 9.74383C13.0188 8.69383 14.4125 8.30008 15.7812 8.70008Z" fill="white"/>
</g>
<defs>
<clipPath id="clip0_792_1084">
<rect width="32" height="32" fill="white"/>
</clipPath>
</defs>
</svg>
