<svg width="36" height="36" viewBox="0 0 36 36" fill="none" xmlns="http://www.w3.org/2000/svg">
<path d="M8.15625 0.105488C5.56875 0.632832 3.41016 2.65783 2.72812 5.20314L2.56641 5.8008V18V30.1992L2.72812 30.7969C3.43125 33.4266 5.73047 35.5149 8.37422 35.9297C8.75391 35.986 11.4047 36 18.3164 35.986L27.7383 35.9649L28.3008 35.8031C30.8883 35.0649 32.8711 32.9203 33.3703 30.3188C33.518 29.5453 33.518 6.45471 33.3703 5.68127C32.8711 3.0797 30.8883 0.935173 28.3008 0.196892L27.7383 0.0351753L18.1758 0.0211105C10.4977 0.01408 8.52187 0.0281448 8.15625 0.105488ZM27.668 3.03752C29.0602 3.51564 30.1008 4.61955 30.4945 6.05392C30.6141 6.4758 30.6211 7.20705 30.6211 18C30.6211 28.793 30.6141 29.5242 30.4945 29.9461C30.1008 31.3805 29.0602 32.4844 27.668 32.9625L27.1055 33.1524H18H8.89453L8.29687 32.9344C6.92578 32.4492 5.96953 31.4578 5.54062 30.0938L5.37891 29.5664V18V6.43361L5.54062 5.90627C5.75859 5.22424 6.03984 4.73205 6.51797 4.21877C7.2 3.48049 8.12109 3.00236 9.07031 2.88283C9.32344 2.85471 13.4859 2.83361 18.3164 2.84064L27.1055 2.84768L27.668 3.03752Z" fill="white"/>
<path d="M8.81016 5.80781C8.37422 6.06797 8.15625 6.47578 8.15625 7.03125C8.15625 7.59375 8.37422 8.00156 8.81719 8.26172L9.11953 8.4375H12.375H15.6305L15.9328 8.26172C16.3758 8.00156 16.5938 7.59375 16.5938 7.03125C16.5938 6.46875 16.3758 6.06094 15.9328 5.80078L15.6305 5.625H12.368H9.10547L8.81016 5.80781Z" fill="white"/>
<path d="M11.2148 11.1023C9.77335 11.5242 8.63429 12.6844 8.26163 14.1117C8.09991 14.7305 8.10694 26.8875 8.26866 27.5133C8.64132 28.9617 9.85069 30.1711 11.2921 30.5437C11.6718 30.6422 12.5015 30.6562 17.9999 30.6562C24.9608 30.6562 24.6444 30.6773 25.6218 30.1851C26.2968 29.8476 27.0351 29.1094 27.3726 28.4344C27.8648 27.457 27.8437 27.7734 27.8437 20.8125C27.8437 13.8516 27.8648 14.168 27.3726 13.1906C27.0351 12.5156 26.2968 11.7773 25.6218 11.4398C24.6444 10.9476 24.9679 10.9687 17.9577 10.9758C12.1499 10.9758 11.6015 10.9898 11.2148 11.1023ZM13.7812 15.1875V16.5937H12.3679H10.9476L10.9827 15.7289C11.0108 15.0961 11.046 14.8078 11.1444 14.625C11.4749 13.9641 11.8546 13.8023 13.0991 13.7883L13.7812 13.7812V15.1875ZM24.2226 13.9641C24.8273 14.2875 24.9749 14.625 25.0171 15.7289L25.0523 16.5937H20.8194H16.5937V15.1875V13.7742L20.271 13.7953C23.871 13.8164 23.9483 13.8164 24.2226 13.9641ZM13.7812 20.8125V22.2187H12.3749H10.9687V20.8125V19.4062H12.3749H13.7812V20.8125ZM25.0312 20.8125V22.2187H20.8124H16.5937V20.8125V19.4062H20.8124H25.0312V20.8125ZM13.7812 26.4445V27.8648L12.9233 27.8297C12.2343 27.8016 12.0023 27.7664 11.7773 27.6539C11.1796 27.3445 11.0249 27.007 10.9827 25.8891L10.9476 25.0312H12.3679H13.7812V26.4445ZM25.0171 25.8891C24.9749 27 24.8273 27.3375 24.2226 27.6609C23.9483 27.8086 23.871 27.8086 20.271 27.8297L16.5937 27.8508V26.4375V25.0312H20.8194H25.0523L25.0171 25.8891Z" fill="white"/>
</svg>
