<svg width="36" height="36" viewBox="0 0 36 36" fill="none" xmlns="http://www.w3.org/2000/svg">
<g clip-path="url(#clip0_1024_252)">
<path d="M16.5657 1.23755C14.6602 1.65943 13.0571 2.7563 12.0446 4.33833C11.5875 5.04849 11.5735 5.6813 11.9953 6.23677C12.2836 6.61646 12.6633 6.77115 13.2258 6.73599C13.7883 6.70786 13.9782 6.59536 14.3438 6.07505C14.4774 5.88521 14.8289 5.49146 15.1172 5.20318C15.9328 4.38052 16.8469 4.00083 18 4.00083C19.1602 4.00083 20.0532 4.37349 20.8828 5.20318C21.1711 5.49146 21.5227 5.88521 21.6563 6.07505C22.0219 6.59536 22.2118 6.70786 22.7743 6.73599C23.3368 6.77115 23.7164 6.61646 24.0047 6.23677C24.4266 5.6813 24.4125 5.04849 23.9555 4.33833C23.0414 2.91802 21.6211 1.86333 19.9336 1.36411C19.3852 1.2024 19.1461 1.17427 18.1758 1.15318C17.3461 1.13208 16.9243 1.16021 16.5657 1.23755Z" fill="white"/>
<path d="M3.05864 9.69612C1.61724 10.118 0.478174 11.2782 0.105518 12.7055C-0.0491699 13.2961 -0.0491699 17.093 0.105518 17.6766C0.393799 18.7805 1.25161 19.8422 2.26411 20.3625L2.81255 20.6367V25.9735C2.81255 31.8867 2.79849 31.6899 3.28364 32.6532C3.61411 33.3071 4.35239 34.0524 5.02739 34.3969C6.0188 34.9102 5.09067 34.875 18.0001 34.875C30.8954 34.875 29.9602 34.9102 30.9657 34.4039C31.6407 34.0664 32.379 33.3282 32.7165 32.6532C33.1805 31.725 33.1876 31.6758 33.1876 27.9422V24.5883L33.0118 24.286C32.4985 23.4141 31.1063 23.386 30.5719 24.2367L30.4102 24.5039L30.3751 27.7383C30.3399 30.7266 30.3329 30.9938 30.2063 31.2188C30.0235 31.5633 29.8899 31.7039 29.5665 31.8797L29.2852 32.0274H18.0001C7.10864 32.0274 6.70786 32.0203 6.4688 31.8938C6.12427 31.711 5.98364 31.5774 5.80786 31.2539C5.66021 30.9727 5.66021 30.9305 5.63911 25.8891L5.61802 20.8125H9.70317H13.7813V21.8391C13.7813 22.5422 13.8165 22.9992 13.8938 23.2946C14.2665 24.743 15.4758 25.9524 16.9172 26.325C17.4727 26.4657 18.5204 26.4727 19.0758 26.325C20.5383 25.9453 21.7266 24.7571 22.1063 23.2946C22.1836 22.9992 22.2188 22.5422 22.2188 21.8391V20.8125H27.3235C31.7532 20.8125 32.4844 20.7985 32.8641 20.7C34.3055 20.3274 35.5149 19.118 35.8876 17.6696C36.0493 17.0508 36.0493 13.3242 35.8876 12.7055C35.5079 11.243 34.3196 10.0547 32.8571 9.67503C32.4774 9.57659 30.8883 9.56253 17.9579 9.56956C4.38052 9.56956 3.45239 9.58362 3.05864 9.69612ZM32.379 12.5578C32.7024 12.7336 32.836 12.8742 33.0188 13.2188C33.1383 13.4367 33.1524 13.6407 33.1524 15.1875C33.1524 16.7344 33.1383 16.9383 33.0188 17.1563C32.836 17.5008 32.7024 17.6414 32.379 17.8172C32.0977 17.9649 32.0555 17.9649 27.0704 17.986L22.043 18.0071L21.7688 17.4657C21.2907 16.5235 20.454 15.7852 19.4415 15.3985C18.9211 15.2016 17.6907 15.1242 17.0649 15.2578C15.9329 15.4899 14.7024 16.4532 14.2032 17.4938L13.9641 18.0071L8.92974 17.986C3.94458 17.9649 3.90239 17.9649 3.62114 17.8172C3.29771 17.6414 3.16411 17.5008 2.9813 17.1563C2.86177 16.9383 2.84771 16.7344 2.84771 15.1875C2.84771 13.6407 2.86177 13.4367 2.9813 13.2188C3.22739 12.7547 3.50864 12.5438 4.00786 12.4383C4.14146 12.4102 10.5188 12.3961 18.1758 12.4032L32.0977 12.4102L32.379 12.5578ZM18.6188 18.2039C18.9141 18.3586 19.0547 18.4992 19.2376 18.8438C19.3571 19.0617 19.3711 19.2657 19.3711 20.8125C19.3711 22.3594 19.3571 22.5633 19.2376 22.7813C18.9563 23.3086 18.5626 23.5547 18.0001 23.5547C17.4446 23.5547 17.0438 23.3157 16.7766 22.8164C16.636 22.5492 16.629 22.4367 16.629 20.8125C16.629 19.1883 16.636 19.0758 16.7766 18.8086C16.9454 18.4922 17.093 18.3516 17.4024 18.1899C17.6977 18.0352 18.2954 18.0422 18.6188 18.2039Z" fill="white"/>
</g>
<defs>
<clipPath id="clip0_1024_252">
<rect width="36" height="36" fill="white"/>
</clipPath>
</defs>
</svg>
