<svg width="24" height="24" viewBox="0 0 24 24" fill="none" xmlns="http://www.w3.org/2000/svg">
<g clip-path="url(#clip0_1041_350)">
<path d="M0.43592 0.121815C0.32342 0.187441 0.182795 0.328066 0.11717 0.440565L-1.76461e-05 0.642128V11.1281C-1.76461e-05 22.7765 -0.0234551 21.8437 0.314045 22.5187C0.534357 22.9546 1.02654 23.4515 1.47654 23.6812C2.14217 24.0281 1.20936 23.9999 12.8719 23.9999H23.3578L23.5594 23.8828C24.1406 23.5406 24.1594 22.6124 23.5922 22.2562L23.414 22.1484L13.0078 22.1249C2.9578 22.1015 2.59686 22.0968 2.43748 22.0124C2.20779 21.8906 2.11404 21.8015 1.99686 21.5859L1.89842 21.3984L1.87498 10.9921L1.85154 0.585878L1.74373 0.407753C1.49061 0.00462723 0.862482 -0.135998 0.43592 0.121815Z" fill="white"/>
<path d="M4.18594 0.121875C3.89531 0.295312 3.75 0.567187 3.75 0.9375C3.75 1.3125 3.89531 1.58437 4.19063 1.75781L4.39219 1.875H5.625H6.85781L7.05938 1.75781C7.35469 1.58437 7.5 1.3125 7.5 0.9375C7.5 0.5625 7.35469 0.290625 7.05938 0.117187L6.85781 -1.19209e-07H5.62031H4.38281L4.18594 0.121875Z" fill="white"/>
<path d="M16.664 3.46397C15.7031 3.74522 14.9437 4.51865 14.6953 5.47022C14.6343 5.6999 14.6249 6.58584 14.6249 11.803C14.6249 18.5343 14.6062 18.1077 14.939 18.7687C15.2624 19.4108 15.989 19.9874 16.7156 20.1749C17.1421 20.2874 21.4781 20.2874 21.9046 20.1749C22.8796 19.9218 23.6718 19.1296 23.9249 18.1546C23.9906 17.9015 23.9999 17.1655 23.9999 11.8124C23.9999 5.09053 24.0187 5.51709 23.6859 4.85615C23.4609 4.40615 22.9687 3.91397 22.5187 3.68897C21.8953 3.3749 21.8812 3.3749 19.2843 3.37959C17.2031 3.37959 16.9124 3.38897 16.664 3.46397ZM21.5859 5.37178C21.8015 5.48897 21.8906 5.58272 22.0124 5.8124C22.0968 5.97178 22.1015 6.20147 22.1015 11.8124V17.6483L22.0031 17.8358C21.8859 18.0515 21.7921 18.1405 21.5624 18.2624C21.4078 18.3468 21.2624 18.3515 19.3124 18.3515C17.3624 18.3515 17.2171 18.3468 17.0624 18.2624C16.8328 18.1405 16.739 18.0515 16.6218 17.8358L16.5234 17.6483V11.8124C16.5234 6.20147 16.5281 5.97178 16.6124 5.8124C16.7765 5.50772 16.964 5.3624 17.2968 5.29209C17.3859 5.27334 18.3468 5.25928 19.4296 5.26397C21.3468 5.27334 21.4031 5.27803 21.5859 5.37178Z" fill="white"/>
<path d="M4.18594 3.87187C3.89531 4.04531 3.75 4.31719 3.75 4.6875C3.75 5.0625 3.89531 5.33437 4.19063 5.50781L4.39219 5.625H5.625H6.85781L7.05938 5.50781C7.35469 5.33437 7.5 5.0625 7.5 4.6875C7.5 4.3125 7.35469 4.04062 7.05938 3.86719L6.85781 3.75H5.62031H4.38281L4.18594 3.87187Z" fill="white"/>
<path d="M5.789 10.964C4.82807 11.2452 4.06869 12.0187 3.82025 12.9702C3.71244 13.378 3.71713 17.7421 3.82494 18.1546C4.07338 19.1202 4.87963 19.9265 5.84057 20.1749C6.26713 20.2874 10.6031 20.2874 11.0296 20.1749C12.0046 19.9218 12.7968 19.1296 13.0499 18.1546C13.1624 17.7327 13.1624 13.3921 13.0499 12.9702C12.7968 11.9952 12.0046 11.203 11.0296 10.9499C10.7859 10.8843 10.3874 10.8749 8.40932 10.8796C6.32807 10.8796 6.03744 10.889 5.789 10.964ZM10.7109 12.8718C10.9265 12.989 11.0156 13.0827 11.1374 13.3124C11.2218 13.4671 11.2265 13.6124 11.2265 15.5624C11.2265 17.5124 11.2218 17.6577 11.1374 17.8124C11.0156 18.0421 10.9265 18.1358 10.7109 18.253C10.5281 18.3515 10.4812 18.3515 8.43744 18.3515C6.48744 18.3515 6.34213 18.3468 6.18744 18.2624C5.95775 18.1405 5.864 18.0515 5.74682 17.8358C5.64838 17.653 5.64838 17.6062 5.64838 15.5624C5.64838 13.6124 5.65307 13.4671 5.73744 13.3124C5.9015 13.0077 6.089 12.8624 6.42182 12.7921C6.51088 12.7733 7.47182 12.7593 8.55463 12.764C10.4718 12.7733 10.5281 12.778 10.7109 12.8718Z" fill="white"/>
</g>
<defs>
<clipPath id="clip0_1041_350">
<rect width="24" height="24" fill="white"/>
</clipPath>
</defs>
</svg>
