<svg width="36" height="36" viewBox="0 0 36 36" fill="none" xmlns="http://www.w3.org/2000/svg">
<g clip-path="url(#clip0_792_1066)">
<path d="M6.75001 2.67188C5.18907 3.07969 3.83204 4.16953 3.12891 5.58984C2.50313 6.84844 2.53126 6.39141 2.53126 14.2945V21.2555L2.70704 21.5578C2.9672 22.0008 3.37501 22.2188 3.93751 22.2188C4.50001 22.2188 4.90782 22.0008 5.16798 21.5578L5.34376 21.2555V14.7937C5.34376 10.8352 5.37188 8.14219 5.41407 7.83984C5.51251 7.17187 5.7586 6.67969 6.21563 6.21562C6.6797 5.75859 7.17188 5.5125 7.83985 5.41406C8.50782 5.32265 27.4922 5.32265 28.1602 5.41406C28.8281 5.5125 29.3203 5.75859 29.7844 6.21562C30.2414 6.67969 30.4875 7.17187 30.5859 7.83984C30.6281 8.14219 30.6563 10.8352 30.6563 14.7937V21.2555L30.832 21.5578C31.0922 22.0008 31.5 22.2188 32.0625 22.2188C32.625 22.2188 33.0328 22.0008 33.293 21.5578L33.4688 21.2555V14.2945C33.4688 6.39141 33.4969 6.84844 32.8781 5.58984C32.168 4.1625 30.7969 3.06562 29.2219 2.67188C28.6805 2.53125 28.4203 2.53125 17.9719 2.53828C7.63595 2.53828 7.25626 2.54531 6.75001 2.67188Z" fill="white"/>
<path d="M18.6258 8.35313C18.4289 8.47969 18.2531 8.66953 18.1547 8.86641C17.9156 9.3375 15.1875 20.3625 15.1875 20.8617C15.1875 21.6773 15.75 22.2188 16.6008 22.2188C17.1844 22.2188 17.6063 21.9797 17.8453 21.5086C18.0844 21.0375 20.8125 10.0125 20.8125 9.51328C20.8125 8.69766 20.25 8.15625 19.3992 8.15625C19.0195 8.15625 18.8859 8.19141 18.6258 8.35313Z" fill="white"/>
<path d="M11.7773 9.90714C11.6016 9.99152 11.0109 10.5329 10.1602 11.3978C8.73282 12.8532 8.50782 13.1767 8.26172 14.1118C8.12813 14.6251 8.12813 15.7501 8.26172 16.2634C8.50782 17.1985 8.73282 17.522 10.1602 18.9775C11.0109 19.8423 11.6016 20.3837 11.7773 20.4681C12.375 20.7423 13.0992 20.5595 13.5281 20.0251C13.6828 19.8212 13.7391 19.6665 13.7672 19.3782C13.8305 18.6048 13.8164 18.5767 12.4805 17.2267C11.8125 16.5517 11.2148 15.8978 11.1516 15.7712C11.0039 15.4829 11.0039 14.8923 11.1516 14.604C11.2148 14.4775 11.8125 13.8235 12.4805 13.1485C13.8164 11.7985 13.8305 11.7704 13.7672 10.997C13.6898 10.0829 12.6422 9.50636 11.7773 9.90714Z" fill="white"/>
<path d="M23.0273 9.90705C22.6969 10.0617 22.4016 10.3571 22.2961 10.6383C22.1976 10.8914 22.1976 11.5383 22.2961 11.7914C22.3383 11.8969 22.9008 12.5227 23.5547 13.1836C24.2016 13.8375 24.7851 14.4774 24.8484 14.6039C24.9961 14.8922 24.9961 15.4828 24.8484 15.7711C24.7851 15.8977 24.1875 16.5516 23.5195 17.2266C22.1836 18.5766 22.1695 18.6047 22.2328 19.3781C22.3101 20.2922 23.3578 20.8688 24.2226 20.468C24.3984 20.3836 24.9891 19.8422 25.8398 18.9774C27.2672 17.5219 27.4922 17.1985 27.7383 16.2633C27.8719 15.75 27.8719 14.625 27.7383 14.1117C27.4922 13.1766 27.2672 12.8531 25.8398 11.3977C24.9891 10.5328 24.3984 9.99143 24.2226 9.90705C23.8641 9.7383 23.3859 9.7383 23.0273 9.90705Z" fill="white"/>
<path d="M3.05859 25.1648C1.61719 25.5867 0.478124 26.7469 0.105468 28.1742C-0.0351575 28.7016 -0.0281263 29.7844 0.112499 30.3258C0.485155 31.7742 1.69453 32.9836 3.13594 33.3562C3.52969 33.4547 5.05547 33.4688 18 33.4688C30.8812 33.4688 32.4773 33.4547 32.857 33.3562C34.3195 32.9766 35.5078 31.7883 35.8875 30.3258C35.9508 30.0867 36 29.6086 36 29.25C36 28.8914 35.9508 28.4133 35.8875 28.1742C35.5078 26.7117 34.3195 25.5234 32.857 25.1437C32.4773 25.0453 30.8883 25.0312 17.9578 25.0383C4.38047 25.0383 3.45234 25.0523 3.05859 25.1648ZM32.3789 28.0266C32.8781 28.2937 33.1172 28.6945 33.1172 29.25C33.1172 29.8055 32.8781 30.2062 32.3789 30.4734L32.0977 30.6211H18H3.90234L3.62109 30.4734C3.12187 30.2062 2.88281 29.8055 2.88281 29.25C2.88281 28.5539 3.29766 28.0547 4.00781 27.907C4.14141 27.8789 10.5187 27.8648 18.1758 27.8719L32.0977 27.8789L32.3789 28.0266Z" fill="white"/>
</g>
<defs>
<clipPath id="clip0_792_1066">
<rect width="36" height="36" fill="white"/>
</clipPath>
</defs>
</svg>
