<svg width="24" height="24" viewBox="0 0 24 24" fill="none" xmlns="http://www.w3.org/2000/svg">
<path d="M3.00091 1.58906C2.32941 1.80937 1.75516 2.40468 1.55603 3.08906C1.4912 3.31875 1.48193 4.07343 1.48193 10.1297C1.48193 16.6547 1.48656 16.9266 1.56992 17.1984C1.78295 17.8875 2.36646 18.4734 3.05185 18.675C3.26951 18.7406 3.64925 18.75 5.6869 18.75H8.06725L8.03946 18.9609C7.95147 19.5375 7.57173 20.3484 7.14105 20.8734C6.68257 21.4312 6.66868 21.4547 6.66868 21.7453C6.66868 22.0547 6.77519 22.2656 7.00211 22.4062C7.15031 22.5 7.24756 22.5 11.8554 22.5C16.4633 22.5 16.5605 22.5 16.7087 22.4062C16.9357 22.2656 17.0422 22.0547 17.0422 21.7453C17.0422 21.4547 17.0283 21.4312 16.5698 20.8734C16.1391 20.3484 15.7594 19.5375 15.6714 18.9609L15.6436 18.75H18.0286C20.2422 18.75 20.4367 18.7453 20.6961 18.6609C21.3768 18.4453 21.9557 17.8547 22.1548 17.1609C22.2197 16.9312 22.2289 16.1766 22.2289 10.125C22.2289 4.07343 22.2197 3.31875 22.1548 3.08906C21.9557 2.39531 21.3768 1.80468 20.6961 1.58906C20.4228 1.50468 20.1311 1.5 11.8415 1.50468C3.65388 1.50468 3.25098 1.50937 3.00091 1.58906ZM20.1172 3.04687C20.3441 3.09843 20.5108 3.22031 20.6312 3.42656C20.7238 3.58125 20.7238 3.68437 20.7377 8.54062L20.747 13.5H11.8554H2.96386L2.97312 8.54062C2.98702 3.68437 2.98702 3.58125 3.07964 3.42656C3.19541 3.22968 3.36676 3.09375 3.57053 3.04687C3.79281 2.99531 19.8949 2.99062 20.1172 3.04687ZM20.7377 15.8297C20.7238 16.5609 20.7146 16.6828 20.6312 16.8234C20.5108 17.0297 20.3441 17.1516 20.1172 17.2031C19.8764 17.2641 3.83449 17.2641 3.59368 17.2031C3.36676 17.1516 3.20004 17.0297 3.07964 16.8234C2.99628 16.6828 2.98702 16.5609 2.97312 15.8297L2.9546 15H11.8554H20.7563L20.7377 15.8297ZM14.0783 18.7687C14.0783 18.7781 14.1107 18.9609 14.1478 19.1812C14.2265 19.6312 14.3932 20.1703 14.6155 20.6578L14.7683 21H11.8554H8.94251L9.09997 20.6531C9.28984 20.2312 9.46582 19.6734 9.53992 19.2656C9.5677 19.0969 9.60012 18.9141 9.61401 18.8531L9.63254 18.75H11.8554C13.078 18.75 14.0783 18.7594 14.0783 18.7687Z" fill="white"/>
<path d="M5.33496 5.34844C5.00615 5.47969 4.66809 5.82188 4.54305 6.16406C4.45043 6.4125 4.4458 6.51563 4.4458 8.25C4.4458 9.98438 4.45043 10.0875 4.54305 10.3359C4.67272 10.6828 5.00615 11.0203 5.34885 11.1516C5.5804 11.2406 5.70544 11.25 6.63628 11.25C7.78477 11.25 7.86813 11.2313 8.058 10.9125C8.18304 10.7016 8.18304 10.2984 8.058 10.0875C7.87276 9.77813 7.76625 9.75 6.79836 9.75H5.92773V8.25V6.75H6.79836C7.581 6.75 7.67826 6.74063 7.81719 6.65625C8.03948 6.51563 8.15062 6.30469 8.15062 6C8.15062 5.69531 8.03948 5.48438 7.81719 5.34375C7.67826 5.25938 7.581 5.25 6.62238 5.25469C5.69155 5.25469 5.55262 5.26406 5.33496 5.34844Z" fill="white"/>
<path d="M9.22504 5.34375C9.14168 5.39531 9.03516 5.50313 8.98422 5.5875C8.89623 5.7375 8.8916 5.83125 8.8916 8.25C8.8916 10.6688 8.89623 10.7625 8.98422 10.9125C9.12315 11.1375 9.33155 11.25 9.63257 11.25C9.93358 11.25 10.142 11.1375 10.2809 10.9125C10.3643 10.7766 10.3735 10.6734 10.3735 10.0547V9.35625L11.2905 10.275C12.0685 11.0625 12.2306 11.1984 12.3788 11.2266C12.9299 11.3297 13.3374 11.0203 13.3374 10.5047C13.3374 10.1906 13.2401 10.0406 12.6751 9.47344L12.1379 8.93906L12.4019 8.77969C12.7354 8.58281 13.0178 8.27344 13.1846 7.93125C13.305 7.6875 13.3142 7.62188 13.3142 7.125C13.3142 6.62344 13.305 6.56719 13.1799 6.30469C13.004 5.94375 12.652 5.5875 12.2954 5.40938L12.0175 5.27344L10.6977 5.25938C9.44269 5.25 9.3686 5.25 9.22504 5.34375ZM11.6008 6.81563C11.7721 6.89063 11.8416 7.04063 11.7906 7.24688C11.7397 7.43438 11.522 7.5 10.9061 7.5H10.3735V7.125V6.75H10.9061C11.2673 6.75 11.4942 6.77344 11.6008 6.81563Z" fill="white"/>
<path d="M14.4118 5.34395C14.3284 5.39552 14.2219 5.50333 14.171 5.5877C14.083 5.7377 14.0784 5.83145 14.0784 8.2502C14.0784 10.669 14.083 10.7627 14.171 10.9127C14.4396 11.358 15.1713 11.3768 15.4538 10.9361C15.5279 10.8236 15.5418 10.6596 15.5603 9.47833L15.5835 8.14239L15.8706 8.49395C16.1855 8.87833 16.3754 9.0002 16.6717 9.0002C16.9681 9.0002 17.158 8.87833 17.4729 8.49395L17.76 8.14239L17.7832 9.47833C17.8017 10.6596 17.8156 10.8236 17.8897 10.9361C18.024 11.1471 18.237 11.2502 18.5242 11.2502C18.8252 11.2502 19.0336 11.1377 19.1725 10.9127C19.2605 10.7627 19.2651 10.669 19.2651 8.2502C19.2651 5.83145 19.2605 5.7377 19.1725 5.5877C19.0382 5.3627 18.8252 5.2502 18.5334 5.2502C18.3991 5.2502 18.2278 5.28302 18.1583 5.32052C18.0842 5.35802 17.7276 5.74708 17.3664 6.1877C17.0052 6.62364 16.6949 6.98458 16.6717 6.98458C16.6486 6.98458 16.3383 6.62364 15.9771 6.1877C15.6159 5.74708 15.2593 5.35802 15.1852 5.32052C14.9953 5.21739 14.597 5.23145 14.4118 5.34395Z" fill="white"/>
</svg>
