<svg width="32" height="32" viewBox="0 0 32 32" fill="none" xmlns="http://www.w3.org/2000/svg">
<g clip-path="url(#clip0_792_1078)">
<path d="M26.65 0.0999994C26.5437 0.15 25.6687 0.9875 24.7125 1.95625C23.1687 3.5125 22.9375 3.76875 22.7625 4.14375C22.4687 4.75 22.3687 5.2 22.3687 5.875C22.3687 6.975 22.6937 7.75625 23.4687 8.53125C24.2437 9.3125 25.0125 9.625 26.125 9.625C26.8125 9.625 27.2562 9.525 27.8562 9.2375C28.2312 9.0625 28.4875 8.83125 30.0437 7.2875C31.0125 6.33125 31.85 5.45 31.9062 5.3375C32.1312 4.8625 31.975 4.1375 31.5625 3.79375C31.2687 3.54375 31 3.5 29.7062 3.5H28.5V2.29375C28.5 1.6375 28.4687 0.9875 28.4375 0.8625C28.35 0.5625 28.1062 0.275 27.8062 0.125C27.5125 -0.0250006 26.9312 -0.0375004 26.65 0.0999994ZM26.1625 5.5125C26.4187 5.875 26.7937 6.0625 27.275 6.0625H27.65L27.2812 6.44375C26.8187 6.9125 26.5375 7.0625 26.125 7.0625C25.4312 7.0625 24.9375 6.56875 24.9375 5.875C24.9375 5.4625 25.05 5.24375 25.525 4.7625L25.9062 4.36875L25.9437 4.8125C25.9687 5.1625 26.0125 5.30625 26.1625 5.5125Z" fill="white"/>
<path d="M11.875 4.59385C10.4625 4.7876 9.08749 5.20635 7.71874 5.86885C3.51874 7.9001 0.631244 11.9563 0.0624939 16.6251C-0.0187561 17.3063 -0.0187561 19.1938 0.0624939 19.8751C0.368744 22.3876 1.40624 24.8813 2.96874 26.8438C3.44374 27.4438 4.55624 28.5563 5.14374 29.0188C6.81874 30.3438 8.86249 31.3063 10.8562 31.7188C12.025 31.9626 12.7125 32.0188 14.15 31.9813C15.225 31.9563 15.6312 31.9251 16.325 31.7876C20.9687 30.9001 24.825 27.7001 26.5812 23.2813C27.2125 21.6876 27.5062 20.1063 27.5062 18.2313C27.5062 16.5938 27.2625 15.1126 26.75 13.6563C26.5125 12.9876 26.3375 12.7313 25.9812 12.5501C25.3687 12.2376 24.5812 12.4688 24.2687 13.0563C24.0625 13.4563 24.0812 13.8063 24.3687 14.6751C25.6875 18.6313 24.75 22.9063 21.8937 25.9438C18.5437 29.5001 13.225 30.4688 8.84374 28.3188C5.66874 26.7563 3.49999 23.9438 2.74374 20.4063C2.61249 19.7938 2.59374 19.5563 2.59374 18.2501C2.59374 16.9438 2.61249 16.7063 2.74374 16.0938C2.95624 15.1001 3.26249 14.2001 3.68124 13.3438C6.18124 8.2626 11.9625 5.8376 17.325 7.63135C18.3562 7.9751 18.7875 7.9501 19.2062 7.5251C19.4812 7.2501 19.5812 7.00635 19.5812 6.6251C19.5812 6.2126 19.4062 5.8251 19.1125 5.60635C18.6812 5.28135 16.875 4.7626 15.575 4.59385C14.7125 4.48135 12.7125 4.48135 11.875 4.59385Z" fill="white"/>
<path d="M12.2812 9.60002C10.5375 9.89377 8.95625 10.6938 7.65625 11.95C6.60625 12.9563 5.85 14.1563 5.40625 15.525C5.08125 16.525 5.03125 16.9063 5.03125 18.25C5.03125 19.5938 5.08125 19.975 5.40625 20.975C6.35 23.875 8.6875 26.0313 11.7125 26.7875C12.5938 27.0125 14.1625 27.0625 15.1562 26.9063C17.0188 26.6125 18.725 25.725 20.05 24.3438C21.6625 22.675 22.5 20.6063 22.5 18.3125C22.5 17.6875 22.475 17.4813 22.3813 17.2813C21.9688 16.3625 20.625 16.3188 20.125 17.2C19.9938 17.4313 19.9688 17.5813 19.9313 18.4063C19.8562 19.9188 19.525 20.8813 18.6938 21.9875C17.8562 23.0875 16.7188 23.8625 15.3438 24.2625C14.9062 24.3875 14.7125 24.4063 13.75 24.4C12.5 24.4 12.075 24.3125 11.1625 23.8875C10.4437 23.55 9.925 23.1875 9.36875 22.6313C8.8125 22.075 8.45 21.5563 8.1125 20.8375C7.6875 19.9188 7.6 19.5 7.6 18.25C7.6 17 7.6875 16.5813 8.1125 15.6625C8.45 14.9438 8.8125 14.425 9.36875 13.8688C9.925 13.3188 10.4437 12.95 11.15 12.6188C11.9313 12.2563 12.5188 12.125 13.5938 12.0688C14.6 12.0188 14.8063 11.9563 15.1062 11.6375C15.5437 11.1625 15.5437 10.3563 15.1062 9.88127C14.8188 9.57502 14.5437 9.50002 13.625 9.50627C13.1625 9.51252 12.5563 9.55002 12.2812 9.60002Z" fill="white"/>
<path d="M20.5312 9.93125C20.4312 9.95625 20.275 10.0125 20.1875 10.0563C20.1 10.1 18.975 11.1938 17.6875 12.475L15.3437 14.8125L15 14.675C14.5187 14.4938 13.3812 14.4438 12.8125 14.5875C12.1125 14.7688 11.6437 15.0438 11.0937 15.5938C10.3125 16.3688 10 17.1375 10 18.25C10 19.3625 10.3125 20.1313 11.0937 20.9063C11.8625 21.675 12.65 22 13.75 22C14.85 22 15.6375 21.675 16.4062 20.9063C16.9562 20.3563 17.2312 19.8875 17.4125 19.1875C17.5562 18.6188 17.5062 17.4813 17.325 17L17.1875 16.6563L19.525 14.3125C20.8125 13.025 21.9 11.8813 21.9562 11.7813C22.2125 11.2563 22.125 10.6813 21.7187 10.2813C21.3812 9.94375 20.9812 9.825 20.5312 9.93125ZM14.3 17.1813C14.7187 17.3938 14.9375 17.7625 14.9375 18.25C14.9375 18.9438 14.4437 19.4375 13.75 19.4375C13.0562 19.4375 12.5625 18.9438 12.5625 18.25C12.5625 17.5563 13.0437 17.0688 13.7375 17.0625C13.9437 17.0625 14.1562 17.1063 14.3 17.1813Z" fill="white"/>
</g>
<defs>
<clipPath id="clip0_792_1078">
<rect width="32" height="32" fill="white"/>
</clipPath>
</defs>
</svg>
