<svg width="16" height="16" viewBox="0 0 16 16" fill="none" xmlns="http://www.w3.org/2000/svg">
<g clip-path="url(#clip0_1152_1520)">
<path d="M8 16C3.58545 16 0 12.4145 0 8C0 3.58545 3.58545 0 8 0C12.4145 0 16 3.58545 16 8C16 12.4145 12.4145 16 8 16ZM8 1.45455C4.39273 1.45455 1.45455 4.39273 1.45455 8C1.45455 11.6073 4.39273 14.5455 8 14.5455C11.6073 14.5455 14.5455 11.6073 14.5455 8C14.5455 4.39273 11.6073 1.45455 8 1.45455Z" fill="#8598B1"/>
<path d="M10.9088 10.1818C10.7997 10.1818 10.6906 10.16 10.5816 10.1018L7.67246 8.6473C7.42519 8.53094 7.27246 8.27639 7.27246 8.00003V3.63639C7.27246 3.23639 7.59973 2.90912 7.99973 2.90912C8.39973 2.90912 8.72701 3.23639 8.72701 3.63639V7.54912L11.2361 8.80003C11.5925 8.98185 11.7379 9.41821 11.5634 9.77457C11.4325 10.0364 11.1779 10.1818 10.9088 10.1818Z" fill="#8598B1"/>
</g>
<defs>
<clipPath id="clip0_1152_1520">
<rect width="16" height="16" fill="white"/>
</clipPath>
</defs>
</svg>
