<svg width="16" height="16" viewBox="0 0 16 16" fill="none" xmlns="http://www.w3.org/2000/svg">
<path d="M7.99994 14C2.99994 14 0.199935 8.53333 0.0666016 8.26667C-6.51032e-05 8.06667 -6.51032e-05 7.86667 0.0666016 7.66667C0.199935 7.46667 2.99994 2 7.99994 2C12.9999 2 15.7999 7.46667 15.9333 7.73333C15.9999 7.93333 15.9999 8.13333 15.9333 8.33333C15.7999 8.53333 12.9999 14 7.99994 14ZM1.39993 8C1.99993 9.06667 4.39994 12.6667 7.99994 12.6667C11.5999 12.6667 13.9333 9.06667 14.5999 8C13.9999 6.93333 11.5999 3.33333 7.99994 3.33333C4.39994 3.33333 2.0666 6.93333 1.39993 8Z" fill="#8598B1"/>
<path d="M7.99967 10.6666C6.53301 10.6666 5.33301 9.46665 5.33301 7.99998C5.33301 6.53331 6.53301 5.33331 7.99967 5.33331C9.46634 5.33331 10.6663 6.53331 10.6663 7.99998C10.6663 9.46665 9.46634 10.6666 7.99967 10.6666ZM7.99967 6.66665C7.26634 6.66665 6.66634 7.26665 6.66634 7.99998C6.66634 8.73331 7.26634 9.33331 7.99967 9.33331C8.73301 9.33331 9.33301 8.73331 9.33301 7.99998C9.33301 7.26665 8.73301 6.66665 7.99967 6.66665Z" fill="#8598B1"/>
</svg>
