<svg width="30" height="18" viewBox="0 0 30 18" fill="none" xmlns="http://www.w3.org/2000/svg">
<g clip-path="url(#clip0_841_312)">
<path d="M0.287183 2.59314C0.0349052 1.93782 -0.287449 1.25461 0.476391 0.885125C2.02509 0.86421 3.5738 0.843296 5.12951 0.822382C5.80225 0.843296 6.11059 1.33827 6.46798 2.02845C7.51213 4.02926 8.59832 6.0231 9.90877 7.8566C10.3362 8.45615 11.058 8.68621 11.6257 7.73111C11.6887 6.44139 11.7518 5.15167 11.8149 3.86194C11.6046 2.36308 11.0791 1.4777 10.161 1.38707C9.63547 0.878153 10.0139 0.459865 11.1912 0.236778C13.0622 -0.160596 14.695 0.0206621 16.1316 0.20192C17.3439 0.278607 17.5191 1.09427 17.4981 2.02845C17.4561 3.73646 17.421 5.45144 17.421 7.15945C17.7784 8.89535 18.7315 8.1982 19.3622 7.44528C20.4904 5.84882 21.4715 4.29418 22.2914 2.54434C23.1393 0.745695 23.3706 0.878154 23.9662 0.871182C25.3888 0.864211 26.9585 0.794496 28.0938 0.836325C30.4624 0.696895 30.1891 1.74262 29.5233 2.85108C28.3741 4.78218 26.8955 6.52505 25.578 8.36552C24.7791 9.4461 24.7931 10.1223 25.6411 10.7079C26.8955 12.0813 28.2549 13.3641 29.3972 14.8281C30.6376 16.4245 29.7266 16.8637 28.5703 16.9823C27.1898 16.9823 25.8093 16.9823 24.4287 16.9823C23.2514 17.0032 22.1863 16.7104 21.4364 15.4625C19.7055 13.1828 18.4161 12.5554 17.8976 13.8381C17.6733 14.4028 17.4841 15.1627 17.4911 15.9017C17.4981 16.9335 16.8744 17.0171 16.0265 17.045C15.1155 17.045 14.1695 17.2681 13.2865 17.045C10.161 16.2572 7.16175 14.8072 4.23953 9.82256C2.92208 7.66837 1.60463 5.31201 0.287183 2.59314Z" fill="#0C3264"/>
</g>
<defs>
<clipPath id="clip0_841_312">
<rect width="30" height="17.1429" fill="white"/>
</clipPath>
</defs>
</svg>
