<svg width="30" height="30" viewBox="0 0 30 30" fill="none" xmlns="http://www.w3.org/2000/svg">
<path d="M28.75 12.125C28.75 10.375 28.375 8.5 27.625 7C27.125 6.375 26.375 5.875 25.5 5.75C22 5.375 18.5 5.25 15 5.375C11.5 5.375 8 5.5 4.625 5.75C3.875 5.875 3.25 6.125 2.75 6.625C1.625 7.625 1.5 9.5 1.375 10.875C1.25 13.625 1.25 16.25 1.375 19C1.375 19.875 1.5 20.625 1.75 21.5C1.875 22.125 2.25 22.75 2.625 23.25C3.125 23.75 3.75 24.125 4.5 24.25C7.25 24.625 9.875 24.75 12.625 24.625C17 24.625 20.875 24.625 25.375 24.25C26.125 24.125 26.75 23.75 27.25 23.25C27.625 22.875 27.875 22.5 28 22C28.5 20.625 28.625 19.25 28.625 17.75C28.75 17.125 28.75 12.875 28.75 12.125ZM12.125 18.625V10.875L19.5 14.75C17.5 15.875 14.75 17.125 12.125 18.625Z" fill="#0C3264"/>
</svg>
