<svg width="16" height="16" viewBox="0 0 16 16" fill="none" xmlns="http://www.w3.org/2000/svg">
<g clip-path="url(#clip0_1156_1876)">
<path d="M8 16C3.58545 16 0 12.4073 0 7.99273C0 3.58545 3.59273 0 8 0C8 0 8 0 8.00727 0C9.13455 0 10.2327 0.232727 11.2582 0.690909C11.6218 0.850909 11.7891 1.28727 11.6291 1.65091C11.4691 2.01455 11.04 2.18182 10.6691 2.02182C9.81818 1.64364 8.92364 1.45455 8.00727 1.45455C4.4 1.45455 1.46182 4.38545 1.46182 8C1.46182 11.6073 4.39273 14.5455 8 14.5455C11.6073 14.5455 14.5455 11.6145 14.5455 8.00727V7.33818C14.5455 6.93818 14.8727 6.61091 15.2727 6.61091C15.6727 6.61091 16 6.93818 16 7.33818V8.00727C16 12.4145 12.4073 16 8 16Z" fill="#1A6CD9"/>
<path d="M7.99978 10.1964C7.80341 10.1964 7.62159 10.1164 7.48341 9.98545L5.30159 7.80364C5.01796 7.52 5.01796 7.06182 5.30159 6.77818C5.58523 6.49454 6.04341 6.49454 6.32705 6.77818L7.99978 8.43636L14.7561 1.67273C15.0398 1.38909 15.498 1.38909 15.7816 1.67273C16.0652 1.95636 16.0652 2.41454 15.7816 2.69818L8.50887 9.97818C8.37796 10.1164 8.19614 10.1964 7.99978 10.1964Z" fill="#1A6CD9"/>
</g>
<defs>
<clipPath id="clip0_1156_1876">
<rect width="16" height="16" fill="white"/>
</clipPath>
</defs>
</svg>
