<svg width="858" height="1000" viewBox="0 0 858 1000" fill="none" xmlns="http://www.w3.org/2000/svg">
<g clip-path="url(#clip0_346_56)">
<path fill-rule="evenodd" clip-rule="evenodd" d="M334.439 1182.44C334.439 1217.98 372.936 1240.15 403.643 1222.29L621.483 1095.63C649.458 1079.36 666.67 1049.43 666.67 1017.07V752.939L594.104 795.135C562.524 813.498 522.932 790.699 522.932 754.15V549.212L334.439 658.815V1182.44ZM334.851 657.06L522.932 547.695V231.117L334.851 340.482V657.06ZM334.851 338.965L523.346 229.362V-294.271C523.346 -329.809 484.848 -351.977 454.14 -334.122L236.302 -207.455C208.326 -191.188 191.113 -161.259 191.113 -128.883V135.237L263.679 93.0425C295.259 74.6793 334.851 97.478 334.851 134.026V338.965ZM191.113 136.753L264.336 94.1759C295.044 76.3199 333.542 98.4883 333.542 134.026V339.727L260.319 382.304C229.61 400.16 191.113 377.991 191.113 342.454V136.753ZM189.803 137.514V342.454C189.803 379.002 229.395 401.8 260.976 383.437L333.542 341.243V657.66L70.5147 810.602C39.8069 828.458 1.30965 806.289 1.30952 770.75V299.414C1.30952 267.039 18.5229 237.11 46.4974 220.843L189.803 137.514ZM189.803 135.998V-128.883C189.803 -161.725 207.266 -192.087 235.643 -208.588L453.482 -335.255C485.063 -353.618 524.655 -330.82 524.655 -294.271V228.761L786.611 76.4417C818.191 58.0786 857.783 80.8773 857.783 117.425V588.762C857.783 621.604 840.322 651.966 811.944 668.467L667.98 752.177V1017.07C667.98 1049.9 650.519 1080.26 622.141 1096.76L404.302 1223.43C372.72 1241.79 333.129 1218.99 333.129 1182.44V659.416L71.1726 811.735C39.5919 830.098 0.000130952 807.3 0 770.75V299.414C0 266.573 17.4616 236.211 45.8395 219.71L189.803 135.998ZM667.98 750.663L811.286 667.334C839.26 651.067 856.474 621.138 856.474 588.762V117.425C856.474 81.8875 817.977 59.7191 787.268 77.5752L524.241 230.517V546.934L596.807 504.74C628.389 486.377 667.98 509.175 667.98 545.723V750.663ZM524.241 548.45V754.15C524.241 789.689 562.739 811.857 593.447 794.001L666.67 751.424V545.723C666.67 510.186 628.173 488.017 597.466 505.873L524.241 548.45Z" fill="#061B69" fill-opacity="0.1"/>
</g>
<defs>
<clipPath id="clip0_346_56">
<rect width="858" height="1000" fill="white"/>
</clipPath>
</defs>
</svg>
