<svg width="149" height="28" viewBox="0 0 149 28" fill="none" xmlns="http://www.w3.org/2000/svg">
<g clip-path="url(#clip0_346_96)">
<path fill-rule="evenodd" clip-rule="evenodd" d="M140.039 17.2967C140.39 17.5982 140.563 17.7688 140.781 17.9394C143.139 19.915 145.497 21.8946 147.811 23.8702C147.94 23.9972 148.162 24.1717 148.291 24.2987C149.165 25.1595 149.25 26.4052 148.424 27.2621C147.638 28.123 146.416 28.2499 145.497 27.52C143.836 26.187 142.264 24.8144 140.652 23.4814C138.338 21.5455 136.068 19.6135 133.751 17.6815C133.577 17.5109 133.315 17.3364 132.964 17.0785C132.964 17.5506 132.92 17.8521 132.92 18.1536C132.92 23.6124 132.92 19.5302 132.92 24.985C132.92 25.2428 132.92 25.5007 132.92 25.7586C132.831 26.9606 131.916 27.8215 130.691 27.7342C129.514 27.6906 128.728 26.8297 128.683 25.6277C128.683 25.3698 128.683 25.1119 128.683 24.8541C128.683 14.0674 128.683 12.8218 128.683 2.03514C128.683 1.69 128.683 1.38849 128.683 1.04732C128.683 0.27373 128.772 0.142815 129.514 0.142815C130.518 0.0991761 131.521 0.0991761 132.525 0.0991761C134.928 0.0991761 137.415 0.186453 139.817 0.0555377C143.877 -0.115049 148.42 3.10626 148.855 7.79144C149.25 12.0045 146.323 15.9994 141.954 16.8603C141.393 16.9952 140.781 17.1658 140.039 17.2967ZM132.662 13.9881C132.924 14.0317 133.097 14.0317 133.231 14.0317C135.238 14.0317 137.29 14.0317 139.301 14.0317C139.87 14.0317 140.482 13.9881 141.047 13.7739C142.925 13.2145 144.409 12.0997 144.888 10.1201C145.719 6.72428 143.143 3.62992 139.604 3.62992C137.507 3.62992 135.456 3.62992 133.315 3.62992C133.053 3.62992 132.835 3.67356 132.573 3.67356C132.662 7.10909 132.662 10.505 132.662 13.9881Z" fill="#0C3264"/>
<path fill-rule="evenodd" clip-rule="evenodd" d="M47.1271 15.3607C43.1081 15.3607 39.2222 15.3607 35.2476 15.3607C35.2476 15.7058 35.2032 16.0073 35.2032 16.3049C35.2032 19.3119 35.2032 22.2794 35.2032 25.2864C35.2032 25.6752 35.2032 26.06 35.1145 26.3615C34.8082 27.266 33.8488 27.8214 32.9297 27.7818C31.926 27.6945 31.0956 26.9209 30.9666 25.9331C30.9222 25.6752 30.9666 25.461 30.9666 25.2031C30.9666 14.5038 30.9222 13.2145 30.9222 2.55478C30.9222 2.12633 30.9666 1.69392 31.0956 1.30911C31.4463 0.404599 32.4057 -0.111127 33.4094 0.0197879C34.3245 0.146736 35.1105 0.920326 35.1992 1.86847C35.2435 2.16997 35.1992 2.42784 35.1992 2.72934C35.1992 8.23175 35.2435 4.32016 35.2435 9.8186C35.2435 10.1637 35.2879 10.4613 35.2879 10.7628C36.0296 10.9334 46.337 10.9334 47.1231 10.7628C47.1231 10.5049 47.1674 10.247 47.1674 9.94555C47.1674 7.5375 47.1674 5.08978 47.1674 2.68173C47.1674 2.42387 47.1674 2.20964 47.1674 1.95178C47.2561 0.876688 48.0865 0.0594592 49.1749 0.0197879C50.2673 -0.0238505 51.271 0.793378 51.4 1.86847C51.4444 2.12633 51.4 2.34056 51.4 2.59842C51.4 10.1201 51.4 17.5981 51.4 25.1198C51.4 25.3777 51.4 25.5919 51.4 25.8498C51.271 26.9249 50.3076 27.7818 49.2152 27.7421C48.1228 27.6985 47.248 26.8415 47.119 25.7665C47.119 25.5086 47.119 25.2944 47.119 25.0365C47.119 22.1564 47.119 19.1929 47.119 16.3128C47.1271 16.051 47.1271 15.7495 47.1271 15.3607Z" fill="#0C3264"/>
<path fill-rule="evenodd" clip-rule="evenodd" d="M4.01493 25.8499C2.88623 25.2032 0.548221 23.3188 0.173333 22.0255C-0.0886858 21.252 -0.133027 20.3911 0.608687 19.7048C1.43909 18.9312 2.57584 18.6297 3.70857 19.3596C4.80099 20.1332 5.32502 21.121 6.24007 22.0255C7.55017 23.3149 9.25127 24.0012 11.0854 24.2154C13.3831 24.4455 16.1283 24.2352 18.0269 22.7991C19.075 21.6368 19.3813 20.0063 18.1156 18.8875C17.5028 18.3718 16.7168 17.983 15.9307 17.6419C14.016 16.8246 12.0085 16.2653 9.99702 15.7495C7.84444 15.2457 5.26456 14.5911 3.31756 13.5597C1.78979 12.7425 0.915048 11.4531 0.653029 9.82265C-0.745748 -0.0832694 11.7828 -1.46383 18.7767 2.42792C19.6514 2.90001 20.4778 3.62996 21.2235 4.27661C21.7919 4.74869 22.2272 5.43501 22.4449 6.16893C22.6626 7.07343 22.2272 8.01761 21.0905 8.27547C20.1311 8.4897 19.2564 8.1882 18.559 7.45824C18.426 7.3313 18.297 7.15674 18.2083 7.02979C15.7937 3.41971 9.03763 2.93572 6.02643 5.6532C5.24037 6.68465 4.93401 8.06125 5.98209 9.35056C7.70738 10.9573 13.363 11.8975 15.8058 12.4886C17.2892 12.8734 18.7323 13.3494 20.0868 14.123C21.8322 15.0275 23.098 16.3565 23.5373 18.2925C24.0614 20.6569 23.5373 22.8904 21.6589 24.6081C17.0272 28.6943 9.27143 28.9879 4.01493 25.8499Z" fill="#0C3264"/>
<path fill-rule="evenodd" clip-rule="evenodd" d="M72.5792 0.150757C80.2946 0.150757 86.5508 6.30774 86.5508 13.9008C86.5508 13.9326 86.5508 13.9683 86.5508 14C86.5468 14.6665 86.059 15.2219 85.4141 15.3449V15.3687H85.144H83.9024H61.2479H60.4014H60.0063C59.2364 15.3687 58.6075 14.7538 58.6035 13.996C58.6035 13.9643 58.6035 13.9286 58.6035 13.8969C58.6075 6.30774 64.8637 0.150757 72.5792 0.150757ZM81.9837 10.7787C80.6615 6.91471 76.9489 4.13375 72.5792 4.13375C68.2095 4.13375 64.4969 6.91471 63.1747 10.7787H81.9837Z" fill="#0C3264"/>
<path fill-rule="evenodd" clip-rule="evenodd" d="M83.7855 22.1168C81.2379 25.4769 77.1665 27.6549 72.5792 27.6549C67.9919 27.6549 63.9205 25.4769 61.3729 22.1168C61.1229 21.7875 61.0383 21.4106 61.1229 21.01C61.2076 20.6093 61.4374 20.2959 61.7961 20.0935L62.8764 19.4786C63.4892 19.1295 64.2631 19.2803 64.6945 19.8357C66.5084 22.1644 69.3624 23.6679 72.5792 23.6679C75.792 23.6679 78.65 22.1644 80.4639 19.8357C80.8953 19.2803 81.6652 19.1295 82.282 19.4786L83.3623 20.0935C83.721 20.2998 83.9508 20.6093 84.0355 21.01C84.1201 21.4106 84.0355 21.7875 83.7855 22.1168Z" fill="#0C3264"/>
<path fill-rule="evenodd" clip-rule="evenodd" d="M107.633 0.150757C115.349 0.150757 121.605 6.30774 121.605 13.9008C121.605 13.9326 121.605 13.9683 121.605 14C121.601 14.6665 121.113 15.2219 120.468 15.3449V15.3687H120.198H118.957H96.302H95.4554H95.0604C94.2905 15.3687 93.6616 14.7538 93.6576 13.996C93.6576 13.9643 93.6576 13.9286 93.6576 13.8969C93.6616 6.30774 99.9178 0.150757 107.633 0.150757ZM117.038 10.7787C115.716 6.91471 112.003 4.13375 107.633 4.13375C103.264 4.13375 99.551 6.91471 98.2288 10.7787H117.038Z" fill="#0C3264"/>
<path fill-rule="evenodd" clip-rule="evenodd" d="M118.84 22.1168C116.292 25.4769 112.221 27.6549 107.633 27.6549C103.046 27.6549 98.9746 25.4769 96.4269 22.1168C96.177 21.7875 96.0924 21.4106 96.177 21.01C96.2617 20.6093 96.4914 20.2959 96.8502 20.0935L97.9305 19.4786C98.5432 19.1295 99.3172 19.2803 99.7485 19.8357C101.563 22.1644 104.416 23.6679 107.633 23.6679C110.846 23.6679 113.704 22.1644 115.518 19.8357C115.949 19.2803 116.719 19.1295 117.336 19.4786L118.416 20.0935C118.775 20.2998 119.005 20.6093 119.09 21.01C119.174 21.4106 119.09 21.7875 118.84 22.1168Z" fill="#0C3264"/>
</g>
<defs>
<clipPath id="clip0_346_96">
<rect width="149" height="28" fill="white"/>
</clipPath>
</defs>
</svg>
