<svg width="149" height="28" viewBox="0 0 149 28" fill="none" xmlns="http://www.w3.org/2000/svg">
<g clip-path="url(#clip0_861_565)">
<path fill-rule="evenodd" clip-rule="evenodd" d="M140.039 17.2964C140.39 17.5979 140.563 17.7685 140.781 17.9391C143.139 19.9147 145.497 21.8943 147.811 23.87C147.94 23.9969 148.162 24.1715 148.291 24.2984C149.165 25.1593 149.25 26.405 148.424 27.2619C147.638 28.1227 146.416 28.2497 145.497 27.5197C143.836 26.1868 142.264 24.8141 140.652 23.4812C138.338 21.5452 136.068 19.6132 133.751 17.6812C133.577 17.5107 133.315 17.3361 132.964 17.0782C132.964 17.5503 132.92 17.8518 132.92 18.1533C132.92 23.6121 132.92 19.5299 132.92 24.9847C132.92 25.2426 132.92 25.5005 132.92 25.7583C132.831 26.9604 131.916 27.8212 130.691 27.734C129.514 27.6903 128.728 26.8294 128.683 25.6274C128.683 25.3695 128.683 25.1117 128.683 24.8538C128.683 14.0672 128.683 12.8215 128.683 2.03489C128.683 1.68975 128.683 1.38825 128.683 1.04708C128.683 0.273486 128.772 0.14257 129.514 0.14257C130.518 0.0989319 131.521 0.0989319 132.525 0.0989319C134.928 0.0989319 137.415 0.186209 139.817 0.0552935C143.877 -0.115293 148.42 3.10602 148.855 7.7912C149.25 12.0043 146.323 15.9992 141.954 16.8601C141.393 16.9949 140.781 17.1655 140.039 17.2964ZM132.662 13.9879C132.924 14.0315 133.097 14.0315 133.231 14.0315C135.238 14.0315 137.29 14.0315 139.301 14.0315C139.87 14.0315 140.482 13.9879 141.047 13.7736C142.925 13.2143 144.409 12.0995 144.888 10.1199C145.719 6.72404 143.143 3.62968 139.604 3.62968C137.507 3.62968 135.456 3.62968 133.315 3.62968C133.053 3.62968 132.835 3.67332 132.573 3.67332C132.662 7.10885 132.662 10.5047 132.662 13.9879Z" fill="white"/>
<path fill-rule="evenodd" clip-rule="evenodd" d="M47.1271 15.361C43.1081 15.361 39.2222 15.361 35.2476 15.361C35.2476 15.7062 35.2032 16.0077 35.2032 16.3052C35.2032 19.3123 35.2032 22.2797 35.2032 25.2868C35.2032 25.6756 35.2032 26.0604 35.1145 26.3619C34.8082 27.2664 33.8488 27.8218 32.9297 27.7821C31.926 27.6948 31.0956 26.9213 30.9666 25.9334C30.9222 25.6756 30.9666 25.4614 30.9666 25.2035C30.9666 14.5041 30.9222 13.2148 30.9222 2.55515C30.9222 2.1267 30.9666 1.69428 31.0956 1.30947C31.4463 0.404966 32.4057 -0.110761 33.4094 0.0201542C34.3245 0.147102 35.1105 0.920693 35.1992 1.86884C35.2435 2.17034 35.1992 2.4282 35.1992 2.7297C35.1992 8.23211 35.2435 4.32052 35.2435 9.81896C35.2435 10.1641 35.2879 10.4616 35.2879 10.7631C36.0296 10.9337 46.337 10.9337 47.1231 10.7631C47.1231 10.5053 47.1674 10.2474 47.1674 9.94591C47.1674 7.53786 47.1674 5.09015 47.1674 2.6821C47.1674 2.42423 47.1674 2.21001 47.1674 1.95215C47.2561 0.877054 48.0865 0.0598255 49.1749 0.0201542C50.2673 -0.0234843 51.271 0.793745 51.4 1.86884C51.4444 2.1267 51.4 2.34093 51.4 2.59879C51.4 10.1205 51.4 17.5985 51.4 25.1202C51.4 25.378 51.4 25.5923 51.4 25.8501C51.271 26.9252 50.3076 27.7821 49.2152 27.7425C48.1228 27.6988 47.248 26.8419 47.119 25.7668C47.119 25.509 47.119 25.2947 47.119 25.0369C47.119 22.1567 47.119 19.1933 47.119 16.3132C47.1271 16.0513 47.1271 15.7498 47.1271 15.361Z" fill="white"/>
<path fill-rule="evenodd" clip-rule="evenodd" d="M4.01493 25.8499C2.88623 25.2032 0.548221 23.3188 0.173333 22.0255C-0.0886858 21.252 -0.133027 20.3911 0.608687 19.7048C1.43909 18.9312 2.57584 18.6297 3.70857 19.3596C4.80099 20.1332 5.32502 21.121 6.24007 22.0255C7.55017 23.3149 9.25127 24.0012 11.0854 24.2154C13.3831 24.4455 16.1283 24.2352 18.0269 22.7991C19.075 21.6368 19.3813 20.0063 18.1156 18.8875C17.5028 18.3718 16.7168 17.983 15.9307 17.6419C14.016 16.8246 12.0085 16.2653 9.99702 15.7495C7.84444 15.2457 5.26456 14.5911 3.31756 13.5597C1.78979 12.7425 0.915048 11.4531 0.653029 9.82265C-0.745748 -0.0832694 11.7828 -1.46383 18.7767 2.42792C19.6514 2.90001 20.4778 3.62996 21.2235 4.27661C21.7919 4.74869 22.2272 5.43501 22.4449 6.16893C22.6626 7.07343 22.2272 8.01761 21.0905 8.27547C20.1311 8.4897 19.2564 8.1882 18.559 7.45824C18.426 7.3313 18.297 7.15674 18.2083 7.02979C15.7937 3.41971 9.03763 2.93572 6.02643 5.6532C5.24037 6.68465 4.93401 8.06125 5.98209 9.35056C7.70738 10.9573 13.363 11.8975 15.8058 12.4886C17.2892 12.8734 18.7323 13.3494 20.0868 14.123C21.8322 15.0275 23.098 16.3565 23.5373 18.2925C24.0614 20.6569 23.5373 22.8904 21.6589 24.6081C17.0272 28.6943 9.27143 28.9879 4.01493 25.8499Z" fill="white"/>
<path fill-rule="evenodd" clip-rule="evenodd" d="M72.5792 0.150391C80.2946 0.150391 86.5508 6.30738 86.5508 13.9005C86.5508 13.9322 86.5508 13.9679 86.5508 13.9996C86.5468 14.6661 86.059 15.2215 85.4141 15.3445V15.3683H85.144H83.9024H61.2479H60.4014H60.0063C59.2364 15.3683 58.6075 14.7534 58.6035 13.9957C58.6035 13.9639 58.6035 13.9282 58.6035 13.8965C58.6075 6.30737 64.8637 0.150391 72.5792 0.150391ZM81.9837 10.7783C80.6615 6.91435 76.9489 4.13339 72.5792 4.13339C68.2095 4.13339 64.4969 6.91435 63.1747 10.7783H81.9837Z" fill="white"/>
<path fill-rule="evenodd" clip-rule="evenodd" d="M83.7855 22.1163C81.2379 25.4765 77.1665 27.6544 72.5792 27.6544C67.9919 27.6544 63.9205 25.4765 61.3729 22.1163C61.1229 21.787 61.0383 21.4101 61.1229 21.0095C61.2076 20.6088 61.4374 20.2954 61.7961 20.0931L62.8764 19.4782C63.4892 19.129 64.2631 19.2798 64.6945 19.8352C66.5084 22.1639 69.3624 23.6674 72.5792 23.6674C75.792 23.6674 78.65 22.1639 80.4639 19.8352C80.8953 19.2798 81.6652 19.129 82.282 19.4782L83.3623 20.0931C83.721 20.2993 83.9508 20.6088 84.0355 21.0095C84.1201 21.4101 84.0355 21.787 83.7855 22.1163Z" fill="white"/>
<path fill-rule="evenodd" clip-rule="evenodd" d="M107.633 0.150391C115.349 0.150391 121.605 6.30738 121.605 13.9005C121.605 13.9322 121.605 13.9679 121.605 13.9996C121.601 14.6661 121.113 15.2215 120.468 15.3445V15.3683H120.198H118.957H96.302H95.4554H95.0604C94.2905 15.3683 93.6616 14.7534 93.6576 13.9957C93.6576 13.9639 93.6576 13.9282 93.6576 13.8965C93.6616 6.30737 99.9178 0.150391 107.633 0.150391ZM117.038 10.7783C115.716 6.91435 112.003 4.13339 107.633 4.13339C103.264 4.13339 99.551 6.91435 98.2288 10.7783H117.038Z" fill="white"/>
<path fill-rule="evenodd" clip-rule="evenodd" d="M118.84 22.1163C116.292 25.4765 112.221 27.6544 107.633 27.6544C103.046 27.6544 98.9746 25.4765 96.4269 22.1163C96.177 21.787 96.0924 21.4101 96.177 21.0095C96.2617 20.6088 96.4914 20.2954 96.8502 20.0931L97.9305 19.4782C98.5432 19.129 99.3172 19.2798 99.7485 19.8352C101.563 22.1639 104.416 23.6674 107.633 23.6674C110.846 23.6674 113.704 22.1639 115.518 19.8352C115.949 19.2798 116.719 19.129 117.336 19.4782L118.416 20.0931C118.775 20.2993 119.005 20.6088 119.09 21.0095C119.174 21.4101 119.09 21.787 118.84 22.1163Z" fill="white"/>
</g>
<defs>
<clipPath id="clip0_861_565">
<rect width="149" height="28" fill="white"/>
</clipPath>
</defs>
</svg>
