<svg width="363" height="362" viewBox="0 0 363 362" fill="none" xmlns="http://www.w3.org/2000/svg">
<path d="M2.26055 9.04416V2.05086L0.711184 2.43301L0.304793 0.827987L2.85743 0.0636912H4.1909V9.04416H2.26055Z" fill="#4B4B4B"/>
<path d="M10.0287 9.04416V2.21646H11.9845L13.8259 5.08256L15.6928 2.21646H17.6485V9.04416H15.6928V4.94244L13.8005 7.74486L11.9337 4.98066V9.04416H10.0287Z" fill="#4B4B4B"/>
<path d="M22.6056 9.19702C20.5609 9.19702 19.0497 7.7576 19.0497 5.64305C19.0497 3.69409 20.4339 2.08907 22.4151 2.08907C24.6883 2.08907 25.7297 3.85969 25.7297 5.79591C25.7297 5.94877 25.717 6.1271 25.7043 6.30544H20.9673C21.1578 7.18438 21.7674 7.64295 22.631 7.64295C23.2787 7.64295 23.7486 7.43914 24.2819 6.94235L25.3868 7.9232C24.7518 8.71297 23.8375 9.19702 22.6056 9.19702ZM20.9419 5.0953H23.8502C23.7359 4.2291 23.2279 3.64314 22.4151 3.64314C21.615 3.64314 21.0943 4.21636 20.9419 5.0953Z" fill="#4B4B4B"/>
<path d="M30.3814 9.19702C28.3367 9.19702 26.8382 7.61748 26.8382 5.64305C26.8382 3.69409 28.324 2.08907 30.4068 2.08907C31.6894 2.08907 32.4768 2.57313 33.1118 3.28647L31.9815 4.43291C31.5624 4.03803 31.1561 3.75779 30.3941 3.75779C29.4289 3.75779 28.7431 4.61125 28.7431 5.64305C28.7431 6.68758 29.4162 7.52831 30.4703 7.52831C31.118 7.52831 31.5624 7.24807 32.0323 6.80223L33.1626 7.94867C32.5022 8.67475 31.7402 9.19702 30.3814 9.19702Z" fill="#4B4B4B"/>
<path d="M40.4559 2.21646V9.04416H38.5256V6.85318H37.4842L36.0491 9.04416H33.814L35.5538 6.53473C34.6902 6.20353 34.1315 5.55388 34.1315 4.4966C34.1315 3.13361 35.1093 2.21646 36.8873 2.21646H40.4559ZM37.2175 5.45197H38.5256V3.73231H37.2048C36.5063 3.73231 36.0872 4.03803 36.0872 4.59851C36.0872 5.14626 36.519 5.45197 37.2175 5.45197Z" fill="#4B4B4B"/>
<path d="M47.4449 10.6492V9.04416H42.1872V2.21646H44.1176V7.38819H46.4416V2.21646H48.372V7.38819H49.2991L49.0705 10.6492H47.4449Z" fill="#4B4B4B"/>
<path d="M125.503 9.04416V7.4901L128.462 5.05709C129.567 4.13993 129.998 3.65588 129.998 2.91706C129.998 2.1655 129.503 1.75788 128.805 1.75788C128.119 1.75788 127.649 2.14003 126.989 2.95528L125.617 1.84705C126.493 0.649651 127.344 0 128.932 0C130.773 0 131.992 1.08275 131.992 2.77694C131.992 4.26732 131.23 5.00613 129.656 6.22901L128.208 7.34997H132.081V9.04416H125.503Z" fill="#4B4B4B"/>
<path d="M137.464 9.04416V2.21646H139.42L141.261 5.08256L143.128 2.21646H145.084V9.04416H143.128V4.94244L141.236 7.74486L139.369 4.98066V9.04416H137.464Z" fill="#4B4B4B"/>
<path d="M150.041 9.19702C147.996 9.19702 146.485 7.7576 146.485 5.64305C146.485 3.69409 147.869 2.08907 149.85 2.08907C152.124 2.08907 153.165 3.85969 153.165 5.79591C153.165 5.94877 153.152 6.1271 153.14 6.30544H148.403C148.593 7.18438 149.203 7.64295 150.066 7.64295C150.714 7.64295 151.184 7.43914 151.717 6.94235L152.822 7.9232C152.187 8.71297 151.273 9.19702 150.041 9.19702ZM148.377 5.0953H151.285C151.171 4.2291 150.663 3.64314 149.85 3.64314C149.05 3.64314 148.53 4.21636 148.377 5.0953Z" fill="#4B4B4B"/>
<path d="M157.817 9.19702C155.772 9.19702 154.273 7.61748 154.273 5.64305C154.273 3.69409 155.759 2.08907 157.842 2.08907C159.125 2.08907 159.912 2.57313 160.547 3.28647L159.417 4.43291C158.998 4.03803 158.591 3.75779 157.829 3.75779C156.864 3.75779 156.178 4.61125 156.178 5.64305C156.178 6.68758 156.852 7.52831 157.906 7.52831C158.553 7.52831 158.998 7.24807 159.468 6.80223L160.598 7.94867C159.938 8.67475 159.176 9.19702 157.817 9.19702Z" fill="#4B4B4B"/>
<path d="M167.891 2.21646V9.04416H165.961V6.85318H164.919L163.484 9.04416H161.249L162.989 6.53473C162.126 6.20353 161.567 5.55388 161.567 4.4966C161.567 3.13361 162.545 2.21646 164.323 2.21646H167.891ZM164.653 5.45197H165.961V3.73231H164.64C163.942 3.73231 163.523 4.03803 163.523 4.59851C163.523 5.14626 163.954 5.45197 164.653 5.45197Z" fill="#4B4B4B"/>
<path d="M174.88 10.6492V9.04416H169.623V2.21646H171.553V7.38819H173.877V2.21646H175.807V7.38819H176.734L176.506 10.6492H174.88Z" fill="#4B4B4B"/>
<path d="M253.711 9.19702C252.11 9.19702 251.006 8.56011 250.244 7.65569L251.59 6.36913C252.199 7.05699 252.834 7.43914 253.736 7.43914C254.473 7.43914 254.993 7.01878 254.993 6.33091C254.993 5.60483 254.346 5.19721 253.253 5.19721H252.441L252.136 3.94886L254.257 1.80883H250.764V0.127382H256.771V1.60502L254.523 3.75779C255.73 3.9616 256.911 4.59851 256.911 6.27996C256.911 7.96141 255.692 9.19702 253.711 9.19702Z" fill="#4B4B4B"/>
<path d="M262.32 9.04416V2.21646H264.275L266.117 5.08256L267.984 2.21646H269.939V9.04416H267.984V4.94244L266.091 7.74486L264.225 4.98066V9.04416H262.32Z" fill="#4B4B4B"/>
<path d="M274.897 9.19702C272.852 9.19702 271.341 7.7576 271.341 5.64305C271.341 3.69409 272.725 2.08907 274.706 2.08907C276.979 2.08907 278.021 3.85969 278.021 5.79591C278.021 5.94877 278.008 6.1271 277.995 6.30544H273.258C273.449 7.18438 274.058 7.64295 274.922 7.64295C275.57 7.64295 276.04 7.43914 276.573 6.94235L277.678 7.9232C277.043 8.71297 276.128 9.19702 274.897 9.19702ZM273.233 5.0953H276.141C276.027 4.2291 275.519 3.64314 274.706 3.64314C273.906 3.64314 273.385 4.21636 273.233 5.0953Z" fill="#4B4B4B"/>
<path d="M282.672 9.19702C280.628 9.19702 279.129 7.61748 279.129 5.64305C279.129 3.69409 280.615 2.08907 282.698 2.08907C283.98 2.08907 284.768 2.57313 285.403 3.28647L284.273 4.43291C283.853 4.03803 283.447 3.75779 282.685 3.75779C281.72 3.75779 281.034 4.61125 281.034 5.64305C281.034 6.68758 281.707 7.52831 282.761 7.52831C283.409 7.52831 283.853 7.24807 284.323 6.80223L285.454 7.94867C284.793 8.67475 284.031 9.19702 282.672 9.19702Z" fill="#4B4B4B"/>
<path d="M292.747 2.21646V9.04416H290.816V6.85318H289.775L288.34 9.04416H286.105L287.845 6.53473C286.981 6.20353 286.422 5.55388 286.422 4.4966C286.422 3.13361 287.4 2.21646 289.178 2.21646H292.747ZM289.508 5.45197H290.816V3.73231H289.496C288.797 3.73231 288.378 4.03803 288.378 4.59851C288.378 5.14626 288.81 5.45197 289.508 5.45197Z" fill="#4B4B4B"/>
<path d="M299.736 10.6492V9.04416H294.478V2.21646H296.409V7.38819H298.733V2.21646H300.663V7.38819H301.59L301.361 10.6492H299.736Z" fill="#4B4B4B"/>
<path d="M0 31.8669C0 27.4699 3.55366 23.9055 7.93732 23.9055H105.302C109.685 23.9055 113.239 27.4699 113.239 31.8669V108.296C113.239 112.693 109.685 116.258 105.302 116.258H7.93732C3.55366 116.258 0 112.693 0 108.296V31.8669Z" fill="#FF9800"/>
<path d="M124.88 315.293C124.88 310.896 128.434 307.332 132.818 307.332H230.182C234.566 307.332 238.12 310.896 238.12 315.293V354.039C238.12 358.436 234.566 362 230.182 362H132.818C128.434 362 124.88 358.436 124.88 354.039V315.293Z" fill="#673AB7"/>
<path d="M249.761 277.609C249.761 273.212 253.315 269.648 257.698 269.648H355.063C359.446 269.648 363 273.212 363 277.609V354.039C363 358.436 359.446 362 355.063 362H257.698C253.315 362 249.761 358.436 249.761 354.039V277.609Z" fill="#673AB7"/>
<path d="M0 131.65C0 127.253 3.55366 123.688 7.93732 123.688H105.302C109.685 123.688 113.239 127.253 113.239 131.65V161.903C113.239 166.3 109.685 169.865 105.302 169.865H7.93732C3.55366 169.865 0 166.3 0 161.903V131.65Z" fill="#2B43EC"/>
<path d="M0 185.257C0 180.86 3.55366 177.295 7.93732 177.295H105.302C109.685 177.295 113.239 180.86 113.239 185.257V354.039C113.239 358.436 109.685 362 105.302 362H7.93732C3.55366 362 0 358.436 0 354.039V185.257Z" fill="#6ECC5F"/>
<path d="M124.88 31.8669C124.88 27.4699 128.434 23.9055 132.818 23.9055H230.182C234.566 23.9055 238.12 27.4699 238.12 31.8669V290.347C238.12 294.744 234.566 298.309 230.182 298.309H132.818C128.434 298.309 124.88 294.744 124.88 290.347V31.8669Z" fill="#6ECC5F"/>
<path d="M249.761 85.4737C249.761 81.0767 253.315 77.5123 257.698 77.5123H355.063C359.446 77.5123 363 81.0767 363 85.4737V254.256C363 258.653 359.446 262.217 355.063 262.217H257.698C253.315 262.217 249.761 258.653 249.761 254.256V85.4737Z" fill="#6ECC5F"/>
<path d="M26.7331 67.4278V64.6679H27.4527C28.0665 63.4471 28.3946 61.9398 28.3946 59.4558V58.4049H33.5591V64.6679H34.4799L34.3 67.4278H33.2205V65.8356H28.003L27.876 67.4278H26.7331ZM28.8391 64.6679H32.2574V59.5832H29.6434V60.4324C29.6434 62.1521 29.3471 63.6382 28.8391 64.6679Z" fill="white"/>
<path d="M38.1492 65.9629C36.4454 65.9629 35.186 64.6573 35.186 63.0438C35.186 61.4409 36.4559 60.114 38.1704 60.114C39.8849 60.114 41.1442 61.4196 41.1442 63.0438C41.1442 64.636 39.8743 65.9629 38.1492 65.9629ZM38.1704 64.8483C39.2075 64.8483 39.8637 64.031 39.8637 63.0438C39.8637 62.0565 39.1546 61.2392 38.1492 61.2392C37.1227 61.2392 36.4665 62.0459 36.4665 63.0438C36.4665 64.0204 37.1756 64.8483 38.1704 64.8483Z" fill="white"/>
<path d="M42.4484 67.534V60.2307H43.7289V61.1649C44.1417 60.581 44.7237 60.114 45.6233 60.114C46.9462 60.114 48.2267 61.1649 48.2267 63.0438C48.2267 64.9014 46.9568 65.9523 45.6233 65.9523C44.7026 65.9523 44.1205 65.4853 43.7289 64.9651V67.534H42.4484ZM45.327 64.8377C46.2054 64.8377 46.925 64.1477 46.925 63.0225C46.925 61.9398 46.1948 61.2286 45.327 61.2286C44.4591 61.2286 43.6972 61.9504 43.6972 63.0438C43.6972 64.1265 44.4591 64.8377 45.327 64.8377Z" fill="white"/>
<path d="M54.2265 65.8356H52.9565V65.1456C52.5756 65.602 51.9935 65.9523 51.1468 65.9523C50.0885 65.9523 49.1572 65.3473 49.1572 64.2008C49.1572 62.9588 50.1203 62.3644 51.422 62.3644C52.0993 62.3644 52.5332 62.4599 52.9671 62.5979V62.4918C52.9671 61.7169 52.4803 61.2922 51.5913 61.2922C50.9669 61.2922 50.5013 61.4302 49.9933 61.6425L49.644 60.6129C50.2579 60.3369 50.8611 60.1458 51.7712 60.1458C53.4222 60.1458 54.2265 61.0163 54.2265 62.513V65.8356ZM52.9883 63.8081V63.4896C52.6602 63.3622 52.2051 63.2667 51.7077 63.2667C50.9034 63.2667 50.4272 63.5957 50.4272 64.1584C50.4272 64.6891 50.9034 64.9863 51.5067 64.9863C52.3533 64.9863 52.9883 64.5087 52.9883 63.8081Z" fill="white"/>
<path d="M58.48 64.8483C59.4431 64.8483 60.0886 64.084 60.0886 63.1287C60.0886 62.1733 59.3902 61.3984 58.4588 61.3984C57.5169 61.3984 56.8608 62.1627 56.8608 63.1287C56.8608 64.084 57.5593 64.8483 58.48 64.8483ZM58.4588 65.9629C56.6491 65.9629 55.5802 64.7634 55.5802 62.6935C55.5802 60.9526 55.7813 59.201 57.8133 58.7764L60.8612 58.1395L61.0729 59.1692L58.0249 59.838C56.9455 60.0715 56.6174 60.6872 56.5539 61.4302C56.8396 60.9419 57.5381 60.3793 58.7023 60.3793C60.1416 60.3793 61.3692 61.5682 61.3692 63.1074C61.3692 64.6573 60.1416 65.9629 58.4588 65.9629Z" fill="white"/>
<path d="M65.3304 65.9629C63.6265 65.9629 62.3671 64.6573 62.3671 63.0438C62.3671 61.4409 63.6371 60.114 65.3516 60.114C67.066 60.114 68.3254 61.4196 68.3254 63.0438C68.3254 64.636 67.0555 65.9629 65.3304 65.9629ZM65.3516 64.8483C66.3887 64.8483 67.0449 64.031 67.0449 63.0438C67.0449 62.0565 66.3358 61.2392 65.3304 61.2392C64.3039 61.2392 63.6477 62.0459 63.6477 63.0438C63.6477 64.0204 64.3568 64.8483 65.3516 64.8483Z" fill="white"/>
<path d="M70.8254 65.8356V61.3347H69.0263V60.2307H73.9157V61.3347H72.1166V65.8356H70.8254Z" fill="white"/>
<path d="M74.9314 65.8356V60.2307H76.2014V62.9164L78.6355 60.2307H80.1383L77.9688 62.5873L80.3182 65.8356H78.8048L77.1115 63.5214L76.2014 64.4874V65.8356H74.9314Z" fill="white"/>
<path d="M85.8931 65.8356H84.6231V65.1456C84.2421 65.602 83.6601 65.9523 82.8134 65.9523C81.7551 65.9523 80.8238 65.3473 80.8238 64.2008C80.8238 62.9588 81.7869 62.3644 83.0886 62.3644C83.7659 62.3644 84.1998 62.4599 84.6337 62.5979V62.4918C84.6337 61.7169 84.1469 61.2922 83.2579 61.2922C82.6335 61.2922 82.1679 61.4302 81.6599 61.6425L81.3106 60.6129C81.9245 60.3369 82.5277 60.1458 83.4378 60.1458C85.0888 60.1458 85.8931 61.0163 85.8931 62.513V65.8356ZM84.6549 63.8081V63.4896C84.3268 63.3622 83.8717 63.2667 83.3743 63.2667C82.57 63.2667 82.0938 63.5957 82.0938 64.1584C82.0938 64.6891 82.57 64.9863 83.1733 64.9863C84.0199 64.9863 84.6549 64.5087 84.6549 63.8081Z" fill="white"/>
<path d="M44.7929 80.8242C43.1314 80.8242 41.9037 79.5186 41.9037 77.9263V77.9051C41.9037 76.3128 43.1314 74.9753 44.8035 74.9753C45.8618 74.9753 46.518 75.368 47.0365 75.9412L46.2428 76.8011C45.8512 76.3871 45.4385 76.1005 44.7929 76.1005C43.8616 76.1005 43.1843 76.9072 43.1843 77.8838V77.9051C43.1843 78.9029 43.8722 79.7096 44.8564 79.7096C45.4597 79.7096 45.9042 79.423 46.3063 79.009L47.0789 79.7733C46.5286 80.389 45.883 80.8242 44.7929 80.8242Z" fill="white"/>
<path d="M52.8933 80.6969H51.6233V80.0069C51.2423 80.4633 50.6603 80.8136 49.8136 80.8136C48.7553 80.8136 47.824 80.2086 47.824 79.0621C47.824 77.8201 48.7871 77.2257 50.0888 77.2257C50.7661 77.2257 51.2 77.3212 51.6339 77.4592V77.3531C51.6339 76.5782 51.1471 76.1535 50.2581 76.1535C49.6337 76.1535 49.168 76.2915 48.6601 76.5038L48.3108 75.4742C48.9246 75.1982 49.5279 75.0071 50.438 75.0071C52.089 75.0071 52.8933 75.8775 52.8933 77.3743V80.6969ZM51.6551 78.6693V78.3509C51.327 78.2235 50.8719 78.128 50.3745 78.128C49.5702 78.128 49.094 78.457 49.094 79.0197C49.094 79.5504 49.5702 79.8476 50.1734 79.8476C51.0201 79.8476 51.6551 79.37 51.6551 78.6693Z" fill="white"/>
<path d="M56.9775 74.4445C56.0779 74.4445 55.4535 73.8713 55.3159 72.969L56.0991 72.8204C56.2366 73.2662 56.5012 73.5422 56.9775 73.5422C57.4537 73.5422 57.7183 73.2662 57.8559 72.8204L58.6284 72.969C58.4908 73.8713 57.877 74.4445 56.9775 74.4445ZM54.4163 80.6969V75.092H55.6652V78.8498C56.5436 77.5972 57.4219 76.3446 58.3109 75.092H59.5174V80.6969H58.2792V76.9603L55.6228 80.6969H54.4163Z" fill="white"/>
<path d="M62.3197 80.6969V76.196H60.5206V75.092H65.41V76.196H63.6108V80.6969H62.3197Z" fill="white"/>
<path d="M71.114 80.6969H69.844V80.0069C69.463 80.4633 68.881 80.8136 68.0343 80.8136C66.976 80.8136 66.0447 80.2086 66.0447 79.0621C66.0447 77.8201 67.0078 77.2257 68.3095 77.2257C68.9868 77.2257 69.4207 77.3212 69.8546 77.4592V77.3531C69.8546 76.5782 69.3678 76.1535 68.4788 76.1535C67.8544 76.1535 67.3887 76.2915 66.8808 76.5038L66.5315 75.4742C67.1453 75.1982 67.7486 75.0071 68.6587 75.0071C70.3097 75.0071 71.114 75.8775 71.114 77.3743V80.6969ZM69.8758 78.6693V78.3509C69.5477 78.2235 69.0926 78.128 68.5952 78.128C67.7909 78.128 67.3147 78.457 67.3147 79.0197C67.3147 79.5504 67.7909 79.8476 68.3941 79.8476C69.2408 79.8476 69.8758 79.37 69.8758 78.6693Z" fill="white"/>
<path d="M165.862 314.635C167.396 314.635 168.465 315.474 168.465 316.631C168.465 317.586 167.862 318.085 167.206 318.361C168.031 318.616 168.656 319.178 168.656 320.144C168.656 321.376 167.587 322.32 165.936 322.32C164.497 322.32 163.555 321.896 162.729 321.1L163.438 320.197C164.105 320.834 164.899 321.185 165.904 321.185C166.687 321.185 167.354 320.771 167.354 320.07C167.354 319.306 166.624 318.987 165.661 318.987H164.825V317.904H165.65C166.592 317.904 167.174 317.522 167.174 316.822C167.174 316.195 166.603 315.781 165.777 315.781C164.899 315.781 164.264 316.068 163.703 316.609L163.004 315.76C163.713 315.081 164.549 314.635 165.862 314.635Z" fill="white"/>
<path d="M174.725 322.193H173.455V321.503C173.074 321.959 172.492 322.31 171.645 322.31C170.587 322.31 169.656 321.705 169.656 320.558C169.656 319.316 170.619 318.722 171.92 318.722C172.598 318.722 173.032 318.817 173.466 318.955V318.849C173.466 318.074 172.979 317.65 172.09 317.65C171.465 317.65 171 317.788 170.492 318L170.142 316.97C170.756 316.694 171.359 316.503 172.27 316.503C173.921 316.503 174.725 317.374 174.725 318.87V322.193ZM173.487 320.165V319.847C173.159 319.72 172.704 319.624 172.206 319.624C171.402 319.624 170.926 319.953 170.926 320.516C170.926 321.047 171.402 321.344 172.005 321.344C172.852 321.344 173.487 320.866 173.487 320.165Z" fill="white"/>
<path d="M176.248 322.193V316.588H181.233V322.193H179.952V317.692H177.529V322.193H176.248Z" fill="white"/>
<path d="M183.985 323.923C183.445 323.923 183.053 323.796 182.662 323.584L183.096 322.628C183.329 322.756 183.583 322.841 183.847 322.841C184.207 322.841 184.429 322.681 184.641 322.193L182.313 316.588H183.678L185.265 320.749L186.715 316.588H188.049L185.826 322.352C185.382 323.499 184.884 323.923 183.985 323.923Z" fill="white"/>
<path d="M191.728 322.32C190.067 322.32 188.839 321.015 188.839 319.422V319.401C188.839 317.809 190.067 316.471 191.739 316.471C192.797 316.471 193.453 316.864 193.972 317.437L193.178 318.297C192.787 317.883 192.374 317.597 191.728 317.597C190.797 317.597 190.12 318.403 190.12 319.38V319.401C190.12 320.399 190.808 321.206 191.792 321.206C192.395 321.206 192.84 320.919 193.242 320.505L194.014 321.269C193.464 321.885 192.818 322.32 191.728 322.32Z" fill="white"/>
<path d="M195.14 322.193V316.588H196.41V319.274L198.845 316.588H200.347L198.178 318.945L200.527 322.193H199.014L197.321 319.879L196.41 320.845V322.193H195.14Z" fill="white"/>
<path d="M147.594 337.054V331.449H148.864V334.135L151.298 331.449H152.801L150.631 333.806L152.981 337.054H151.467L149.774 334.74L148.864 335.706V337.054H147.594Z" fill="white"/>
<path d="M156.524 337.182C154.82 337.182 153.561 335.876 153.561 334.262C153.561 332.66 154.83 331.333 156.545 331.333C158.259 331.333 159.519 332.638 159.519 334.262C159.519 335.855 158.249 337.182 156.524 337.182ZM156.545 336.067C157.582 336.067 158.238 335.25 158.238 334.262C158.238 333.275 157.529 332.458 156.524 332.458C155.497 332.458 154.841 333.265 154.841 334.262C154.841 335.239 155.55 336.067 156.545 336.067Z" fill="white"/>
<path d="M160.823 337.054V331.449H162.103V333.721H164.569V331.449H165.85V337.054H164.569V334.793H162.103V337.054H160.823Z" fill="white"/>
<path d="M168.654 337.054V332.553H166.855V331.449H171.744V332.553H169.945V337.054H168.654Z" fill="white"/>
<path d="M175.321 337.182C173.702 337.182 172.453 336.003 172.453 334.252C172.453 332.649 173.585 331.333 175.183 331.333C176.961 331.333 177.861 332.734 177.861 334.347C177.861 334.432 177.85 334.645 177.84 334.708H173.734C173.871 335.621 174.517 336.131 175.342 336.131C175.967 336.131 176.411 335.897 176.856 335.462L177.607 336.131C177.078 336.768 176.348 337.182 175.321 337.182ZM173.723 333.859H176.591C176.506 333.031 176.019 332.384 175.173 332.384C174.39 332.384 173.839 332.989 173.723 333.859Z" fill="white"/>
<path d="M179.147 337.054V331.449H180.417V334.135L182.851 331.449H184.354L182.184 333.806L184.534 337.054H183.02L181.327 334.74L180.417 335.706V337.054H179.147Z" fill="white"/>
<path d="M188.003 337.182C186.341 337.182 185.113 335.876 185.113 334.284V334.262C185.113 332.67 186.341 331.333 188.013 331.333C189.072 331.333 189.728 331.725 190.246 332.299L189.452 333.159C189.061 332.745 188.648 332.458 188.003 332.458C187.071 332.458 186.394 333.265 186.394 334.241V334.262C186.394 335.26 187.082 336.067 188.066 336.067C188.669 336.067 189.114 335.78 189.516 335.366L190.289 336.131C189.738 336.746 189.093 337.182 188.003 337.182Z" fill="white"/>
<path d="M192.611 337.054V332.553H190.811V331.449H195.701V332.553H193.902V337.054H192.611Z" fill="white"/>
<path d="M196.717 337.054V331.449H197.997V333.721H200.463V331.449H201.744V337.054H200.463V334.793H197.997V337.054H196.717Z" fill="white"/>
<path d="M206.008 337.182C204.304 337.182 203.045 335.876 203.045 334.262C203.045 332.66 204.315 331.333 206.029 331.333C207.744 331.333 209.003 332.638 209.003 334.262C209.003 335.855 207.733 337.182 206.008 337.182ZM206.029 336.067C207.066 336.067 207.722 335.25 207.722 334.262C207.722 333.275 207.013 332.458 206.008 332.458C204.981 332.458 204.325 333.265 204.325 334.262C204.325 335.239 205.034 336.067 206.029 336.067Z" fill="white"/>
<path d="M212.868 330.802C211.969 330.802 211.344 330.229 211.207 329.326L211.99 329.178C212.127 329.624 212.392 329.9 212.868 329.9C213.344 329.9 213.609 329.624 213.747 329.178L214.519 329.326C214.382 330.229 213.768 330.802 212.868 330.802ZM210.307 337.054V331.449H211.556V335.207C212.434 333.955 213.313 332.702 214.202 331.449H215.408V337.054H214.17V333.318L211.514 337.054H210.307Z" fill="white"/>
<path d="M157.996 353.614V346.311H159.277V347.245C159.69 346.661 160.272 346.194 161.171 346.194C162.494 346.194 163.775 347.245 163.775 349.124C163.775 350.981 162.505 352.032 161.171 352.032C160.25 352.032 159.668 351.565 159.277 351.045V353.614H157.996ZM160.875 350.918C161.753 350.918 162.473 350.228 162.473 349.103C162.473 348.02 161.743 347.309 160.875 347.309C160.007 347.309 159.245 348.03 159.245 349.124C159.245 350.207 160.007 350.918 160.875 350.918Z" fill="white"/>
<path d="M167.647 352.043C166.028 352.043 164.779 350.865 164.779 349.113C164.779 347.51 165.912 346.194 167.51 346.194C169.288 346.194 170.187 347.595 170.187 349.209C170.187 349.294 170.177 349.506 170.166 349.57H166.06C166.197 350.483 166.843 350.992 167.668 350.992C168.293 350.992 168.737 350.759 169.182 350.323L169.933 350.992C169.404 351.629 168.674 352.043 167.647 352.043ZM166.049 348.72H168.917C168.833 347.892 168.346 347.245 167.499 347.245C166.716 347.245 166.166 347.85 166.049 348.72Z" fill="white"/>
<path d="M171.473 351.916V346.311H172.743V348.996L175.177 346.311H176.68L174.511 348.667L176.86 351.916H175.347L173.653 349.601L172.743 350.567V351.916H171.473Z" fill="white"/>
<path d="M177.704 351.979C177.503 351.979 177.143 351.937 176.953 351.905L177.048 350.854C177.133 350.875 177.334 350.897 177.418 350.897C178.064 350.897 178.509 350.578 178.509 346.311H182.731V351.916H181.451V347.415H179.704C179.704 351.48 178.942 351.979 177.704 351.979Z" fill="white"/>
<path d="M189.029 351.916H187.759V351.226C187.378 351.682 186.796 352.032 185.949 352.032C184.891 352.032 183.959 351.427 183.959 350.281C183.959 349.039 184.922 348.444 186.224 348.444C186.901 348.444 187.335 348.54 187.769 348.678V348.572C187.769 347.797 187.282 347.372 186.393 347.372C185.769 347.372 185.303 347.51 184.795 347.723L184.446 346.693C185.06 346.417 185.663 346.226 186.573 346.226C188.224 346.226 189.029 347.096 189.029 348.593V351.916ZM187.79 349.888V349.57C187.462 349.442 187.007 349.347 186.51 349.347C185.706 349.347 185.229 349.676 185.229 350.238C185.229 350.769 185.706 351.066 186.309 351.066C187.155 351.066 187.79 350.589 187.79 349.888Z" fill="white"/>
<path d="M190.552 351.916V346.311H191.822L193.568 348.911L195.325 346.311H196.595V351.916H195.303V348.179L193.547 350.695L191.8 348.2V351.916H190.552Z" fill="white"/>
<path d="M198.2 351.916V346.311H199.48V348.275H200.655C201.914 348.275 202.877 348.827 202.877 350.047C202.877 351.204 202.062 351.916 200.75 351.916H198.2ZM199.48 350.875H200.581C201.226 350.875 201.597 350.589 201.597 350.047C201.597 349.548 201.216 349.272 200.56 349.272H199.48V350.875ZM203.724 351.916V346.311H205.005V351.916H203.724Z" fill="white"/>
<path d="M283.878 304.147V296.716H287.201C288.047 296.716 288.714 296.95 289.137 297.375C289.465 297.704 289.635 298.107 289.635 298.627C289.635 299.519 289.127 299.997 288.576 300.283C289.444 300.58 290.048 301.079 290.048 302.109C290.048 303.436 288.957 304.147 287.306 304.147H283.878ZM285.158 299.848H286.936C287.772 299.848 288.333 299.519 288.333 298.818C288.333 298.234 287.867 297.874 287.031 297.874H285.158V299.848ZM285.158 302.99H287.317C288.206 302.99 288.746 302.64 288.746 301.95C288.746 301.323 288.248 300.952 287.222 300.952H285.158V302.99Z" fill="white"/>
<path d="M293.928 304.275C292.309 304.275 291.06 303.096 291.06 301.345C291.06 299.742 292.192 298.426 293.791 298.426C295.568 298.426 296.468 299.827 296.468 301.44C296.468 301.525 296.457 301.737 296.447 301.801H292.341C292.478 302.714 293.124 303.224 293.949 303.224C294.574 303.224 295.018 302.99 295.463 302.555L296.214 303.224C295.685 303.861 294.955 304.275 293.928 304.275ZM292.33 300.952H295.198C295.113 300.124 294.627 299.476 293.78 299.476C292.997 299.476 292.447 300.082 292.33 300.952Z" fill="white"/>
<path d="M297.108 305.495V303.043H297.712C298.177 302.109 298.336 300.803 298.336 299.232V298.542H302.665V303.043H303.458L303.289 305.495H302.22V304.147H298.304L298.177 305.495H297.108ZM299.024 303.043H301.384V299.646H299.543V300.389C299.543 301.408 299.352 302.353 299.024 303.043Z" fill="white"/>
<path d="M307.085 304.275C305.465 304.275 304.217 303.096 304.217 301.345C304.217 299.742 305.349 298.426 306.947 298.426C308.725 298.426 309.625 299.827 309.625 301.44C309.625 301.525 309.614 301.737 309.603 301.801H305.497C305.635 302.714 306.28 303.224 307.106 303.224C307.73 303.224 308.175 302.99 308.619 302.555L309.371 303.224C308.841 303.861 308.111 304.275 307.085 304.275ZM305.487 300.952H308.355C308.27 300.124 307.783 299.476 306.936 299.476C306.153 299.476 305.603 300.082 305.487 300.952Z" fill="white"/>
<path d="M310.911 304.147V298.542H312.191V300.814H314.657V298.542H315.938V304.147H314.657V301.886H312.191V304.147H310.911Z" fill="white"/>
<path d="M317.546 304.147V298.542H318.794V302.3C319.673 301.047 320.551 299.795 321.44 298.542H322.647V304.147H321.409V300.411L318.752 304.147H317.546Z" fill="white"/>
<path d="M326.814 304.275C325.195 304.275 323.946 303.096 323.946 301.345C323.946 299.742 325.079 298.426 326.677 298.426C328.455 298.426 329.354 299.827 329.354 301.44C329.354 301.525 329.344 301.737 329.333 301.801H325.227C325.364 302.714 326.01 303.224 326.835 303.224C327.46 303.224 327.904 302.99 328.349 302.555L329.1 303.224C328.571 303.861 327.841 304.275 326.814 304.275ZM325.216 300.952H328.084C328 300.124 327.513 299.476 326.666 299.476C325.883 299.476 325.333 300.082 325.216 300.952Z" fill="white"/>
<path d="M272.475 319.008V313.404H273.744V316.089L276.179 313.404H277.681L275.512 315.76L277.861 319.008H276.348L274.655 316.694L273.744 317.66V319.008H272.475Z" fill="white"/>
<path d="M281.404 319.136C279.7 319.136 278.441 317.83 278.441 316.217C278.441 314.614 279.711 313.287 281.425 313.287C283.14 313.287 284.399 314.592 284.399 316.217C284.399 317.809 283.129 319.136 281.404 319.136ZM281.425 318.021C282.463 318.021 283.119 317.204 283.119 316.217C283.119 315.229 282.41 314.412 281.404 314.412C280.378 314.412 279.722 315.219 279.722 316.217C279.722 317.193 280.431 318.021 281.425 318.021Z" fill="white"/>
<path d="M285.703 319.008V313.404H286.984V315.675H289.45V313.404H290.73V319.008H289.45V316.747H286.984V319.008H285.703Z" fill="white"/>
<path d="M293.534 319.008V314.508H291.735V313.404H296.625V314.508H294.826V319.008H293.534Z" fill="white"/>
<path d="M300.201 319.136C298.582 319.136 297.333 317.958 297.333 316.206C297.333 314.603 298.466 313.287 300.064 313.287C301.842 313.287 302.741 314.688 302.741 316.302C302.741 316.386 302.731 316.599 302.72 316.662H298.614C298.752 317.575 299.397 318.085 300.223 318.085C300.847 318.085 301.292 317.851 301.736 317.416L302.487 318.085C301.958 318.722 301.228 319.136 300.201 319.136ZM298.603 315.813H301.471C301.387 314.985 300.9 314.338 300.053 314.338C299.27 314.338 298.72 314.943 298.603 315.813Z" fill="white"/>
<path d="M304.027 319.008V313.404H305.297V316.089L307.732 313.404H309.234L307.065 315.76L309.414 319.008H307.901L306.208 316.694L305.297 317.66V319.008H304.027Z" fill="white"/>
<path d="M312.883 319.136C311.222 319.136 309.994 317.83 309.994 316.238V316.217C309.994 314.624 311.222 313.287 312.894 313.287C313.952 313.287 314.608 313.68 315.127 314.253L314.333 315.113C313.941 314.699 313.529 314.412 312.883 314.412C311.952 314.412 311.274 315.219 311.274 316.195V316.217C311.274 317.214 311.962 318.021 312.947 318.021C313.55 318.021 313.994 317.735 314.396 317.321L315.169 318.085C314.619 318.701 313.973 319.136 312.883 319.136Z" fill="white"/>
<path d="M317.491 319.008V314.508H315.692V313.404H320.581V314.508H318.782V319.008H317.491Z" fill="white"/>
<path d="M321.597 319.008V313.404H322.878V315.675H325.343V313.404H326.624V319.008H325.343V316.747H322.878V319.008H321.597Z" fill="white"/>
<path d="M330.888 319.136C329.185 319.136 327.925 317.83 327.925 316.217C327.925 314.614 329.195 313.287 330.91 313.287C332.624 313.287 333.883 314.592 333.883 316.217C333.883 317.809 332.613 319.136 330.888 319.136ZM330.91 318.021C331.947 318.021 332.603 317.204 332.603 316.217C332.603 315.229 331.894 314.412 330.888 314.412C329.862 314.412 329.206 315.219 329.206 316.217C329.206 317.193 329.915 318.021 330.91 318.021Z" fill="white"/>
<path d="M337.749 312.756C336.849 312.756 336.225 312.183 336.087 311.281L336.87 311.132C337.008 311.578 337.272 311.854 337.749 311.854C338.225 311.854 338.49 311.578 338.627 311.132L339.4 311.281C339.262 312.183 338.648 312.756 337.749 312.756ZM335.188 319.008V313.404H336.436V317.161C337.315 315.909 338.193 314.656 339.082 313.404H340.289V319.008H339.05V315.272L336.394 319.008H335.188Z" fill="white"/>
<path d="M282.877 335.568V328.265H284.157V329.199C284.57 328.615 285.152 328.148 286.052 328.148C287.375 328.148 288.655 329.199 288.655 331.078C288.655 332.936 287.385 333.986 286.052 333.986C285.131 333.986 284.549 333.519 284.157 332.999V335.568H282.877ZM285.755 332.872C286.634 332.872 287.353 332.182 287.353 331.057C287.353 329.974 286.623 329.263 285.755 329.263C284.888 329.263 284.126 329.985 284.126 331.078C284.126 332.161 284.888 332.872 285.755 332.872Z" fill="white"/>
<path d="M292.528 333.997C290.908 333.997 289.66 332.819 289.66 331.067C289.66 329.464 290.792 328.148 292.39 328.148C294.168 328.148 295.068 329.549 295.068 331.163C295.068 331.248 295.057 331.46 295.046 331.524H290.94C291.078 332.437 291.723 332.946 292.549 332.946C293.173 332.946 293.618 332.713 294.062 332.277L294.814 332.946C294.284 333.583 293.554 333.997 292.528 333.997ZM290.93 330.675H293.798C293.713 329.847 293.226 329.199 292.38 329.199C291.596 329.199 291.046 329.804 290.93 330.675Z" fill="white"/>
<path d="M296.354 333.87V328.265H297.624V330.951L300.058 328.265H301.561L299.391 330.621L301.74 333.87H300.227L298.534 331.556L297.624 332.522V333.87H296.354Z" fill="white"/>
<path d="M302.585 333.933C302.384 333.933 302.024 333.891 301.833 333.859L301.929 332.808C302.013 332.829 302.214 332.851 302.299 332.851C302.945 332.851 303.389 332.532 303.389 328.265H307.612V333.87H306.331V329.369H304.585C304.585 333.434 303.823 333.933 302.585 333.933Z" fill="white"/>
<path d="M313.909 333.87H312.639V333.18C312.258 333.636 311.676 333.986 310.829 333.986C309.771 333.986 308.84 333.381 308.84 332.235C308.84 330.993 309.803 330.399 311.105 330.399C311.782 330.399 312.216 330.494 312.65 330.632V330.526C312.65 329.751 312.163 329.326 311.274 329.326C310.65 329.326 310.184 329.464 309.676 329.677L309.327 328.647C309.94 328.371 310.544 328.18 311.454 328.18C313.105 328.18 313.909 329.05 313.909 330.547V333.87ZM312.671 331.842V331.524C312.343 331.396 311.888 331.301 311.39 331.301C310.586 331.301 310.11 331.63 310.11 332.193C310.11 332.723 310.586 333.021 311.189 333.021C312.036 333.021 312.671 332.543 312.671 331.842Z" fill="white"/>
<path d="M315.432 333.87V328.265H316.702L318.448 330.866L320.205 328.265H321.475V333.87H320.184V330.133L318.427 332.649L316.681 330.154V333.87H315.432Z" fill="white"/>
<path d="M323.08 333.87V328.265H324.361V330.229H325.535C326.795 330.229 327.758 330.781 327.758 332.001C327.758 333.159 326.943 333.87 325.631 333.87H323.08ZM324.361 332.829H325.461C326.107 332.829 326.477 332.543 326.477 332.001C326.477 331.503 326.096 331.227 325.44 331.227H324.361V332.829ZM328.604 333.87V328.265H329.885V333.87H328.604Z" fill="white"/>
<path d="M35.2388 143.857V141.097H35.9584C36.5723 139.877 36.9003 138.369 36.9003 135.885V134.834H42.0649V141.097H42.9856L42.8057 143.857H41.7262V142.265H36.5088L36.3818 143.857H35.2388ZM37.3448 141.097H40.7632V136.013H38.1491V136.862C38.1491 138.582 37.8528 140.068 37.3448 141.097Z" fill="white"/>
<path d="M43.9986 142.265V136.66H45.2474V140.418C46.1258 139.165 47.0042 137.913 47.8932 136.66H49.0997V142.265H47.8615V138.529L45.2051 142.265H43.9986Z" fill="white"/>
<path d="M52.611 142.392C51.6162 142.392 50.8225 142.095 50.1663 141.533L50.7696 140.683C51.267 141.108 51.8914 141.352 52.5264 141.352C53.1084 141.352 53.5847 141.044 53.5847 140.577C53.5847 140.163 53.1825 139.877 52.4523 139.877H51.7644V138.953H52.4523C53.0555 138.953 53.4365 138.645 53.4365 138.221C53.4365 137.839 53.0449 137.584 52.5158 137.584C51.9337 137.584 51.3516 137.785 50.9283 138.157L50.3568 137.35C50.9283 136.851 51.722 136.544 52.6322 136.544C53.8598 136.544 54.7171 137.18 54.7171 138.051C54.7171 138.73 54.3255 139.112 53.8387 139.325C54.4419 139.537 54.8546 139.962 54.8546 140.683C54.8546 141.628 53.9657 142.392 52.611 142.392Z" fill="white"/>
<path d="M60.872 142.265H59.602V141.575C59.221 142.032 58.6389 142.382 57.7923 142.382C56.734 142.382 55.8027 141.777 55.8027 140.63C55.8027 139.388 56.7657 138.794 58.0674 138.794C58.7448 138.794 59.1787 138.889 59.6126 139.027V138.921C59.6126 138.146 59.1257 137.722 58.2368 137.722C57.6124 137.722 57.1467 137.86 56.6387 138.072L56.2895 137.042C56.9033 136.766 57.5065 136.575 58.4167 136.575C60.0676 136.575 60.872 137.446 60.872 138.943V142.265ZM59.6337 140.238V139.919C59.3057 139.792 58.8506 139.696 58.3532 139.696C57.5489 139.696 57.0726 140.025 57.0726 140.588C57.0726 141.119 57.5489 141.416 58.1521 141.416C58.9987 141.416 59.6337 140.938 59.6337 140.238Z" fill="white"/>
<path d="M64.9561 136.013C64.0566 136.013 63.4322 135.44 63.2946 134.537L64.0777 134.389C64.2153 134.834 64.4799 135.11 64.9561 135.11C65.4324 135.11 65.6969 134.834 65.8345 134.389L66.6071 134.537C66.4695 135.44 65.8557 136.013 64.9561 136.013ZM62.395 142.265V136.66H63.6438V140.418C64.5222 139.165 65.4006 137.913 66.2896 136.66H67.4961V142.265H66.2578V138.529L63.6015 142.265H62.395Z" fill="white"/>
<path d="M69.1025 142.265V136.66H70.383V138.932H72.8489V136.66H74.1294V142.265H72.8489V140.004H70.383V142.265H69.1025Z" fill="white"/>
<path d="M8.93068 158.825V156.723C8.65552 156.988 8.21103 157.211 7.65013 157.211C6.32724 157.211 5.38535 156.16 5.38535 154.324C5.38535 152.519 6.32724 151.437 7.66071 151.437C8.22161 151.437 8.65552 151.713 8.93068 151.999V149.696H10.2112V151.999C10.4864 151.713 10.9203 151.437 11.4812 151.437C12.8147 151.437 13.7566 152.519 13.7566 154.335C13.7566 156.16 12.8147 157.211 11.4918 157.211C10.9097 157.211 10.4864 156.988 10.2112 156.723V158.825H8.93068ZM8.03112 156.139C8.40153 156.139 8.66611 156.001 8.93068 155.768V152.923C8.66611 152.679 8.40153 152.53 8.03112 152.53C7.14214 152.53 6.67648 153.252 6.67648 154.345C6.67648 155.46 7.12097 156.139 8.03112 156.139ZM11.1214 156.139C12.0315 156.139 12.4654 155.46 12.4654 154.335C12.4654 153.252 12.0104 152.53 11.1214 152.53C10.7616 152.53 10.4758 152.7 10.2112 152.923V155.768C10.4758 156.001 10.751 156.139 11.1214 156.139Z" fill="white"/>
<path d="M15.076 157.126V151.522H16.3248V155.279C17.2032 154.027 18.0816 152.774 18.9706 151.522H20.177V157.126H18.9388V153.39L16.2825 157.126H15.076Z" fill="white"/>
<path d="M21.7834 158.825V151.522H23.064V152.456C23.4767 151.872 24.0588 151.405 24.9584 151.405C26.2812 151.405 27.5618 152.456 27.5618 154.335C27.5618 156.192 26.2918 157.243 24.9584 157.243C24.0376 157.243 23.4556 156.776 23.064 156.256V158.825H21.7834ZM24.662 156.129C25.5404 156.129 26.2601 155.439 26.2601 154.313C26.2601 153.231 25.5298 152.519 24.662 152.519C23.7942 152.519 23.0322 153.241 23.0322 154.335C23.0322 155.417 23.7942 156.129 24.662 156.129Z" fill="white"/>
<path d="M28.8733 157.126V151.522H30.1432L31.8895 154.122L33.6463 151.522H34.9162V157.126H33.6251V153.39L31.8683 155.906L30.1221 153.411V157.126H28.8733Z" fill="white"/>
<path d="M39.0823 157.254C37.4631 157.254 36.2143 156.076 36.2143 154.324C36.2143 152.721 37.3467 151.405 38.9447 151.405C40.7227 151.405 41.6223 152.806 41.6223 154.42C41.6223 154.504 41.6117 154.717 41.6011 154.78H37.4949C37.6324 155.693 38.278 156.203 39.1035 156.203C39.7279 156.203 40.1724 155.969 40.6169 155.534L41.3683 156.203C40.8391 156.84 40.1089 157.254 39.0823 157.254ZM37.4843 153.931H40.3523C40.2676 153.103 39.7808 152.456 38.9342 152.456C38.151 152.456 37.6007 153.061 37.4843 153.931Z" fill="white"/>
<path d="M42.9083 157.126V151.522H44.1888V153.793H46.6547V151.522H47.9352V157.126H46.6547V154.865H44.1888V157.126H42.9083Z" fill="white"/>
<path d="M49.5434 157.126V151.522H50.8239V153.793H53.2898V151.522H54.5703V157.126H53.2898V154.865H50.8239V157.126H49.5434Z" fill="white"/>
<path d="M58.8348 157.254C57.131 157.254 55.8716 155.948 55.8716 154.335C55.8716 152.732 57.1415 151.405 58.856 151.405C60.5705 151.405 61.8298 152.71 61.8298 154.335C61.8298 155.927 60.5599 157.254 58.8348 157.254ZM58.856 156.139C59.8931 156.139 60.5493 155.322 60.5493 154.335C60.5493 153.347 59.8402 152.53 58.8348 152.53C57.8083 152.53 57.1521 153.337 57.1521 154.335C57.1521 155.311 57.8612 156.139 58.856 156.139Z" fill="white"/>
<path d="M63.134 157.126V151.522H67.092V152.626H64.4145V157.126H63.134Z" fill="white"/>
<path d="M70.7615 157.254C69.0576 157.254 67.7982 155.948 67.7982 154.335C67.7982 152.732 69.0682 151.405 70.7826 151.405C72.4971 151.405 73.7565 152.71 73.7565 154.335C73.7565 155.927 72.4865 157.254 70.7615 157.254ZM70.7826 156.139C71.8198 156.139 72.4759 155.322 72.4759 154.335C72.4759 153.347 71.7669 152.53 70.7615 152.53C69.7349 152.53 69.0788 153.337 69.0788 154.335C69.0788 155.311 69.7878 156.139 70.7826 156.139Z" fill="white"/>
<path d="M80.8157 157.254C79.1542 157.254 77.9266 155.948 77.9266 154.356V154.335C77.9266 152.742 79.1542 151.405 80.8263 151.405C81.8846 151.405 82.5408 151.798 83.0594 152.371L82.2656 153.231C81.8741 152.817 81.4613 152.53 80.8157 152.53C79.8844 152.53 79.2071 153.337 79.2071 154.313V154.335C79.2071 155.332 79.895 156.139 80.8792 156.139C81.4825 156.139 81.927 155.853 82.3291 155.439L83.1017 156.203C82.5514 156.819 81.9058 157.254 80.8157 157.254Z" fill="white"/>
<path d="M85.4237 157.126V152.626H83.6246V151.522H88.514V152.626H86.7148V157.126H85.4237Z" fill="white"/>
<path d="M89.5297 157.126V151.522H90.7785V155.279C91.6569 154.027 92.5353 152.774 93.4243 151.522H94.6307V157.126H93.3925V153.39L90.7362 157.126H89.5297Z" fill="white"/>
<path d="M96.1948 157.19C95.9937 157.19 95.6339 157.148 95.4434 157.116L95.5386 156.065C95.6233 156.086 95.8244 156.107 95.909 156.107C96.5546 156.107 96.9991 155.789 96.9991 151.522H101.222V157.126H99.9412V152.626H98.195C98.195 156.691 97.433 157.19 96.1948 157.19Z" fill="white"/>
<path d="M102.323 157.126L103.868 155.025C103.106 154.791 102.566 154.228 102.566 153.347C102.566 152.265 103.36 151.522 104.768 151.522H107.572V157.126H106.292V155.237H105.149L103.826 157.126H102.323ZM104.948 154.271H106.292V152.562H104.937C104.26 152.562 103.847 152.88 103.847 153.411C103.847 153.952 104.291 154.271 104.948 154.271Z" fill="white"/>
<path d="M48.7395 265.508C47.6071 265.508 46.5382 265.115 45.6492 264.319L46.4324 263.385C47.1414 264 47.8505 264.351 48.7712 264.351C49.5755 264.351 50.0835 263.979 50.0835 263.395C50.0835 262.865 49.7872 262.578 48.4114 262.249C46.8345 261.877 45.9455 261.41 45.9455 260.02C45.9455 258.746 47.0038 257.865 48.4749 257.865C49.5544 257.865 50.4116 258.194 51.163 258.799L50.4645 259.786C49.7978 259.287 49.1311 259.022 48.4537 259.022C47.6917 259.022 47.2473 259.415 47.2473 259.924C47.2473 260.497 47.5859 260.752 49.0041 261.092C50.5703 261.474 51.3852 262.037 51.3852 263.289C51.3852 264.68 50.2952 265.508 48.7395 265.508Z" fill="white"/>
<path d="M52.9161 265.402V257.971H58.4087V259.139H54.2178V261.071H57.9325V262.238H54.2178V264.234H58.4616V265.402H52.9161Z" fill="white"/>
<path d="M63.5407 265.529C61.2653 265.529 59.6778 263.799 59.6778 261.686C59.6778 259.595 61.2865 257.844 63.5618 257.844C65.8372 257.844 67.4247 259.574 67.4247 261.686C67.4247 263.777 65.816 265.529 63.5407 265.529ZM63.5618 264.329C65.0329 264.329 66.0594 263.151 66.0594 261.686C66.0594 260.243 65.0117 259.043 63.5407 259.043C62.0696 259.043 61.0431 260.221 61.0431 261.686C61.0431 263.13 62.0908 264.329 63.5618 264.329Z" fill="white"/>
<path d="M19.5562 280.263V274.658H24.5409V280.263H23.2603V275.762H20.8368V280.263H19.5562Z" fill="white"/>
<path d="M26.15 281.961V274.658H27.4305V275.592C27.8433 275.008 28.4254 274.541 29.3249 274.541C30.6478 274.541 31.9284 275.592 31.9284 277.471C31.9284 279.329 30.6584 280.38 29.3249 280.38C28.4042 280.38 27.8221 279.913 27.4305 279.392V281.961H26.15ZM29.0286 279.265C29.907 279.265 30.6266 278.575 30.6266 277.45C30.6266 276.367 29.8964 275.656 29.0286 275.656C28.1608 275.656 27.3988 276.378 27.3988 277.471C27.3988 278.554 28.1608 279.265 29.0286 279.265Z" fill="white"/>
<path d="M35.8962 280.39C34.1923 280.39 32.9329 279.085 32.9329 277.471C32.9329 275.868 34.2029 274.541 35.9174 274.541C37.6318 274.541 38.8912 275.847 38.8912 277.471C38.8912 279.063 37.6212 280.39 35.8962 280.39ZM35.9174 279.276C36.9545 279.276 37.6106 278.458 37.6106 277.471C37.6106 276.484 36.9016 275.667 35.8962 275.667C34.8696 275.667 34.2135 276.473 34.2135 277.471C34.2135 278.448 34.9225 279.276 35.9174 279.276Z" fill="white"/>
<path d="M39.5498 281.611V279.159H40.153C40.6186 278.225 40.7774 276.919 40.7774 275.348V274.658H45.1059V279.159H45.8996L45.7303 281.611H44.6614V280.263H40.7456L40.6186 281.611H39.5498ZM41.4653 279.159H43.8253V275.762H41.9839V276.505C41.9839 277.524 41.7934 278.469 41.4653 279.159Z" fill="white"/>
<path d="M46.9648 280.263V274.658H49.8328C50.944 274.658 51.6743 275.199 51.6743 276.059C51.6743 276.77 51.2509 277.131 50.7747 277.344C51.452 277.535 51.9282 277.949 51.9282 278.745C51.9282 279.69 51.1345 280.263 49.8645 280.263H46.9648ZM48.2242 279.244H49.6741C50.2985 279.244 50.6265 278.957 50.6265 278.522C50.6265 278.119 50.2985 277.843 49.6105 277.843H48.2242V279.244ZM48.2242 276.972H49.5365C50.0762 276.972 50.3725 276.686 50.3725 276.282C50.3725 275.921 50.1291 275.645 49.5576 275.645H48.2242V276.972Z" fill="white"/>
<path d="M53.2071 280.263V274.658H54.456V278.416C55.3344 277.163 56.2127 275.911 57.1017 274.658H58.3082V280.263H57.07V276.526L54.4136 280.263H53.2071Z" fill="white"/>
<path d="M59.2055 280.263L61.3962 277.015L59.2902 274.658H60.7824L63.1001 277.407V274.658H64.3807V277.407L66.7089 274.658H68.2012L66.0951 277.015L68.2752 280.263H66.8359L65.2379 277.874L64.3807 278.851V280.263H63.1001V278.851L62.2429 277.874L60.6448 280.263H59.2055Z" fill="white"/>
<path d="M71.7359 280.39C70.1167 280.39 68.8679 279.212 68.8679 277.46C68.8679 275.858 70.0003 274.541 71.5983 274.541C73.3763 274.541 74.2759 275.943 74.2759 277.556C74.2759 277.641 74.2653 277.853 74.2547 277.917H70.1484C70.286 278.83 70.9316 279.339 71.7571 279.339C72.3815 279.339 72.826 279.106 73.2705 278.671L74.0219 279.339C73.4927 279.976 72.7625 280.39 71.7359 280.39ZM70.1379 277.068H73.0059C72.9212 276.24 72.4344 275.592 71.5877 275.592C70.8046 275.592 70.2543 276.197 70.1379 277.068Z" fill="white"/>
<path d="M75.5619 280.263V274.658H76.8424V276.93H79.3083V274.658H80.5888V280.263H79.3083V278.002H76.8424V280.263H75.5619Z" fill="white"/>
<path d="M82.197 280.263V274.658H83.4458V278.416C84.3242 277.163 85.2026 275.911 86.0915 274.658H87.298V280.263H86.0598V276.526L83.4034 280.263H82.197Z" fill="white"/>
<path d="M91.4655 280.39C89.8463 280.39 88.5975 279.212 88.5975 277.46C88.5975 275.858 89.7299 274.541 91.3279 274.541C93.1059 274.541 94.0055 275.943 94.0055 277.556C94.0055 277.641 93.9949 277.853 93.9843 277.917H89.8781C90.0156 278.83 90.6612 279.339 91.4867 279.339C92.1111 279.339 92.5556 279.106 93.0001 278.671L93.7515 279.339C93.2223 279.976 92.4921 280.39 91.4655 280.39ZM89.8675 277.068H92.7355C92.6508 276.24 92.164 275.592 91.3174 275.592C90.5342 275.592 89.9839 276.197 89.8675 277.068Z" fill="white"/>
<path d="M173.62 156.702C172.488 156.702 171.419 156.309 170.53 155.513L171.313 154.579C172.022 155.194 172.731 155.545 173.652 155.545C174.456 155.545 174.964 155.173 174.964 154.589C174.964 154.059 174.668 153.772 173.292 153.443C171.715 153.071 170.826 152.604 170.826 151.214C170.826 149.94 171.884 149.059 173.355 149.059C174.435 149.059 175.292 149.388 176.043 149.993L175.345 150.98C174.678 150.481 174.012 150.216 173.334 150.216C172.572 150.216 172.128 150.609 172.128 151.118C172.128 151.691 172.466 151.946 173.885 152.286C175.451 152.668 176.266 153.231 176.266 154.483C176.266 155.874 175.176 156.702 173.62 156.702Z" fill="white"/>
<path d="M177.797 156.596V149.165H183.289V150.333H179.098V152.265H182.813V153.432H179.098V155.428H183.342V156.596H177.797Z" fill="white"/>
<path d="M188.421 156.723C186.146 156.723 184.558 154.993 184.558 152.88C184.558 150.789 186.167 149.038 188.442 149.038C190.718 149.038 192.305 150.768 192.305 152.88C192.305 154.972 190.697 156.723 188.421 156.723ZM188.442 155.523C189.913 155.523 190.94 154.345 190.94 152.88C190.94 151.437 189.892 150.237 188.421 150.237C186.95 150.237 185.924 151.415 185.924 152.88C185.924 154.324 186.971 155.523 188.442 155.523Z" fill="white"/>
<path d="M144.437 171.457V165.852H149.421V171.457H148.141V166.956H145.717V171.457H144.437Z" fill="white"/>
<path d="M151.03 173.155V165.852H152.311V166.786C152.724 166.202 153.306 165.735 154.205 165.735C155.528 165.735 156.809 166.786 156.809 168.665C156.809 170.523 155.539 171.574 154.205 171.574C153.285 171.574 152.703 171.107 152.311 170.586V173.155H151.03ZM153.909 170.459C154.787 170.459 155.507 169.769 155.507 168.644C155.507 167.561 154.777 166.85 153.909 166.85C153.041 166.85 152.279 167.572 152.279 168.665C152.279 169.748 153.041 170.459 153.909 170.459Z" fill="white"/>
<path d="M160.777 171.584C159.073 171.584 157.813 170.279 157.813 168.665C157.813 167.062 159.083 165.735 160.798 165.735C162.512 165.735 163.772 167.041 163.772 168.665C163.772 170.257 162.502 171.584 160.777 171.584ZM160.798 170.47C161.835 170.47 162.491 169.652 162.491 168.665C162.491 167.678 161.782 166.861 160.777 166.861C159.75 166.861 159.094 167.667 159.094 168.665C159.094 169.642 159.803 170.47 160.798 170.47Z" fill="white"/>
<path d="M164.43 172.805V170.353H165.033C165.499 169.419 165.658 168.113 165.658 166.542V165.852H169.986V170.353H170.78L170.611 172.805H169.542V171.457H165.626L165.499 172.805H164.43ZM166.346 170.353H168.706V166.956H166.864V167.699C166.864 168.718 166.674 169.663 166.346 170.353Z" fill="white"/>
<path d="M171.845 171.457V165.852H174.713C175.824 165.852 176.555 166.393 176.555 167.253C176.555 167.965 176.131 168.325 175.655 168.538C176.332 168.729 176.809 169.143 176.809 169.939C176.809 170.884 176.015 171.457 174.745 171.457H171.845ZM173.105 170.438H174.555C175.179 170.438 175.507 170.151 175.507 169.716C175.507 169.313 175.179 169.037 174.491 169.037H173.105V170.438ZM173.105 168.166H174.417C174.957 168.166 175.253 167.88 175.253 167.476C175.253 167.115 175.01 166.839 174.438 166.839H173.105V168.166Z" fill="white"/>
<path d="M178.088 171.457V165.852H179.336V169.61C180.215 168.357 181.093 167.105 181.982 165.852H183.189V171.457H181.95V167.72L179.294 171.457H178.088Z" fill="white"/>
<path d="M184.086 171.457L186.277 168.209L184.171 165.852H185.663L187.981 168.601V165.852H189.261V168.601L191.589 165.852H193.082L190.976 168.209L193.156 171.457H191.716L190.118 169.069L189.261 170.045V171.457H187.981V170.045L187.123 169.069L185.525 171.457H184.086Z" fill="white"/>
<path d="M196.616 171.584C194.997 171.584 193.748 170.406 193.748 168.655C193.748 167.052 194.881 165.735 196.479 165.735C198.257 165.735 199.156 167.137 199.156 168.75C199.156 168.835 199.146 169.047 199.135 169.111H195.029C195.166 170.024 195.812 170.533 196.638 170.533C197.262 170.533 197.706 170.3 198.151 169.865L198.902 170.533C198.373 171.17 197.643 171.584 196.616 171.584ZM195.018 168.262H197.886C197.802 167.434 197.315 166.786 196.468 166.786C195.685 166.786 195.135 167.391 195.018 168.262Z" fill="white"/>
<path d="M200.442 171.457V165.852H201.723V168.124H204.189V165.852H205.469V171.457H204.189V169.196H201.723V171.457H200.442Z" fill="white"/>
<path d="M207.077 171.457V165.852H208.326V169.61C209.205 168.357 210.083 167.105 210.972 165.852H212.178V171.457H210.94V167.72L208.284 171.457H207.077Z" fill="white"/>
<path d="M216.346 171.584C214.727 171.584 213.478 170.406 213.478 168.655C213.478 167.052 214.61 165.735 216.208 165.735C217.986 165.735 218.886 167.137 218.886 168.75C218.886 168.835 218.875 169.047 218.865 169.111H214.759C214.896 170.024 215.542 170.533 216.367 170.533C216.992 170.533 217.436 170.3 217.881 169.865L218.632 170.533C218.103 171.17 217.373 171.584 216.346 171.584ZM214.748 168.262H217.616C217.531 167.434 217.044 166.786 216.198 166.786C215.415 166.786 214.864 167.391 214.748 168.262Z" fill="white"/>
<path d="M298.5 158.294C297.368 158.294 296.299 157.901 295.41 157.105L296.193 156.171C296.902 156.787 297.611 157.137 298.532 157.137C299.336 157.137 299.844 156.765 299.844 156.182C299.844 155.651 299.548 155.364 298.172 155.035C296.595 154.664 295.706 154.197 295.706 152.806C295.706 151.532 296.765 150.651 298.236 150.651C299.315 150.651 300.173 150.98 300.924 151.585L300.225 152.572C299.559 152.074 298.892 151.808 298.215 151.808C297.453 151.808 297.008 152.201 297.008 152.71C297.008 153.284 297.347 153.538 298.765 153.878C300.331 154.26 301.146 154.823 301.146 156.075C301.146 157.466 300.056 158.294 298.5 158.294Z" fill="white"/>
<path d="M302.677 158.188V150.757H308.17V151.925H303.979V153.857H307.693V155.025H303.979V157.02H308.223V158.188H302.677Z" fill="white"/>
<path d="M313.302 158.315C311.026 158.315 309.439 156.585 309.439 154.473C309.439 152.381 311.047 150.63 313.323 150.63C315.598 150.63 317.186 152.36 317.186 154.473C317.186 156.564 315.577 158.315 313.302 158.315ZM313.323 157.116C314.794 157.116 315.82 155.938 315.82 154.473C315.82 153.029 314.773 151.829 313.302 151.829C311.831 151.829 310.804 153.008 310.804 154.473C310.804 155.916 311.852 157.116 313.323 157.116Z" fill="white"/>
<path d="M269.317 173.049V167.444H274.302V173.049H273.021V168.548H270.598V173.049H269.317Z" fill="white"/>
<path d="M275.911 174.748V167.444H277.191V168.379C277.604 167.795 278.186 167.328 279.086 167.328C280.409 167.328 281.689 168.379 281.689 170.257C281.689 172.115 280.419 173.166 279.086 173.166C278.165 173.166 277.583 172.699 277.191 172.179V174.748H275.911ZM278.79 172.051C279.668 172.051 280.388 171.361 280.388 170.236C280.388 169.153 279.657 168.442 278.79 168.442C277.922 168.442 277.16 169.164 277.16 170.257C277.16 171.34 277.922 172.051 278.79 172.051Z" fill="white"/>
<path d="M285.657 173.177C283.953 173.177 282.694 171.871 282.694 170.257C282.694 168.655 283.964 167.328 285.678 167.328C287.393 167.328 288.652 168.633 288.652 170.257C288.652 171.85 287.382 173.177 285.657 173.177ZM285.678 172.062C286.715 172.062 287.372 171.245 287.372 170.257C287.372 169.27 286.663 168.453 285.657 168.453C284.631 168.453 283.974 169.26 283.974 170.257C283.974 171.234 284.684 172.062 285.678 172.062Z" fill="white"/>
<path d="M289.311 174.397V171.945H289.914C290.38 171.011 290.538 169.705 290.538 168.134V167.444H294.867V171.945H295.661L295.491 174.397H294.422V173.049H290.507L290.38 174.397H289.311ZM291.226 171.945H293.586V168.548H291.745V169.291C291.745 170.31 291.554 171.255 291.226 171.945Z" fill="white"/>
<path d="M296.726 173.049V167.444H299.594C300.705 167.444 301.435 167.986 301.435 168.846C301.435 169.557 301.012 169.918 300.536 170.13C301.213 170.321 301.689 170.735 301.689 171.531C301.689 172.476 300.895 173.049 299.625 173.049H296.726ZM297.985 172.03H299.435C300.059 172.03 300.387 171.744 300.387 171.308C300.387 170.905 300.059 170.629 299.372 170.629H297.985V172.03ZM297.985 169.758H299.297C299.837 169.758 300.133 169.472 300.133 169.069C300.133 168.708 299.89 168.432 299.319 168.432H297.985V169.758Z" fill="white"/>
<path d="M302.968 173.049V167.444H304.217V171.202C305.095 169.95 305.974 168.697 306.863 167.444H308.069V173.049H306.831V169.313L304.175 173.049H302.968Z" fill="white"/>
<path d="M308.966 173.049L311.157 169.801L309.051 167.444H310.543L312.861 170.194V167.444H314.142V170.194L316.47 167.444H317.962L315.856 169.801L318.036 173.049H316.597L314.999 170.661L314.142 171.637V173.049H312.861V171.637L312.004 170.661L310.406 173.049H308.966Z" fill="white"/>
<path d="M321.497 173.177C319.878 173.177 318.629 171.998 318.629 170.247C318.629 168.644 319.761 167.328 321.359 167.328C323.137 167.328 324.037 168.729 324.037 170.342C324.037 170.427 324.026 170.64 324.016 170.703H319.909C320.047 171.616 320.693 172.126 321.518 172.126C322.142 172.126 322.587 171.892 323.031 171.457L323.783 172.126C323.254 172.763 322.523 173.177 321.497 173.177ZM319.899 169.854H322.767C322.682 169.026 322.195 168.379 321.349 168.379C320.566 168.379 320.015 168.984 319.899 169.854Z" fill="white"/>
<path d="M325.323 173.049V167.444H326.603V169.716H329.069V167.444H330.35V173.049H329.069V170.788H326.603V173.049H325.323Z" fill="white"/>
<path d="M331.958 173.049V167.444H333.207V171.202C334.085 169.95 334.964 168.697 335.852 167.444H337.059V173.049H335.821V169.313L333.164 173.049H331.958Z" fill="white"/>
<path d="M341.226 173.177C339.607 173.177 338.358 171.998 338.358 170.247C338.358 168.644 339.491 167.328 341.089 167.328C342.867 167.328 343.766 168.729 343.766 170.342C343.766 170.427 343.756 170.64 343.745 170.703H339.639C339.777 171.616 340.422 172.126 341.248 172.126C341.872 172.126 342.317 171.892 342.761 171.457L343.512 172.126C342.983 172.763 342.253 173.177 341.226 173.177ZM339.628 169.854H342.496C342.412 169.026 341.925 168.379 341.078 168.379C340.295 168.379 339.745 168.984 339.628 169.854Z" fill="white"/>
<path d="M249.761 31.8669C249.761 27.4699 253.315 23.9055 257.698 23.9055H355.063C359.446 23.9055 363 27.4699 363 31.8669V62.1202C363 66.5172 359.446 70.0816 355.063 70.0816H257.698C253.315 70.0816 249.761 66.5172 249.761 62.1202V31.8669Z" fill="#EC407A"/>
<path d="M272.046 49.9127L274.067 47.1209C273.03 46.8343 272.3 46.0806 272.3 44.8493C272.3 43.4056 273.348 42.4821 275.062 42.4821H278.354V49.9127H277.062V47.3439H275.422L273.581 49.9127H272.046ZM275.147 46.208H277.062V43.6604H275.168C274.194 43.6604 273.612 44.1274 273.612 44.9342C273.612 45.7091 274.216 46.208 275.147 46.208Z" fill="white"/>
<path d="M280.107 49.9127V44.3079H281.388V46.5796H283.853V44.3079H285.134V49.9127H283.853V47.6517H281.388V49.9127H280.107Z" fill="white"/>
<path d="M286.096 51.2609V48.8088H286.7C287.165 47.8746 287.324 46.5689 287.324 44.9979V44.3079H291.653V48.8088H292.446L292.277 51.2609H291.208V49.9127H287.292L287.165 51.2609H286.096ZM288.012 48.8088H290.372V45.4119H288.531V46.1549C288.531 47.174 288.34 48.1188 288.012 48.8088Z" fill="white"/>
<path d="M296.073 50.0401C294.453 50.0401 293.205 48.8618 293.205 47.1103C293.205 45.5074 294.337 44.1911 295.935 44.1911C297.713 44.1911 298.613 45.5923 298.613 47.2059C298.613 47.2908 298.602 47.5031 298.591 47.5668H294.485C294.623 48.4797 295.268 48.9892 296.094 48.9892C296.718 48.9892 297.163 48.7557 297.607 48.3205L298.359 48.9892C297.829 49.6261 297.099 50.0401 296.073 50.0401ZM294.475 46.7176H297.343C297.258 45.8896 296.771 45.242 295.924 45.242C295.141 45.242 294.591 45.8471 294.475 46.7176Z" fill="white"/>
<path d="M299.899 49.9127V44.3079H301.169V46.9936L303.603 44.3079H305.105L302.936 46.6645L305.285 49.9127H303.772L302.079 47.5986L301.169 48.5646V49.9127H299.899Z" fill="white"/>
<path d="M308.754 50.0401C307.093 50.0401 305.865 48.7344 305.865 47.1422V47.1209C305.865 45.5287 307.093 44.1911 308.765 44.1911C309.823 44.1911 310.479 44.5839 310.998 45.1571L310.204 46.017C309.813 45.603 309.4 45.3163 308.754 45.3163C307.823 45.3163 307.146 46.1231 307.146 47.0997V47.1209C307.146 48.1188 307.834 48.9255 308.818 48.9255C309.421 48.9255 309.865 48.6389 310.268 48.2249L311.04 48.9892C310.49 49.6049 309.844 50.0401 308.754 50.0401Z" fill="white"/>
<path d="M314.641 51.505V48.7451H315.36C315.974 47.5243 316.302 46.017 316.302 43.533V42.4821H321.467V48.7451H322.388L322.208 51.505H321.128V49.9127H315.911L315.784 51.505H314.641ZM316.747 48.7451H320.165V43.6604H317.551V44.5096C317.551 46.2293 317.255 47.7154 316.747 48.7451Z" fill="white"/>
<path d="M325.305 50.0401C324.311 50.0401 323.517 49.7429 322.861 49.1803L323.464 48.3311C323.961 48.7557 324.586 48.9998 325.221 48.9998C325.803 48.9998 326.279 48.692 326.279 48.2249C326.279 47.8109 325.877 47.5243 325.147 47.5243H324.459V46.6008H325.147C325.75 46.6008 326.131 46.2929 326.131 45.8683C326.131 45.4862 325.739 45.2314 325.21 45.2314C324.628 45.2314 324.046 45.4331 323.623 45.8046L323.051 44.9979C323.623 44.499 324.416 44.1911 325.327 44.1911C326.554 44.1911 327.411 44.828 327.411 45.6985C327.411 46.3779 327.02 46.76 326.533 46.9723C327.136 47.1846 327.549 47.6092 327.549 48.3311C327.549 49.2758 326.66 50.0401 325.305 50.0401Z" fill="white"/>
<path d="M331.439 50.0401C329.82 50.0401 328.571 48.8618 328.571 47.1103C328.571 45.5074 329.704 44.1911 331.302 44.1911C333.08 44.1911 333.979 45.5923 333.979 47.2059C333.979 47.2908 333.969 47.5031 333.958 47.5668H329.852C329.989 48.4797 330.635 48.9892 331.46 48.9892C332.085 48.9892 332.529 48.7557 332.974 48.3205L333.725 48.9892C333.196 49.6261 332.466 50.0401 331.439 50.0401ZM329.841 46.7176H332.709C332.624 45.8896 332.138 45.242 331.291 45.242C330.508 45.242 329.958 45.8471 329.841 46.7176Z" fill="white"/>
<path d="M335.265 49.9127V44.3079H336.546V46.5796H339.012V44.3079H340.292V49.9127H339.012V47.6517H336.546V49.9127H335.265Z" fill="white"/>
</svg>
