<svg width="24" height="16" viewBox="0 0 24 16" fill="none" xmlns="http://www.w3.org/2000/svg">
<g clip-path="url(#clip0_346_65)">
<path fill-rule="evenodd" clip-rule="evenodd" d="M10.8674 16H8.00931V2.16802H6.73535C4.39792 2.16802 3.17935 3.30623 3.17935 5.01897C3.17935 6.94851 4.02127 7.84824 5.77157 8.99729L7.2117 9.95122L3.07965 16.0217H0L3.72217 10.6016C1.58414 9.09485 0.376648 7.63144 0.376648 5.17073C0.376648 2.09214 2.57007 0 6.72427 0H10.8563V16H10.8674Z" fill="#0C3264"/>
<path d="M22.5763 5.36583L18.1562 5.05147C17.8904 5.02979 17.6688 4.86718 17.5691 4.6287L15.8853 0.617862C15.708 0.205938 15.3203 -0.0108643 14.9326 -0.0108643C14.5449 -0.0108643 14.1571 0.195098 13.9799 0.617862L12.2961 4.63954C12.2628 4.7371 12.1964 4.81298 12.1299 4.87802V15.0244L14.5227 13.5718C14.7443 13.4309 15.0323 13.4309 15.2538 13.5718L19.0314 15.8482C19.2086 15.9566 19.3859 16.0108 19.5631 16.0108C20.1503 16.0108 20.682 15.4471 20.5269 14.775L19.4856 10.6016C19.4191 10.3414 19.5188 10.0813 19.7182 9.90784L23.1745 7.14361C23.8724 6.53656 23.4736 5.42003 22.5763 5.36583Z" fill="#0C3264"/>
</g>
<defs>
<clipPath id="clip0_346_65">
<rect width="23.5294" height="16" fill="white"/>
</clipPath>
</defs>
</svg>
