<svg width="150" height="48" viewBox="0 0 150 48" fill="none" xmlns="http://www.w3.org/2000/svg">
<g clip-path="url(#clip0_1577_5641)">
<path d="M126.9 35.8931C126.9 32.6404 126.839 29.3845 126.931 26.1335C126.968 24.8399 126.627 24.2585 125.293 24.5185C123.289 24.9109 122.803 24.0001 122.939 22.1379C123.1 19.9577 123.08 17.7499 122.942 15.5648C122.844 14.0047 123.257 13.2973 124.901 13.5913C126.353 13.8513 126.894 13.4249 127.012 11.7518C127.493 4.89601 130.79 1.71927 138.171 0.843931C141.714 0.424026 145.24 0.832627 148.747 1.47056C149.696 1.64337 149.878 1.99382 149.808 2.84009C149.612 5.23355 149.447 7.63185 149.335 10.0318C149.283 11.1461 149.024 11.6323 147.71 11.4126C146.33 11.1817 144.883 11.2753 143.47 11.3254C142.489 11.3609 141.813 12.0021 141.889 12.963C141.978 14.0871 142.989 13.5154 143.59 13.5784C145.191 13.7447 147.396 12.8984 148.25 13.932C149.063 14.9156 148.502 17.0264 148.544 18.6414C148.546 18.7125 148.548 18.7836 148.544 18.853C148.442 20.6731 149.296 22.9891 148.22 24.1761C147.214 25.2872 144.87 24.5088 143.125 24.4765C141.857 24.4523 141.815 25.0321 141.82 26.0011C141.85 32.508 141.795 39.0149 141.868 45.5202C141.884 46.9107 141.672 47.4873 140.081 47.434C136.255 47.3064 132.418 47.3209 128.59 47.4291C127.143 47.4695 126.834 46.9915 126.871 45.651C126.964 42.4016 126.9 39.1457 126.9 35.8931Z" fill="#030304"/>
<path d="M32.393 31.5293C31.7596 30.4795 31.6786 29.9692 32.8823 29.1326C38.6919 25.0966 40.8417 17.1524 38.0341 10.6519C35.5246 4.84108 30.5753 2.59298 24.7236 2.0035C17.0898 1.23475 9.41391 1.84845 1.76069 1.64012C0.360946 1.60297 0.349613 2.28451 0.351233 3.30843C0.370674 17.4528 0.378773 31.5955 0.339891 45.7398C0.336651 46.9478 0.49542 47.4711 1.91136 47.4307C5.88054 47.3193 9.8562 47.3467 13.827 47.4194C15.0161 47.4404 15.3823 47.1271 15.3596 45.9126C15.2834 41.8831 15.3029 37.8504 15.3628 33.821C15.3709 33.2702 14.7521 32.3432 15.9542 32.1365C16.9424 31.9669 17.4462 32.4111 17.8577 33.2961C19.8472 37.571 21.9241 41.804 23.912 46.079C24.351 47.0237 24.8613 47.434 25.9678 47.421C31.1456 47.3564 36.3233 47.392 41.8478 47.392C38.5866 41.909 35.5182 36.7022 32.393 31.5293ZM19.8164 20.8879C15.2996 21.3982 15.2996 21.3982 15.2996 16.9311C15.2996 12.8677 15.2996 12.8677 19.4098 12.9953C22.1898 13.0809 23.8698 14.4117 24.0075 16.6356C24.1598 19.1065 22.7277 20.5584 19.8164 20.8879Z" fill="#030304"/>
<path d="M74.5938 17.028C70.6408 13.5283 65.7773 12.464 59.6664 12.4171C58.1905 12.3396 55.8171 12.7175 53.4923 13.3684C45.925 15.4889 41.3499 21.3547 41.0113 29.3102C40.6759 37.2384 44.7682 43.5256 52.1606 46.2195C56.3631 47.7505 60.7211 48.0622 65.1261 47.2547C72.013 45.9934 77.403 42.6325 79.3487 35.6104C81.2733 28.6675 80.3369 22.1121 74.5938 17.028ZM64.3695 33.4511C62.9568 35.7735 59.5676 36.2903 57.5992 34.4411C55.4105 32.3852 55.4008 27.1816 57.63 25.158C59.0087 23.908 60.6304 23.6754 62.3606 24.3618C64.2221 25.0999 65.2103 27.0104 65.2006 29.7964C65.2038 31.0803 65.0645 32.3093 64.3695 33.4511Z" fill="#030304"/>
<path d="M115.855 16.9973C111.892 13.5121 107.027 12.4527 101.875 12.4591C100.088 12.3558 98.3371 12.5916 96.5939 12.921C88.2861 14.4828 83.1246 20.1999 82.3307 28.7256C81.5952 36.6295 85.9305 43.5127 93.4995 46.2421C97.7052 47.7586 102.066 48.0687 106.47 47.2515C113.355 45.974 118.734 42.5938 120.662 35.5684C122.567 28.619 121.614 22.062 115.855 16.9973ZM100.835 35.4247C97.9822 34.8465 96.474 31.1401 97.5562 27.3722C98.3225 24.7042 101.004 23.3492 103.565 24.3344C105.472 25.0676 106.488 26.9265 106.502 29.7043C106.523 33.8743 104.292 36.1256 100.835 35.4247Z" fill="#030304"/>
</g>
<defs>
<clipPath id="clip0_1577_5641">
<rect width="150" height="48" fill="white"/>
</clipPath>
</defs>
</svg>
