<svg width="132" height="131" viewBox="0 0 132 131" fill="none" xmlns="http://www.w3.org/2000/svg">
<path d="M50.5184 114.79C52.0979 115.279 53.2517 116.205 53.9797 117.569C54.6945 118.94 54.8044 120.426 54.3095 122.026C53.8146 123.625 52.8867 124.784 51.5258 125.502C50.1515 126.227 48.6746 126.345 47.0951 125.857C46.2595 125.598 45.5355 125.196 44.923 124.649C44.3106 124.102 43.8579 123.454 43.5649 122.705C43.2618 121.952 43.1414 121.15 43.2039 120.299L44.977 120.847C45.0111 121.639 45.2622 122.325 45.7303 122.906C46.1952 123.496 46.8251 123.914 47.6199 124.16C48.6899 124.491 49.6884 124.404 50.6153 123.898C51.5422 123.392 52.1791 122.578 52.5258 121.457C52.8694 120.346 52.8015 119.32 52.3222 118.379C51.8398 117.449 51.0635 116.818 49.9935 116.487C49.1783 116.235 48.4039 116.23 47.6703 116.472C46.9335 116.724 46.3313 117.191 45.8637 117.872L44.0753 117.319C44.7381 116.151 45.655 115.335 46.8257 114.87C47.9933 114.417 49.2242 114.39 50.5184 114.79Z" fill="white"/>
<path d="M28.0459 101.609L29.5036 102.784L25.4357 109.923L33.243 106.023L33.6043 106.314L31.4658 114.782L37.577 109.289L39.0347 110.463L30.5873 118.04L29.1795 116.906L31.2917 108.827L23.8471 112.609L22.4267 111.465L28.0459 101.609Z" fill="white"/>
<path d="M20.9052 90.8789C21.7252 92.3635 21.9251 93.8616 21.5049 95.3732C21.0754 96.89 20.1323 98.0506 18.6757 98.8551C17.2191 99.6596 15.7392 99.8373 14.236 99.3881C12.7234 98.944 11.5572 97.9797 10.7372 96.4951C9.91717 95.0105 9.72195 93.5099 10.1515 91.9931C10.5717 90.4815 11.5101 89.3235 12.9667 88.519C13.9191 87.9929 14.9112 87.7374 15.9431 87.7524C16.9604 87.7632 17.9077 88.0442 18.7849 88.5955C19.657 89.1374 20.3637 89.8985 20.9052 90.8789ZM19.7487 94.8079C20.0496 93.7643 19.9216 92.7383 19.3646 91.7299C18.8025 90.7121 18.0022 90.0575 16.9638 89.7658C15.9109 89.4701 14.8802 89.6006 13.8718 90.1576C12.8634 90.7146 12.2087 91.5149 11.9078 92.5585C11.5923 93.5979 11.7157 94.6265 12.2778 95.6442C12.8348 96.6526 13.6397 97.3047 14.6926 97.6005C15.7362 97.9014 16.7622 97.7734 17.7706 97.2165C18.779 96.6595 19.4384 95.8566 19.7487 94.8079Z" fill="white"/>
<path d="M3.21177 72.9348L4.89765 72.6369L5.47116 75.8826L14.8144 74.2317L15.1318 76.0278L5.78855 77.6788L6.36206 80.9245L4.67618 81.2224L3.21177 72.9348Z" fill="white"/>
<path d="M12.5332 61.2808L13.0479 56.4602L14.782 56.6453L14.0721 63.2955L2.93534 62.1066L3.62663 55.6314L5.34487 55.8148L4.84891 60.4604L7.74445 60.7695L8.19625 56.5376L9.88267 56.7176L9.43087 60.9496L12.5332 61.2808Z" fill="white"/>
<path d="M8.98088 38.5163L10.5659 39.1634L9.32007 42.2149L18.1042 45.8011L17.4148 47.4898L8.63065 43.9036L7.38485 46.9551L5.79985 46.308L8.98088 38.5163Z" fill="white"/>
<path d="M20.1077 28.168C20.8174 27.2878 21.6739 26.7863 22.6772 26.6635C23.6806 26.5408 24.6057 26.8208 25.4527 27.5037C26.2914 28.1799 26.7571 29.0213 26.8499 30.0279C26.9427 31.0344 26.6342 31.9778 25.9245 32.858L23.2833 36.1338L14.5643 29.1039L15.7192 27.6715L18.6214 30.0115L20.1077 28.168ZM24.499 31.873C24.8873 31.3914 25.06 30.8798 25.0171 30.3382C24.9726 29.7816 24.722 29.3192 24.2652 28.951C23.8085 28.5828 23.3077 28.4393 22.7626 28.5205C22.216 28.5867 21.7485 28.8606 21.3602 29.3422L19.9542 31.086L23.093 33.6168L24.499 31.873Z" fill="white"/>
<path d="M46.6619 17.99C45.1254 18.6006 43.6458 18.6031 42.223 17.9978C40.8062 17.3785 39.7886 16.2908 39.1702 14.7345C38.5518 13.1782 38.5472 11.6936 39.1565 10.2807C39.7718 8.85398 40.8477 7.83534 42.3842 7.2248C43.197 6.90181 44.0134 6.76105 44.8334 6.80253C45.6533 6.84401 46.4124 7.0646 47.1107 7.46432C47.8189 7.8601 48.4159 8.40914 48.9015 9.11143L47.1767 9.79681C46.6532 9.2014 46.0271 8.82462 45.2986 8.66648C44.5661 8.49844 43.8132 8.56803 43.04 8.87527C41.9992 9.28886 41.2766 9.98346 40.8723 10.959C40.468 11.9346 40.4825 12.9676 40.9158 14.058C41.3451 15.1385 42.0416 15.8948 43.0053 16.3268C43.965 16.7489 44.9652 16.7532 46.0061 16.3396C46.7991 16.0244 47.4053 15.5425 47.8247 14.8938C48.2402 14.2351 48.4162 13.4937 48.3527 12.6696L50.0924 11.9783C50.3092 13.3039 50.1074 14.5147 49.4869 15.6106C48.8625 16.6966 47.9208 17.4898 46.6619 17.99Z" fill="white"/>
<path d="M60.8141 12.6169L65.6509 12.288L65.7692 14.028L59.0966 14.4817L58.3369 3.30747L64.8339 2.86572L64.9511 4.58974L60.2898 4.90667L60.4874 7.81197L64.7336 7.52326L64.8486 9.21535L60.6024 9.50406L60.8141 12.6169Z" fill="white"/>
<path d="M79.5063 4.49771C80.2047 4.64904 80.8015 4.94206 81.2967 5.37677C81.8023 5.81374 82.1569 6.34349 82.3603 6.96602C82.5638 7.58855 82.5921 8.23863 82.4453 8.91624C82.2217 9.94829 81.6809 10.7315 80.823 11.266C79.965 11.8004 79.0044 11.9525 77.941 11.7221L75.6893 11.2342L74.8829 14.9559L73.0847 14.5663L75.4562 3.62023L79.5063 4.49771ZM78.2165 9.99732C78.5084 10.0606 78.7844 10.0712 79.0445 10.0294C79.315 9.98975 79.5569 9.90574 79.7703 9.77734C79.9837 9.64894 80.1632 9.47502 80.309 9.25558C80.4652 9.03839 80.5727 8.79428 80.6314 8.52324C80.7104 8.15837 80.6918 7.816 80.5756 7.49613C80.472 7.1681 80.2872 6.88794 80.021 6.65564C79.7548 6.42334 79.4289 6.26541 79.0432 6.18184L76.8852 5.7143L76.0586 9.52978L78.2165 9.99732Z" fill="white"/>
<path d="M99.2715 12.5798L98.4442 14.0786L95.5585 12.486L90.9739 20.7928L89.377 19.9114L93.9616 11.6046L91.0759 10.012L91.9032 8.51312L99.2715 12.5798Z" fill="white"/>
<path d="M113.425 24.887L114.336 25.8532L106.188 33.5377L104.936 32.2108L110.582 26.8865L100.907 27.9389L100.029 27.0077L108.177 19.3232L109.44 20.6618L103.852 25.9312L113.425 24.887Z" fill="white"/>
<path d="M120.655 49.0066C119.976 49.2913 119.279 49.4506 118.565 49.4844C117.854 49.5281 117.165 49.4416 116.495 49.225C115.83 49.0183 115.206 48.6613 114.623 48.154C114.05 47.6426 113.576 47.0088 113.2 46.2524L111.622 46.9148L110.928 45.2624L112.507 44.5999C112.23 43.8023 112.11 43.0198 112.147 42.2525C112.193 41.4811 112.369 40.7828 112.673 40.1577C112.992 39.5382 113.413 38.9853 113.938 38.4991C114.463 38.0129 115.059 37.6294 115.728 37.3487C116.269 37.1217 116.819 36.9719 117.379 36.8991C117.948 36.8221 118.509 36.8355 119.061 36.9391C119.624 37.0386 120.155 37.215 120.654 37.4681C121.168 37.7269 121.639 38.0785 122.068 38.523C122.512 38.9731 122.885 39.5047 123.189 40.1177L124.576 39.5357L125.269 41.1882L123.882 41.7701C124.159 42.5678 124.279 43.3502 124.242 44.1175C124.206 44.8848 124.028 45.5782 123.71 46.1976C123.405 46.8228 122.989 47.3736 122.46 47.85C121.935 48.3363 121.333 48.7218 120.655 49.0066ZM114.802 45.5628C115.312 46.5289 116.047 47.1634 117.007 47.4662C117.976 47.7649 118.948 47.7099 119.922 47.3013C120.886 46.8968 121.596 46.246 122.052 45.3489C122.519 44.4476 122.585 43.4768 122.253 42.4364L114.802 45.5628ZM116.467 39.0687C115.503 39.4732 114.786 40.1212 114.316 41.0126C113.85 41.9139 113.783 42.8847 114.115 43.9251L121.566 40.7987C121.06 39.8424 120.323 39.2149 119.353 38.9163C118.393 38.6134 117.431 38.6643 116.467 39.0687Z" fill="white"/>
<path d="M128.49 66.366L128.541 67.693L117.349 68.1238L117.279 66.3011L125.034 66.0027L117.053 60.4335L117.004 59.1544L128.196 58.7237L128.267 60.5623L120.592 60.8577L128.49 66.366Z" fill="white"/>
<path d="M114.471 82.5139L120.163 80.5128L120.528 79.2525L115.809 77.8876L116.321 76.12L127.08 79.2322L126.568 80.9997L122.173 79.7282L121.812 80.9731L125.319 85.3186L124.692 87.4858L120.56 82.3097L113.835 84.7118L114.471 82.5139Z" fill="white"/>
<path d="M106.419 97.4351L108.976 98.0069L111.801 93.8914L110.34 91.7235L111.444 90.1142L118.124 100.173L117.146 101.598L105.296 99.0707L106.419 97.4351ZM115.648 99.5401L112.798 95.3517L110.697 98.412L115.648 99.5401Z" fill="white"/>
<path d="M101.115 117.628L100.067 116.274L102.673 114.257L96.8644 106.754L98.3066 105.638L104.115 113.14L106.721 111.122L107.769 112.476L101.115 117.628Z" fill="white"/>
<path d="M85.9705 121.166C84.897 121.521 83.9055 121.478 82.9958 121.037C82.0861 120.597 81.4604 119.86 81.1188 118.827C80.7805 117.804 80.8452 116.844 81.3128 115.948C81.7804 115.052 82.5509 114.427 83.6244 114.072L87.6196 112.75L91.1363 123.384L89.3893 123.962L88.2188 120.422L85.9705 121.166ZM82.0825 126.378L80.3356 126.956L76.8189 116.322L78.5658 115.745L82.0825 126.378ZM84.2885 115.672C83.7011 115.866 83.2787 116.203 83.0212 116.681C82.7569 117.173 82.7169 117.697 82.9011 118.254C83.0853 118.811 83.4285 119.203 83.9305 119.43C84.4258 119.671 84.9671 119.694 85.5545 119.5L87.6812 118.797L86.4152 114.969L84.2885 115.672Z" fill="white"/>
</svg>
