<svg width="136" height="136" viewBox="0 0 136 136" fill="none" xmlns="http://www.w3.org/2000/svg">
<path d="M67.3346 121.772C68.9879 121.758 70.3684 122.29 71.4762 123.369C72.5734 124.459 73.129 125.841 73.1431 127.515C73.1572 129.19 72.6248 130.576 71.546 131.673C70.4566 132.781 69.0853 133.342 67.432 133.356C66.5574 133.363 65.7453 133.199 64.9958 132.864C64.2463 132.529 63.6182 132.049 63.1116 131.424C62.5944 130.799 62.2362 130.071 62.0372 129.241L63.8932 129.225C64.1661 129.97 64.6136 130.547 65.2358 130.958C65.858 131.379 66.5851 131.587 67.4171 131.58C68.5371 131.57 69.4618 131.184 70.1914 130.42C70.9211 129.657 71.2809 128.688 71.2711 127.515C71.2613 126.352 70.8852 125.396 70.1429 124.644C69.4006 123.904 68.4695 123.538 67.3496 123.548C66.4963 123.555 65.7568 123.785 65.1313 124.239C64.5058 124.703 64.0738 125.33 63.8351 126.122L61.9631 126.137C62.2401 124.823 62.8659 123.767 63.8406 122.969C64.8153 122.182 65.98 121.783 67.3346 121.772Z" fill="white"/>
<path d="M45.2582 117.617L47.0573 118.134L46.0766 126.293L51.7601 119.67L52.2061 119.798L53.5191 128.433L57.0216 120.999L58.8207 121.516L53.9728 131.776L52.2352 131.277L51.0491 123.011L45.6538 129.384L43.9009 128.88L45.2582 117.617Z" fill="white"/>
<path d="M38.068 112.67C39.4906 113.593 40.3725 114.821 40.7138 116.352C41.0492 117.892 40.764 119.36 39.858 120.756C38.952 122.152 37.7302 123.006 36.1926 123.317C34.6491 123.638 33.1661 123.337 31.7436 122.413C30.321 121.49 29.442 120.258 29.1065 118.718C28.7652 117.186 29.0476 115.723 29.9536 114.327C30.546 113.414 31.3008 112.722 32.2181 112.249C33.1206 111.779 34.0886 111.581 35.1221 111.654C36.1466 111.721 37.1286 112.06 38.068 112.67ZM38.8983 116.68C38.6722 115.618 38.076 114.773 37.1098 114.146C36.1345 113.513 35.1202 113.312 34.0668 113.544C32.9987 113.779 32.151 114.38 31.5238 115.346C30.8966 116.313 30.696 117.327 30.922 118.389C31.1333 119.455 31.7266 120.304 32.7018 120.937C33.6681 121.564 34.6853 121.76 35.7534 121.525C36.8158 121.299 37.6605 120.703 38.2878 119.737C38.915 118.771 39.1185 117.752 38.8983 116.68Z" fill="white"/>
<path d="M16.9624 108.83L18.2138 107.661L20.463 110.071L27.3986 103.596L28.6432 104.929L21.7077 111.404L23.9569 113.813L22.7054 114.982L16.9624 108.83Z" fill="white"/>
<path d="M11.3012 100.142C10.9359 99.5276 10.7435 98.8912 10.7241 98.2326C10.6992 97.5648 10.8451 96.9443 11.162 96.3711C11.4788 95.7979 11.9352 95.334 12.5311 94.9796C13.4386 94.4397 14.3804 94.3016 15.3562 94.5651C16.3321 94.8286 17.0981 95.4279 17.6543 96.3629L18.8321 98.3431L22.1049 96.3964L23.0456 97.9778L13.4197 103.703L11.3012 100.142ZM16.2045 97.337C16.0518 97.0803 15.8715 96.8711 15.6636 96.7093C15.4502 96.5384 15.2238 96.4186 14.9844 96.35C14.7451 96.2814 14.4954 96.2685 14.2355 96.3115C13.9701 96.3452 13.7182 96.433 13.4799 96.5747C13.159 96.7656 12.9212 97.0126 12.7664 97.3156C12.5969 97.615 12.5179 97.9412 12.5294 98.2943C12.5408 98.6474 12.6474 98.9936 12.8492 99.3328L13.978 101.23L17.3333 99.2347L16.2045 97.337Z" fill="white"/>
<path d="M15.3462 86.1519L13.8112 81.5533L15.4655 81.0011L17.583 87.345L6.95924 90.8911L4.89742 84.7142L6.53652 84.1671L8.01576 88.5987L10.7779 87.6767L9.43042 83.6397L11.0392 83.1027L12.3867 87.1397L15.3462 86.1519Z" fill="white"/>
<path d="M2.73295 70.5886L4.43362 70.3919L4.81222 73.6661L14.2374 72.5762L14.4469 74.3882L5.02173 75.478L5.40033 78.7522L3.69966 78.9488L2.73295 70.5886Z" fill="white"/>
<path d="M7.05427 60.5429C7.16638 59.4178 7.60866 58.5293 8.38111 57.8773C9.15356 57.2254 10.0811 56.9533 11.1637 57.0612C12.2358 57.168 13.0861 57.6172 13.7147 58.4088C14.3433 59.2004 14.6016 60.1587 14.4894 61.2838L14.0722 65.4711L2.9274 64.3605L3.10984 62.5296L6.81947 62.8992L7.05427 60.5429ZM12.7573 61.2398C12.8186 60.6242 12.6831 60.1015 12.3507 59.6718C12.0088 59.2304 11.546 58.9806 10.9622 58.9224C10.3784 58.8642 9.8807 59.0183 9.46902 59.3846C9.04777 59.7393 8.80648 60.2244 8.74514 60.84L8.52303 63.069L12.5352 63.4688L12.7573 61.2398Z" fill="white"/>
<path d="M16.4069 37.7651C16.8499 37.4416 17.3483 37.2667 17.902 37.2403C18.4512 37.1997 18.9959 37.3187 19.5362 37.5976C20.3135 37.9987 20.8181 38.6373 21.0503 39.5133C21.2872 40.3798 21.1856 41.2396 20.7453 42.0927L18.6321 46.1875L8.67933 41.0511L10.7486 37.0416C11.1791 36.2074 11.7802 35.6474 12.5519 35.3615C13.319 35.0612 14.0676 35.0994 14.7974 35.4761C15.2334 35.7011 15.6014 36.023 15.9014 36.4419C16.1919 36.8559 16.3604 37.297 16.4069 37.7651ZM14.2026 37.2217C13.8235 37.026 13.4469 36.9997 13.073 37.1428C12.6945 37.2716 12.4049 37.5303 12.2043 37.9189L11.0156 40.2222L13.6033 41.5577L14.7921 39.2544C14.9975 38.8563 15.0431 38.4656 14.9287 38.0825C14.8143 37.6994 14.5723 37.4125 14.2026 37.2217ZM19.13 41.3851C19.355 40.949 19.4057 40.5251 19.2822 40.1132C19.1636 39.6919 18.9004 39.3761 18.4928 39.1657C18.0853 38.9554 17.6754 38.9239 17.2632 39.0713C16.8559 39.2092 16.5398 39.4962 16.3148 39.9322L15.082 42.3208L17.8972 43.7737L19.13 41.3851Z" fill="white"/>
<path d="M21.7393 22.099L22.6155 21.101L31.0324 28.4899L29.8291 29.8606L23.9973 24.7412L25.9552 34.2735L25.1108 35.2355L16.6938 27.8466L17.9077 26.4638L23.6793 31.5305L21.7393 22.099Z" fill="white"/>
<path d="M41.0439 19.2089L41.9736 18.5844L44.1417 21.8117L42.7339 22.7575L41.5204 20.9512L35.1587 25.2251L36.3722 27.0313L34.9644 27.9771L32.7962 24.7497L33.5267 24.259C33.5883 24.102 33.6291 23.9524 33.6494 23.8104C33.6696 23.6683 33.666 23.4908 33.6386 23.2779C33.6112 23.065 33.5646 22.8521 33.4988 22.6394C33.4329 22.4266 33.3225 22.1474 33.1674 21.8018C33.0152 21.4414 32.8513 21.0826 32.6754 20.7252C32.4937 20.359 32.2479 19.888 31.9382 19.3122C31.6314 18.7216 31.3157 18.137 30.9912 17.5583C30.6696 16.9648 30.2647 16.2281 29.7764 15.3482L35.7529 11.3332L41.0439 19.2089ZM32.099 15.8503C33.391 18.1178 34.2533 19.7552 34.6858 20.7625C35.1124 21.7609 35.275 22.5576 35.1736 23.1526L39.5033 20.2439L35.167 13.7893L32.099 15.8503Z" fill="white"/>
<path d="M48.1694 16.1153L52.7153 14.4305L53.3213 16.0658L47.0502 18.39L43.1579 7.88811L49.264 5.62503L49.8646 7.24533L45.4838 8.86896L46.4957 11.5995L50.4865 10.1204L51.0759 11.7107L47.0851 13.1897L48.1694 16.1153Z" fill="white"/>
<path d="M62.7863 14.6778C61.1007 14.8655 59.6406 14.4754 58.4058 13.5074C57.1699 12.5289 56.4599 11.2127 56.2757 9.55894C56.0915 7.90517 56.4952 6.47034 57.4867 5.25445C58.477 4.02796 59.815 3.32085 61.5005 3.13313C63.1861 2.9454 64.6469 3.34081 65.8828 4.31936C67.1175 5.2873 67.827 6.59816 68.0111 8.25194C68.1316 9.33325 67.9869 10.3475 67.5773 11.2947C67.177 12.23 66.5541 12.997 65.7085 13.5956C64.8735 14.1931 63.8994 14.5538 62.7863 14.6778ZM59.6017 12.1024C60.45 12.7807 61.4466 13.0561 62.5915 12.9286C63.747 12.7999 64.6586 12.312 65.3263 11.4649C66.0034 10.606 66.2782 9.60406 66.1506 8.45914C66.0231 7.31422 65.5352 6.40263 64.6869 5.72435C63.8481 5.0343 62.8509 4.75362 61.6954 4.88231C60.5504 5.00982 59.6394 5.50303 58.9623 6.36192C58.2841 7.21021 58.0087 8.20681 58.1362 9.35173C58.2637 10.4967 58.7522 11.4136 59.6017 12.1024Z" fill="white"/>
<path d="M85.4653 17.371C83.8544 16.8408 82.6887 15.8788 81.9683 14.485C81.2512 13.0812 81.1528 11.5889 81.673 10.0083C82.1932 8.42775 83.157 7.29072 84.5643 6.59727C85.975 5.89368 87.4858 5.807 89.0968 6.33721C90.7078 6.86743 91.8718 7.83447 92.5889 9.23835C93.3093 10.6321 93.4094 12.1193 92.8891 13.6998C92.549 14.7333 91.9957 15.5956 91.2293 16.2866C90.4763 16.9708 89.5908 17.4093 88.5729 17.6021C87.565 17.7981 86.5292 17.7211 85.4653 17.371ZM83.6401 13.7046C84.1295 14.6742 84.9213 15.339 86.0156 15.6992C87.12 16.0627 88.1519 15.998 89.1114 15.5053C90.0843 15.0058 90.7508 14.2089 91.111 13.1146C91.4711 12.0204 91.4065 10.9884 90.9171 10.0188C90.4412 9.04242 89.651 8.37248 88.5466 8.009C87.4523 7.64885 86.4187 7.71855 85.4458 8.21808C84.4762 8.70749 83.8113 9.49932 83.4512 10.5936C83.091 11.6878 83.154 12.7248 83.6401 13.7046Z" fill="white"/>
<path d="M106.274 30.0862L106.906 24.0857L105.924 23.2161L102.668 26.8938L101.29 25.6741L108.715 17.2883L110.092 18.508L107.059 21.9342L108.029 22.7933L113.459 21.4883L115.148 22.9837L108.7 24.4981L107.987 31.6029L106.274 30.0862Z" fill="white"/>
<path d="M113.044 39.0135C112.104 37.6018 111.781 36.1253 112.075 34.5842C112.378 33.0371 113.222 31.8025 114.607 30.8804C115.992 29.9583 117.452 29.659 118.987 29.9825C120.531 30.3 121.773 31.1647 122.713 32.5765C123.653 33.9883 123.972 35.4677 123.669 37.0147C123.375 38.5559 122.535 39.7875 121.15 40.7096C120.245 41.3125 119.277 41.6491 118.247 41.7195C117.233 41.7927 116.265 41.5909 115.346 41.114C114.432 40.646 113.665 39.9458 113.044 39.0135ZM113.872 35.0025C113.658 36.0674 113.871 37.0793 114.509 38.0382C115.153 39.006 116.005 39.5924 117.064 39.7972C118.138 40.005 119.154 39.7897 120.113 39.1513C121.072 38.5129 121.658 37.6613 121.872 36.5964C122.1 35.5345 121.892 34.5196 121.248 33.5518C120.61 32.5929 119.754 32.0095 118.68 31.8017C117.615 31.588 116.603 31.8003 115.644 32.4387C114.685 33.0771 114.094 33.9317 113.872 35.0025Z" fill="white"/>
<path d="M121.867 60.3817L121.329 58.5888L128.721 55.0003L120.076 53.8028L119.943 53.3584L126.495 47.5831L118.349 48.6584L117.81 46.8654L129.062 45.3929L129.582 47.1245L123.271 52.5933L131.55 53.6835L132.075 55.4305L121.867 60.3817Z" fill="white"/>
<path d="M132.966 63.8386L133.055 72.2382L121.856 72.3567L121.836 70.5008L131.324 70.4004L131.274 65.6966L121.786 65.7971L121.767 63.9572L132.966 63.8386Z" fill="white"/>
<path d="M119.276 84.9198L121.87 84.552L123.061 79.7041L120.928 78.1917L121.393 76.2961L131.194 83.3491L130.782 85.0272L118.802 86.8466L119.276 84.9198ZM128.654 83.6313L124.509 80.7187L123.623 84.3235L128.654 83.6313Z" fill="white"/>
<path d="M123.678 101.833L122.809 103.455L112.938 98.1619L113.808 96.5403L118.109 98.8466L120.528 94.3344L116.228 92.0282L117.097 90.4066L126.968 95.6997L126.098 97.3212L122.065 95.1587L119.646 99.6708L123.678 101.833Z" fill="white"/>
<path d="M113.067 115.144L112.168 116.122L103.925 108.54L105.159 107.197L110.871 112.451L109.135 102.875L110.001 101.933L118.244 109.515L116.999 110.87L111.346 105.67L113.067 115.144Z" fill="white"/>
<path d="M99.9432 124.891L98.8293 125.614L92.7313 116.219L94.2613 115.226L98.4863 121.735L99.1866 112.029L100.26 111.332L106.358 120.727L104.815 121.728L100.633 115.287L99.9432 124.891Z" fill="white"/>
</svg>
