<svg width="40" height="40" viewBox="0 0 40 40" fill="none" xmlns="http://www.w3.org/2000/svg">
<circle cx="20" cy="20" r="20" fill="#0077FF"/>
<g clip-path="url(#clip0_1168_2110)">
<path d="M10.191 15.7289C10.0229 15.292 9.80796 14.8366 10.3172 14.5902C11.3497 14.5763 12.3821 14.5624 13.4193 14.5484C13.8678 14.5624 14.0733 14.8923 14.3116 15.3525C15.0077 16.6863 15.7318 18.0156 16.6054 19.2379C16.8904 19.6376 17.3716 19.791 17.75 19.1542C17.7921 18.2944 17.8341 17.4346 17.8762 16.5748C17.736 15.5755 17.3856 14.9853 16.7736 14.9249C16.4232 14.5856 16.6755 14.3067 17.4604 14.158C18.7077 13.8931 19.7963 14.0139 20.754 14.1348C21.5622 14.1859 21.679 14.7297 21.665 15.3525C21.637 16.4911 21.6136 17.6345 21.6136 18.7731C21.8519 19.9304 22.4872 19.4656 22.9077 18.9637C23.6599 17.8994 24.3139 16.8629 24.8605 15.6964C25.4258 14.4973 25.58 14.5856 25.9771 14.581C26.9255 14.5763 27.9719 14.5298 28.7288 14.5577C30.3078 14.4648 30.1256 15.1619 29.6818 15.9009C28.9156 17.1883 27.9299 18.3502 27.0516 19.5772C26.519 20.2976 26.5284 20.7484 27.0936 21.1388C27.9299 22.0544 28.8362 22.9095 29.5977 23.8855C30.4246 24.9499 29.8173 25.2427 29.0465 25.3217C28.1261 25.3217 27.2058 25.3217 26.2854 25.3217C25.5006 25.3356 24.7904 25.1404 24.2906 24.3085C23.1366 22.7887 22.277 22.3704 21.9313 23.2256C21.7818 23.602 21.6557 24.1086 21.6603 24.6013C21.665 25.2891 21.2492 25.3449 20.6839 25.3635C20.0766 25.3635 19.4459 25.5122 18.8572 25.3635C16.7736 24.8383 14.7741 23.8716 12.8259 20.5485C11.9476 19.1124 11.0693 17.5415 10.191 15.7289Z" fill="white"/>
</g>
<defs>
<clipPath id="clip0_1168_2110">
<rect width="20" height="11.4286" fill="white" transform="translate(10 14)"/>
</clipPath>
</defs>
</svg>
