<svg width="1380" height="691" viewBox="0 0 1380 691" fill="none" xmlns="http://www.w3.org/2000/svg">
<g filter="url(#filter0_f_1563_4363)">
<path d="M84.1752 419.269C138.613 417.163 190.45 384.472 244.423 373.583C428.107 336.543 610.494 552.978 789.457 480.553C831.578 463.505 870.9 430.883 914.081 421.642C1006.42 401.878 1096.65 491.831 1189.47 478.248C1231.36 472.121 1271.16 445.046 1313.19 441.803C1332.37 440.323 1351.26 443.825 1369.98 449.816V353.209C1325.83 371.904 1279.01 376.231 1233.83 364.151C1179.15 349.538 1127.32 312.658 1071.91 306.912C1009.34 300.418 948.477 334.063 887.16 353.903C804.222 380.741 717.715 382.389 634.35 358.733C533.222 330.034 430.074 264.583 331.09 306.904C297.206 321.395 265.296 348.271 230.192 352.682C205.284 355.811 180.429 347.356 156.207 338.076C106.765 319.129 57.9477 296.48 10 270.261V404.496C34.1073 414.63 58.8171 420.246 84.1752 419.269Z" fill="#80D5FB"/>
<path d="M234.577 558.479C302.117 553.222 362.893 490.702 430.273 482.026C474.826 476.287 519.037 494.487 562.119 512.519C620.302 536.869 678.484 561.211 736.659 585.562C777.422 602.617 819.055 619.832 861.306 616.558C940.911 610.392 1010.74 533.092 1089.3 512.732C1136.01 500.622 1185.03 509.52 1228.49 537.991C1261.31 559.487 1290.79 591.681 1324.23 610.873C1339.04 619.374 1354.37 625.173 1369.98 629.073V449.823C1351.26 443.833 1332.37 440.338 1313.19 441.811C1271.16 445.054 1231.36 472.121 1189.47 478.256C1096.65 491.839 1006.42 401.886 914.081 421.65C870.9 430.891 831.578 463.513 789.457 480.561C610.494 552.985 428.099 336.55 244.423 373.591C190.45 384.472 138.613 417.163 84.1752 419.277C58.8171 420.261 34.1073 414.637 10 404.503V442.231C83.4125 492.198 155.353 564.645 234.577 558.479Z" fill="#4FC1F8"/>
<path d="M450.826 675.377C514.812 661.199 576.022 616.688 640.672 619.572C671.895 620.969 702.363 633.445 733.181 641.03C789.815 654.957 848.234 652.24 904.19 633.064C955.386 615.52 1004.83 584.318 1057.18 578.221C1131.66 569.552 1203.88 612.232 1276.29 639.901C1307.14 651.691 1338.45 660.772 1369.99 667.159V629.073C1354.38 625.174 1339.04 619.374 1324.23 610.873C1290.79 591.682 1261.32 559.487 1228.5 537.991C1185.04 509.52 1136.01 500.622 1089.31 512.732C1010.75 533.092 940.927 610.392 861.314 616.558C819.063 619.832 777.43 602.617 736.667 585.562C678.484 561.211 620.302 536.869 562.127 512.519C519.045 494.487 474.834 476.287 430.28 482.026C362.893 490.71 302.125 553.222 234.585 558.48C155.353 564.645 83.4125 492.198 10 442.223V567.827C57.4367 571.269 105.606 586.294 151.235 604.639C249.662 644.22 350.027 697.713 450.826 675.377Z" fill="#28B6F6"/>
<path d="M208.723 141.894C289.839 147.45 368.841 81.7172 449.377 97.3376C529.638 112.905 599.664 207.589 680.414 199.592C705.993 197.058 730.527 184.147 755.428 174.974C813.732 153.501 875.339 152.601 933.918 172.349C979.516 187.725 1024.19 215.555 1070.9 213.403C1148.84 209.809 1218.35 123.313 1296.27 127.976C1321.95 129.509 1346.21 140.803 1370 155.47V51.1631C1312.91 92.2097 1248.38 110.028 1185.51 98.8638C1086.39 81.267 992.283 -2.40574 893.124 14.5577C824.508 26.2864 761.666 85.7387 692.646 89.142C629.621 92.2478 570.318 48.4007 508.97 26.4314C449.491 5.13358 386.779 4.53074 327.124 24.6763C276.523 41.7695 227.789 73.5979 176.044 78.764C132.031 83.1594 88.2096 67.9587 45.8902 49.2554C33.8709 43.9443 21.9049 38.3356 10 32.4445V72.2396C23.7124 74.2618 37.3409 78.0009 50.4127 82.8923C103.31 102.687 154.27 138.163 208.723 141.894Z" fill="#F3FBFF"/>
<path d="M187.926 171.036C233.227 159.041 280.694 166.13 323.548 191.296C361.482 213.579 397.654 250.268 438.372 249.459C476.535 248.704 511.342 214.67 549.375 209.862C625.076 200.293 689.093 305.981 765.045 308.454C850.187 311.224 929.586 183.925 1009.56 227.955C1026.74 237.41 1041.73 254.221 1058.66 264.622C1113.09 298.068 1173.76 260.387 1230.51 237.25C1275.9 218.752 1322.98 209.809 1369.99 210.458V155.469C1346.2 140.803 1321.95 129.509 1296.27 127.975C1218.35 123.313 1148.83 209.801 1070.89 213.403C1024.18 215.563 979.509 187.725 933.91 172.349C875.339 152.6 813.732 153.501 755.42 174.974C730.52 184.146 705.985 197.058 680.406 199.591C599.657 207.588 529.63 112.904 449.369 97.3373C368.834 81.7169 289.831 147.449 208.716 141.894C154.263 138.163 103.302 102.687 50.4051 82.892C37.3409 77.993 23.7124 74.2615 10 72.2317V223.224C34.3437 223.209 58.5731 220.21 82.5126 212.686C118.09 201.499 152.135 180.522 187.926 171.036Z" fill="#E2F4FE"/>
<path d="M230.184 352.682C265.289 348.271 297.198 321.388 331.083 306.904C430.074 264.583 533.222 330.034 634.342 358.733C717.715 382.389 804.214 380.741 887.16 353.911C948.477 334.07 1009.34 300.433 1071.91 306.92C1127.31 312.666 1179.15 349.546 1233.83 364.159C1279.01 376.231 1325.83 371.912 1369.98 353.216V210.458C1322.97 209.809 1275.89 218.752 1230.5 237.25C1173.76 260.379 1113.09 298.068 1058.65 264.622C1041.72 254.221 1026.73 237.41 1009.56 227.955C929.578 183.925 850.179 311.223 765.037 308.453C689.085 305.981 625.068 200.293 549.368 209.862C511.334 214.67 476.527 248.696 438.364 249.459C397.646 250.268 361.474 213.579 323.54 191.296C280.687 166.13 233.219 159.033 187.918 171.036C152.119 180.514 118.082 201.499 82.505 212.686C58.5731 220.217 34.3437 223.216 10 223.232V270.261C57.9477 296.481 106.765 319.129 156.207 338.077C180.421 347.356 205.284 355.818 230.184 352.682Z" fill="#B2E5FB"/>
</g>
<defs>
<filter id="filter0_f_1563_4363" x="0" y="0" width="1380" height="690.644" filterUnits="userSpaceOnUse" color-interpolation-filters="sRGB">
<feFlood flood-opacity="0" result="BackgroundImageFix"/>
<feBlend mode="normal" in="SourceGraphic" in2="BackgroundImageFix" result="shape"/>
<feGaussianBlur stdDeviation="5" result="effect1_foregroundBlur_1563_4363"/>
</filter>
</defs>
</svg>
